# Blender 4.4.0
# www.blender.org
mtllib tallBuilding_02_top.mtl
o Untitled
v -1.200000 7.600000 0.399998
v -1.200000 7.600000 0.199998
v -1.200000 7.600000 -0.000002
v -1.200000 7.600000 -0.200002
v -1.200000 7.600000 -0.400002
v -1.200000 7.600000 -0.600002
v -1.200000 7.600000 -0.800002
v -1.200000 7.600000 -1.000002
v -1.200000 7.600000 -1.200002
v -1.200000 7.600000 -1.400002
v -1.200000 7.800000 0.399998
v -1.200000 7.800000 0.199998
v -1.200000 7.800000 -0.000002
v -1.200000 7.800000 -0.200002
v -1.200000 7.800000 -0.400002
v -1.200000 7.800000 -0.600002
v -1.200000 7.800000 -0.800002
v -1.200000 7.800000 -1.000002
v -1.200000 7.800000 -1.200002
v -1.200000 7.800000 -1.400002
v -1.100000 4.800000 0.100000
v -1.100000 4.800000 -0.200000
v -1.100000 5.000000 0.100000
v -1.100000 5.000000 -0.200000
v -1.100000 5.100000 -0.200000
v -1.100000 5.100000 -0.600000
v -1.100000 5.300000 -0.200000
v -1.100000 5.300000 -0.600000
v -1.100000 6.700000 0.199998
v -1.100000 6.700000 -0.100001
v -1.100000 6.900000 0.199998
v -1.100000 6.900000 -0.100001
v -1.100000 7.000000 0.599998
v -1.100000 7.000000 0.099998
v -1.100000 7.000000 -0.200002
v -1.100000 7.000000 -0.500002
v -1.100000 7.200000 -0.200002
v -1.100000 7.200000 -0.500002
v -1.100000 7.400000 0.599998
v -1.100000 7.400000 0.099998
v -1.000000 4.500000 0.800000
v -1.000000 4.600000 0.500000
v -1.000000 4.500000 0.900000
v -1.000000 4.500000 0.700000
v -1.000000 4.550000 0.300000
v -1.000000 4.600000 0.600000
v -1.000000 4.800000 0.100000
v -1.000000 4.800000 -0.200000
v -1.000000 5.000000 0.100000
v -1.000000 5.000000 -0.100000
v -1.000000 5.000000 -0.200000
v -1.000000 5.100000 -0.600000
v -1.000000 5.100000 -0.200000
v -1.000000 5.300000 -0.200000
v -1.000000 5.300000 -0.600000
v -1.000000 5.450000 -0.650000
v -1.000000 6.100000 1.100000
v -1.000000 6.100000 1.000000
v -1.000000 6.200000 0.800000
v -1.000000 6.200000 0.700000
v -1.000000 6.400000 0.500000
v -1.000000 6.500000 1.100000
v -1.000000 6.400000 1.000000
v -1.000000 6.400000 0.800000
v -1.000000 6.400000 0.700000
v -1.000000 6.500000 0.600000
v -1.000000 6.600000 0.499998
v -1.000000 6.600000 0.600000
v -1.000000 6.700000 0.199998
v -1.000000 6.700000 -0.100001
v -1.000000 7.000000 0.499998
v -1.000000 6.900000 0.199998
v -1.000000 6.900000 -0.100001
v -1.000000 7.000000 -0.500002
v -1.000000 6.950000 -1.400000
v -1.000000 6.950000 -1.500000
v -1.000000 7.000000 0.099998
v -1.000000 7.000000 -0.200002
v -1.000000 7.200000 -0.200002
v -1.000000 7.200000 -0.500002
v -1.000000 7.250000 -0.650002
v -1.000000 7.400000 0.499998
v -1.000000 7.400000 0.099998
v -1.000000 7.450000 -0.075001
v -1.000000 7.450000 -0.650002
v -1.000000 7.450000 -1.150002
v -1.000000 7.600000 0.199998
v -1.000000 7.600000 -0.200002
v -1.000000 7.600000 -0.400002
v -1.000000 7.500000 -0.800002
v -1.000000 7.600000 -1.000002
v -1.000000 7.600000 -1.400002
v -1.000000 7.600000 0.399998
v -1.000000 7.600000 -0.000002
v -1.000000 7.600000 -0.600002
v -1.000000 7.600000 -0.800002
v -1.000000 7.600000 -1.200002
v -1.000000 7.800000 -1.200002
v -1.000000 7.800000 0.399998
v -1.000000 7.800000 0.199998
v -1.000000 7.800000 -0.000002
v -1.000000 7.800000 -0.200002
v -1.000000 7.800000 -0.400002
v -1.000000 7.800000 -0.600002
v -1.000000 7.800000 -0.800002
v -1.000000 7.800000 -1.000002
v -1.000000 7.800000 -1.400002
v -1.000000 7.900000 -0.150002
v -1.000000 8.000000 0.499998
v -1.000000 8.000000 -1.500002
v -0.900000 7.600000 0.699998
v -0.900000 7.600000 0.499998
v -0.900000 7.600000 -1.500002
v -0.900000 7.600000 -1.700002
v -0.900000 7.800000 0.699998
v -0.900000 7.800000 0.499998
v -0.900000 7.800000 -1.500002
v -0.900000 7.800000 -1.700002
v -0.800000 5.600000 -1.500000
v -0.800000 5.600000 -1.600001
v -0.800000 6.000000 -1.500000
v -0.800000 6.000000 -1.600001
v -0.800000 6.100000 1.100000
v -0.800000 6.100000 1.000000
v -0.800000 6.300000 1.100000
v -0.800000 6.300000 1.000000
v -0.600000 6.100000 1.100000
v -0.600000 6.100000 1.000000
v -0.600000 6.300000 1.100000
v -0.600000 6.300000 1.000000
v -0.500000 6.800000 0.599998
v -0.500000 6.800000 0.499998
v -0.500000 7.000000 0.499998
v -0.500000 7.000000 0.599998
v -0.500000 7.600000 0.699998
v -0.500000 7.600000 0.499998
v -0.500000 7.600000 -1.500002
v -0.500000 7.600000 -1.700002
v -0.500000 7.800000 0.499998
v -0.500000 7.800000 0.699998
v -0.500000 7.800000 -1.500002
v -0.500000 7.800000 -1.700002
v -0.400000 6.100000 1.100000
v -0.400000 6.100000 1.000000
v -0.400000 6.300000 1.100000
v -0.400000 6.300000 1.000000
v -0.300000 6.200000 0.500000
v -0.300000 6.200000 0.400000
v -0.300000 6.400000 0.500000
v -0.300000 6.400000 0.300000
v -0.200000 6.100000 1.100000
v -0.200000 6.100000 1.000000
v -0.200000 6.100000 -1.500000
v -0.200000 6.100000 -1.600001
v -0.200000 6.300000 1.100000
v -0.200000 6.300000 1.000000
v -0.200000 6.400000 0.800000
v -0.200000 6.400000 0.700000
v -0.200000 6.300000 -1.500000
v -0.200000 6.300000 -1.600001
v -0.100000 7.000000 -1.500000
v -0.100000 7.000000 -1.600001
v -0.100000 7.200000 -1.500002
v -0.100000 7.200000 -1.600002
v -0.100000 7.600000 0.699998
v -0.100000 7.600000 0.499998
v -0.100000 7.600000 -1.500002
v -0.100000 7.600000 -1.700002
v -0.100000 7.800000 0.699998
v -0.100000 7.800000 0.499998
v -0.100000 7.800000 -1.500002
v -0.100000 7.800000 -1.700002
v 0.000000 7.100000 0.599998
v 0.000000 7.100000 0.499998
v 0.000000 7.300000 0.599998
v 0.000000 7.300000 0.499998
v 0.100000 6.100000 1.100000
v 0.100000 6.100000 1.000000
v 0.100000 6.400000 0.800000
v 0.100000 6.400000 0.700000
v 0.100000 6.500000 1.100000
v 0.100000 6.400000 1.000000
v 0.100000 6.400000 0.500000
v 0.100000 6.500000 0.600000
v 0.100000 6.500000 -1.500000
v 0.100000 6.500000 -1.600001
v 0.100000 6.600000 0.600000
v 0.100000 6.600000 0.499998
v 0.100000 6.900000 -1.500000
v 0.100000 6.900000 -1.600001
v 0.300000 6.100000 1.100000
v 0.300000 6.100000 1.000000
v 0.300000 6.300000 1.100000
v 0.300000 6.300000 1.000000
v 0.300000 7.600000 0.699998
v 0.300000 7.600000 0.499998
v 0.300000 7.600000 -1.500002
v 0.300000 7.600000 -1.700002
v 0.300000 7.800000 0.699998
v 0.300000 7.800000 0.499998
v 0.300000 7.800000 -1.500002
v 0.300000 7.800000 -1.700002
v 0.500000 6.100000 1.100000
v 0.500000 6.100000 1.000000
v 0.500000 6.300000 1.100000
v 0.500000 6.300000 1.000000
v 0.600000 7.000000 -1.500000
v 0.600000 7.000000 -1.600001
v 0.600000 7.400000 -1.500002
v 0.600000 7.400000 -1.600002
v 0.700000 6.100000 1.100000
v 0.700000 6.100000 1.000000
v 0.700000 6.300000 1.100000
v 0.700000 6.300000 1.000000
v 0.700000 7.600000 0.699998
v 0.700000 7.600000 0.499998
v 0.700000 7.600000 -1.500002
v 0.700000 7.600000 -1.700002
v 0.700000 7.800000 0.499998
v 0.700000 7.800000 0.699998
v 0.700000 7.800000 -1.500002
v 0.700000 7.800000 -1.700002
v 0.800000 6.200000 0.500000
v 0.800000 6.200000 0.400000
v 0.800000 6.400000 0.500000
v 0.800000 6.400000 0.300000
v 0.800000 7.700000 0.299998
v 0.800000 7.700000 -1.300002
v 0.800000 7.800000 0.299998
v 0.800000 7.800000 -1.300002
v 0.800000 7.900000 0.299998
v 0.800000 7.900000 -1.300002
v 0.900000 6.100000 1.100000
v 0.900000 6.100000 1.000000
v 0.900000 6.200000 0.800000
v 0.900000 6.200000 0.700000
v 0.900000 6.300000 1.100000
v 0.900000 6.300000 1.000000
v 0.900000 6.400000 0.800000
v 0.900000 6.400000 0.700000
v 0.900000 7.900000 0.399998
v 0.900000 7.900000 -1.400002
v 0.900000 8.000000 0.399998
v 0.900000 8.000000 -1.400002
v -0.900000 4.600000 0.500000
v -0.900000 4.600000 0.600000
v -0.900000 6.100000 1.100000
v -0.900000 6.100000 1.000000
v -0.900000 6.200000 0.800000
v -0.900000 6.200000 0.700000
v -0.900000 6.300000 1.100000
v -0.900000 6.300000 1.000000
v -0.900000 6.400000 0.800000
v -0.900000 6.400000 0.700000
v -0.900000 7.900000 0.399998
v -0.900000 7.900000 -1.400002
v -0.900000 8.000000 0.399998
v -0.900000 8.000000 -1.400002
v -0.800000 6.200000 0.500000
v -0.800000 6.200000 0.400000
v -0.800000 6.400000 0.500000
v -0.800000 6.400000 0.300000
v -0.800000 7.700000 0.299998
v -0.800000 7.700000 -1.300002
v -0.800000 7.800000 0.299998
v -0.800000 7.800000 -1.300002
v -0.800000 7.900000 0.299998
v -0.800000 7.900000 -1.300002
v -0.700000 6.100000 1.100000
v -0.700000 6.100000 1.000000
v -0.700000 6.300000 1.100000
v -0.700000 6.300000 1.000000
v -0.700000 7.600000 0.699998
v -0.700000 7.600000 0.499998
v -0.700000 7.600000 -1.500002
v -0.700000 7.600000 -1.700002
v -0.700000 7.800000 0.499998
v -0.700000 7.800000 0.699998
v -0.700000 7.800000 -1.500002
v -0.700000 7.800000 -1.700002
v -0.600000 7.000000 0.599998
v -0.600000 7.000000 0.499998
v -0.600000 7.400000 0.499998
v -0.600000 7.400000 0.599998
v -0.500000 6.100000 1.100000
v -0.500000 6.100000 1.000000
v -0.500000 6.300000 1.100000
v -0.500000 6.300000 1.000000
v -0.300000 6.100000 1.100000
v -0.300000 6.100000 1.000000
v -0.300000 6.300000 1.100000
v -0.300000 6.300000 1.000000
v -0.300000 7.600000 0.699998
v -0.300000 7.600000 0.499998
v -0.300000 7.600000 -1.500002
v -0.300000 7.600000 -1.700002
v -0.300000 7.800000 0.699998
v -0.300000 7.800000 0.499998
v -0.300000 7.800000 -1.500002
v -0.300000 7.800000 -1.700002
v -0.100000 5.600000 -1.500000
v -0.100000 5.600000 -1.600001
v -0.100000 6.000000 -1.500000
v -0.100000 6.000000 -1.600001
v -0.100000 6.100000 1.100000
v -0.100000 6.100000 1.000000
v -0.100000 6.400000 0.800000
v -0.100000 6.400000 0.700000
v -0.100000 6.500000 1.100000
v -0.100000 6.400000 1.000000
v -0.100000 6.400000 0.500000
v -0.100000 6.500000 0.600000
v -0.100000 6.600000 0.600000
v -0.100000 6.600000 0.499998
v -0.100000 6.800000 0.599998
v -0.100000 6.800000 0.499998
v -0.100000 7.000000 0.599998
v -0.100000 7.000000 0.499998
v 0.100000 6.100000 -1.500000
v 0.100000 6.100000 -1.600001
v 0.100000 6.300000 -1.500000
v 0.100000 6.300000 -1.600001
v 0.100000 7.600000 0.699998
v 0.100000 7.600000 0.499998
v 0.100000 7.600000 -1.500002
v 0.100000 7.600000 -1.700002
v 0.100000 7.800000 0.499998
v 0.100000 7.800000 0.699998
v 0.100000 7.800000 -1.500002
v 0.100000 7.800000 -1.700002
v 0.200000 6.100000 1.100000
v 0.200000 6.100000 1.000000
v 0.200000 6.300000 1.100000
v 0.200000 6.300000 1.000000
v 0.200000 6.400000 0.800000
v 0.200000 6.400000 0.700000
v 0.200000 7.000000 -1.500000
v 0.200000 7.000000 -1.600001
v 0.200000 7.200000 -1.500002
v 0.200000 7.200000 -1.600002
v 0.300000 6.100000 0.500000
v 0.300000 6.100000 0.400000
v 0.300000 6.400000 0.500000
v 0.300000 6.400000 0.300000
v 0.300000 7.100000 0.599998
v 0.300000 7.100000 0.499998
v 0.300000 7.300000 0.599998
v 0.300000 7.300000 0.499998
v 0.400000 6.100000 1.100000
v 0.400000 6.100000 1.000000
v 0.400000 6.300000 1.100000
v 0.400000 6.300000 1.000000
v 0.500000 7.600000 0.699998
v 0.500000 7.600000 0.499998
v 0.500000 7.600000 -1.500002
v 0.500000 7.600000 -1.700002
v 0.500000 7.800000 0.499998
v 0.500000 7.800000 0.699998
v 0.500000 7.800000 -1.500002
v 0.500000 7.800000 -1.700002
v 0.600000 6.100000 1.100000
v 0.600000 6.100000 1.000000
v 0.600000 6.300000 1.100000
v 0.600000 6.300000 1.000000
v 0.800000 6.100000 1.100000
v 0.800000 6.100000 1.000000
v 0.800000 6.300000 1.100000
v 0.800000 6.300000 1.000000
v 0.800000 6.500000 -1.500000
v 0.800000 6.500000 -1.600001
v 0.800000 6.900000 -1.500000
v 0.800000 6.900000 -1.600001
v 0.900000 7.600000 0.699998
v 0.900000 7.600000 0.499998
v 0.900000 7.600000 -1.500002
v 0.900000 7.600000 -1.700002
v 0.900000 7.800000 0.699998
v 0.900000 7.800000 0.499998
v 0.900000 7.800000 -1.500002
v 0.900000 7.800000 -1.700002
v 1.000000 5.750000 -1.400000
v 1.000000 5.750000 -1.500000
v 1.000000 6.100000 1.100000
v 1.000000 6.100000 1.000000
v 1.000000 6.200000 0.800000
v 1.000000 6.200000 0.700000
v 1.000000 6.250000 0.350000
v 1.000000 6.250000 -0.050000
v 1.000000 6.400000 0.500000
v 1.000000 6.500000 1.100000
v 1.000000 6.400000 1.000000
v 1.000000 6.400000 0.800000
v 1.000000 6.400000 0.700000
v 1.000000 6.500000 0.600000
v 1.000000 6.600000 0.499998
v 1.000000 6.550000 -0.250002
v 1.000000 6.600000 0.600000
v 1.000000 6.700000 0.199998
v 1.000000 6.700000 0.499998
v 1.000000 6.700000 0.399998
v 1.000000 6.700000 -0.100001
v 1.000000 6.900000 -0.100001
v 1.000000 6.850000 -0.250002
v 1.000000 6.900000 0.199998
v 1.000000 7.000000 -0.500002
v 1.000000 7.000000 -0.900002
v 1.000000 6.900000 -1.500000
v 1.000000 7.000000 -0.200002
v 1.000000 7.000000 -1.400000
v 1.000000 7.000000 -1.500000
v 1.000000 7.000000 -1.600001
v 1.000000 7.200000 -0.200002
v 1.000000 7.200000 -0.500002
v 1.000000 7.400000 -1.400002
v 1.000000 7.400000 -1.500002
v 1.000000 7.450000 -0.075001
v 1.000000 7.450000 -0.650002
v 1.000000 7.400000 -0.900002
v 1.000000 7.400000 -1.600002
v 1.000000 7.500000 0.399998
v 1.000000 7.600000 0.199998
v 1.000000 7.600000 -0.200002
v 1.000000 7.600000 -0.400002
v 1.000000 7.600000 -0.800002
v 1.000000 7.500000 -1.200002
v 1.000000 7.600000 -1.400002
v 1.000000 7.600000 0.399998
v 1.000000 7.600000 -0.000002
v 1.000000 7.600000 -0.600002
v 1.000000 7.600000 -1.000002
v 1.000000 7.600000 -1.200002
v 1.000000 7.800000 -0.000002
v 1.000000 7.800000 -1.200002
v 1.000000 7.800000 0.399998
v 1.000000 7.800000 0.199998
v 1.000000 7.800000 -0.200002
v 1.000000 7.800000 -0.400002
v 1.000000 7.800000 -0.600002
v 1.000000 7.800000 -0.800002
v 1.000000 7.800000 -1.000002
v 1.000000 7.800000 -1.400002
v 1.000000 8.000000 0.499998
v 1.000000 8.000000 -1.500002
v 1.100000 6.700000 0.199998
v 1.100000 6.700000 -0.100001
v 1.100000 6.900000 0.199998
v 1.100000 6.900000 -0.100001
v 1.100000 7.000000 -0.200002
v 1.100000 7.000000 -0.500002
v 1.100000 7.000000 -0.900002
v 1.100000 7.000000 -1.400000
v 1.100000 7.200000 -0.200002
v 1.100000 7.200000 -0.500002
v 1.100000 7.400000 -0.900002
v 1.100000 7.400000 -1.400002
v 1.200000 7.600000 0.399998
v 1.200000 7.600000 0.199998
v 1.200000 7.600000 -0.000002
v 1.200000 7.600000 -0.200002
v 1.200000 7.600000 -0.400002
v 1.200000 7.600000 -0.600002
v 1.200000 7.600000 -0.800002
v 1.200000 7.600000 -1.000002
v 1.200000 7.600000 -1.200002
v 1.200000 7.600000 -1.400002
v 1.200000 7.800000 0.399998
v 1.200000 7.800000 0.199998
v 1.200000 7.800000 -0.000002
v 1.200000 7.800000 -0.200002
v 1.200000 7.800000 -0.400002
v 1.200000 7.800000 -0.600002
v 1.200000 7.800000 -0.800002
v 1.200000 7.800000 -1.000002
v 1.200000 7.800000 -1.200002
v 1.200000 7.800000 -1.400002
v -1.000000 6.100000 1.100000
v -1.000000 6.500000 1.100000
v -0.900000 6.100000 1.100000
v -0.900000 6.300000 1.100000
v -0.800000 6.100000 1.100000
v -0.800000 6.300000 1.100000
v -0.700000 6.100000 1.100000
v -0.700000 6.300000 1.100000
v -0.600000 6.100000 1.100000
v -0.600000 6.300000 1.100000
v -0.500000 6.100000 1.100000
v -0.500000 6.300000 1.100000
v -0.400000 6.100000 1.100000
v -0.400000 6.300000 1.100000
v -0.300000 6.100000 1.100000
v -0.300000 6.300000 1.100000
v -0.200000 6.100000 1.100000
v -0.200000 6.300000 1.100000
v -0.100000 6.100000 1.100000
v -0.100000 6.500000 1.100000
v 0.100000 6.100000 1.100000
v 0.100000 6.500000 1.100000
v 0.200000 6.100000 1.100000
v 0.200000 6.300000 1.100000
v 0.300000 6.100000 1.100000
v 0.300000 6.300000 1.100000
v 0.400000 6.100000 1.100000
v 0.400000 6.300000 1.100000
v 0.500000 6.100000 1.100000
v 0.500000 6.300000 1.100000
v 0.600000 6.100000 1.100000
v 0.600000 6.300000 1.100000
v 0.700000 6.100000 1.100000
v 0.700000 6.300000 1.100000
v 0.800000 6.100000 1.100000
v 0.800000 6.300000 1.100000
v 0.900000 6.100000 1.100000
v 0.900000 6.300000 1.100000
v 1.000000 6.100000 1.100000
v 1.000000 6.500000 1.100000
v -1.000000 4.500000 0.900000
v -1.000000 4.500000 0.800000
v -1.000000 6.200000 0.800000
v -1.000000 6.400000 0.800000
v -0.900000 6.200000 0.800000
v -0.900000 6.400000 0.800000
v -0.200000 6.400000 0.800000
v -0.100000 6.400000 0.800000
v 0.100000 6.400000 0.800000
v 0.200000 6.400000 0.800000
v 0.900000 6.200000 0.800000
v 0.900000 6.400000 0.800000
v 1.000000 6.200000 0.800000
v 1.000000 6.400000 0.800000
v -0.900000 7.600000 0.699998
v -0.900000 7.800000 0.699998
v -0.700000 7.600000 0.699998
v -0.700000 7.800000 0.699998
v -0.500000 7.600000 0.699998
v -0.500000 7.800000 0.699998
v -0.300000 7.600000 0.699998
v -0.300000 7.800000 0.699998
v -0.100000 7.600000 0.699998
v -0.100000 7.800000 0.699998
v 0.100000 7.600000 0.699998
v 0.100000 7.800000 0.699998
v 0.300000 7.600000 0.699998
v 0.300000 7.800000 0.699998
v 0.500000 7.600000 0.699998
v 0.500000 7.800000 0.699998
v 0.700000 7.600000 0.699998
v 0.700000 7.800000 0.699998
v 0.900000 7.600000 0.699998
v 0.900000 7.800000 0.699998
v -1.100000 7.000000 0.599998
v -1.100000 7.400000 0.599998
v -1.000000 4.600000 0.600000
v -1.000000 6.500000 0.600000
v -1.000000 6.600000 0.600000
v -0.900000 4.600000 0.600000
v -0.600000 7.000000 0.599998
v -0.600000 7.400000 0.599998
v -0.500000 6.800000 0.599998
v -0.500000 7.000000 0.599998
v -0.100000 6.500000 0.600000
v -0.100000 6.600000 0.600000
v -0.100000 6.800000 0.599998
v -0.100000 7.000000 0.599998
v 0.000000 7.100000 0.599998
v 0.000000 7.300000 0.599998
v 0.100000 6.500000 0.600000
v 0.100000 6.600000 0.600000
v 0.300000 7.100000 0.599998
v 0.300000 7.300000 0.599998
v 1.000000 6.500000 0.600000
v 1.000000 6.600000 0.600000
v -1.000000 4.600000 0.500000
v -1.000000 6.400000 0.500000
v -1.000000 6.600000 0.499998
v -1.000000 7.000000 0.499998
v -1.000000 7.400000 0.499998
v -1.000000 8.000000 0.499998
v -0.900000 4.600000 0.500000
v -0.900000 6.250000 0.500000
v -0.800000 6.400000 0.500000
v -0.900000 7.600000 0.499998
v -0.900000 7.800000 0.499998
v -0.800000 6.200000 0.500000
v -0.700000 7.600000 0.499998
v -0.700000 7.800000 0.499998
v -0.600000 7.000000 0.499998
v -0.600000 7.400000 0.499998
v -0.550000 8.000000 0.499998
v -0.500000 6.800000 0.499998
v -0.500000 7.000000 0.499998
v -0.500000 7.600000 0.499998
v -0.500000 7.800000 0.499998
v -0.300000 7.600000 0.499998
v -0.300000 6.200000 0.500000
v -0.300000 6.400000 0.500000
v -0.300000 7.500000 0.499998
v -0.300000 7.800000 0.499998
v -0.200000 6.200000 0.500000
v -0.100000 6.400000 0.500000
v -0.100000 6.600000 0.499998
v -0.150000 7.425000 0.499998
v -0.050000 6.700000 0.499998
v -0.100000 6.800000 0.499998
v -0.100000 7.000000 0.499998
v -0.100000 7.600000 0.499998
v -0.100000 7.800000 0.499998
v 0.000000 7.100000 0.499998
v 0.000000 7.300000 0.499998
v 0.100000 7.600000 0.499998
v 0.100000 6.400000 0.500000
v 0.100000 6.600000 0.499998
v 0.100000 7.500000 0.499998
v 0.100000 7.800000 0.499998
v 0.200000 6.100000 0.500000
v 0.300000 6.400000 0.500000
v 0.200000 7.850000 0.499998
v 0.300000 6.100000 0.500000
v 0.300000 7.100000 0.499998
v 0.300000 7.300000 0.499998
v 0.300000 7.500000 0.499998
v 0.300000 7.600000 0.499998
v 0.300000 7.800000 0.499998
v 0.450000 6.950000 0.499998
v 0.550000 7.425000 0.499998
v 0.500000 7.600000 0.499998
v 0.500000 7.800000 0.499998
v 0.700000 7.600000 0.499998
v 0.700000 7.800000 0.499998
v 0.800000 6.200000 0.500000
v 0.800000 6.400000 0.500000
v 0.900000 7.600000 0.499998
v 0.900000 6.250000 0.500000
v 0.900000 7.500000 0.499998
v 0.900000 7.800000 0.499998
v 1.000000 6.400000 0.500000
v 1.000000 6.600000 0.499998
v 1.000000 8.000000 0.499998
v -1.200000 7.600000 0.399998
v -1.200000 7.800000 0.399998
v -1.000000 7.600000 0.399998
v -1.000000 7.800000 0.399998
v 1.000000 7.600000 0.399998
v 1.000000 7.800000 0.399998
v 1.200000 7.600000 0.399998
v 1.200000 7.800000 0.399998
v -1.100000 6.700000 0.199998
v -1.100000 6.900000 0.199998
v -1.000000 6.700000 0.199998
v -1.000000 6.900000 0.199998
v 1.000000 6.700000 0.199998
v 1.000000 6.900000 0.199998
v 1.100000 6.700000 0.199998
v 1.100000 6.900000 0.199998
v -1.100000 4.800000 0.100000
v -1.100000 5.000000 0.100000
v -1.000000 4.800000 0.100000
v -1.000000 5.000000 0.100000
v -1.200000 7.600000 -0.000002
v -1.200000 7.800000 -0.000002
v -1.000000 7.600000 -0.000002
v -1.000000 7.800000 -0.000002
v 1.000000 7.600000 -0.000002
v 1.000000 7.800000 -0.000002
v 1.200000 7.600000 -0.000002
v 1.200000 7.800000 -0.000002
v -1.100000 5.100000 -0.200000
v -1.100000 5.300000 -0.200000
v -1.100000 7.000000 -0.200002
v -1.100000 7.200000 -0.200002
v -1.000000 5.100000 -0.200000
v -1.000000 5.300000 -0.200000
v -1.000000 7.000000 -0.200002
v -1.000000 7.200000 -0.200002
v 1.000000 7.000000 -0.200002
v 1.000000 7.200000 -0.200002
v 1.100000 7.000000 -0.200002
v 1.100000 7.200000 -0.200002
v -1.200000 7.600000 -0.400002
v -1.200000 7.800000 -0.400002
v -1.000000 7.600000 -0.400002
v -1.000000 7.800000 -0.400002
v 1.000000 7.600000 -0.400002
v 1.000000 7.800000 -0.400002
v 1.200000 7.600000 -0.400002
v 1.200000 7.800000 -0.400002
v -1.200000 7.600000 -0.800002
v -1.200000 7.800000 -0.800002
v -1.100000 7.600000 -0.800002
v -1.000000 7.600000 -0.800002
v -1.000000 7.800000 -0.800002
v 1.000000 7.600000 -0.800002
v 1.000000 7.800000 -0.800002
v 1.100000 7.600000 -0.800002
v 1.200000 7.800000 -0.800002
v 1.200000 7.600000 -0.800002
v 1.000000 7.000000 -0.900002
v 1.000000 7.400000 -0.900002
v 1.100000 7.000000 -0.900002
v 1.100000 7.400000 -0.900002
v -1.200000 7.600000 -1.200002
v -1.200000 7.800000 -1.200002
v -1.000000 7.600000 -1.200002
v -1.000000 7.800000 -1.200002
v 1.000000 7.600000 -1.200002
v 1.000000 7.800000 -1.200002
v 1.200000 7.600000 -1.200002
v 1.200000 7.800000 -1.200002
v -0.800000 7.700000 -1.300002
v -0.800000 7.800000 -1.300002
v -0.800000 7.900000 -1.300002
v 0.800000 7.700000 -1.300002
v 0.800000 7.800000 -1.300002
v 0.800000 7.900000 -1.300002
v -0.900000 7.900000 -1.400002
v -0.900000 8.000000 -1.400002
v -0.150000 7.900000 -1.400002
v -0.150000 8.000000 -1.400002
v 0.450000 7.900000 -1.400002
v 0.450000 8.000000 -1.400002
v 0.650000 7.900000 -1.400002
v 0.650000 8.000000 -1.400002
v 0.900000 7.900000 -1.400002
v 0.900000 8.000000 -1.400002
v -1.000000 6.100000 1.000000
v -1.000000 6.400000 1.000000
v -0.900000 6.100000 1.000000
v -0.900000 6.300000 1.000000
v -0.800000 6.100000 1.000000
v -0.800000 6.300000 1.000000
v -0.750000 6.400000 1.000000
v -0.700000 6.100000 1.000000
v -0.700000 6.300000 1.000000
v -0.600000 6.100000 1.000000
v -0.600000 6.300000 1.000000
v -0.550000 6.400000 1.000000
v -0.500000 6.100000 1.000000
v -0.500000 6.300000 1.000000
v -0.400000 6.100000 1.000000
v -0.400000 6.300000 1.000000
v -0.350000 6.400000 1.000000
v -0.300000 6.100000 1.000000
v -0.300000 6.300000 1.000000
v -0.200000 6.100000 1.000000
v -0.200000 6.300000 1.000000
v -0.100000 6.400000 1.000000
v -0.100000 6.100000 1.000000
v 0.100000 6.100000 1.000000
v 0.100000 6.400000 1.000000
v 0.200000 6.100000 1.000000
v 0.200000 6.300000 1.000000
v 0.300000 6.100000 1.000000
v 0.300000 6.300000 1.000000
v 0.350000 6.400000 1.000000
v 0.400000 6.100000 1.000000
v 0.400000 6.300000 1.000000
v 0.500000 6.100000 1.000000
v 0.500000 6.300000 1.000000
v 0.550000 6.400000 1.000000
v 0.600000 6.100000 1.000000
v 0.600000 6.300000 1.000000
v 0.700000 6.100000 1.000000
v 0.700000 6.300000 1.000000
v 0.750000 6.400000 1.000000
v 0.800000 6.100000 1.000000
v 0.800000 6.300000 1.000000
v 0.900000 6.100000 1.000000
v 0.900000 6.300000 1.000000
v 1.000000 6.400000 1.000000
v 1.000000 6.100000 1.000000
v -1.000000 4.500000 0.700000
v -1.000000 6.200000 0.700000
v -1.000000 6.400000 0.700000
v -0.900000 6.200000 0.700000
v -0.900000 6.400000 0.700000
v -0.200000 6.400000 0.700000
v -0.100000 6.400000 0.700000
v 0.100000 6.400000 0.700000
v 0.200000 6.400000 0.700000
v 0.900000 6.200000 0.700000
v 0.900000 6.400000 0.700000
v 1.000000 6.200000 0.700000
v 1.000000 6.400000 0.700000
v -0.900000 7.900000 0.399998
v -0.900000 8.000000 0.399998
v -0.550000 7.900000 0.399998
v -0.550000 8.000000 0.399998
v 0.900000 7.900000 0.399998
v 0.900000 8.000000 0.399998
v -0.800000 6.400000 0.300000
v -0.800000 7.700000 0.299998
v -0.800000 7.800000 0.299998
v -0.800000 7.900000 0.299998
v -0.300000 6.400000 0.300000
v 0.300000 6.400000 0.300000
v 0.800000 7.700000 0.299998
v 0.800000 7.800000 0.299998
v 0.800000 6.400000 0.300000
v 0.800000 7.900000 0.299998
v -1.200000 7.600000 0.199998
v -1.200000 7.800000 0.199998
v -1.000000 7.600000 0.199998
v -1.000000 7.800000 0.199998
v 1.000000 7.600000 0.199998
v 1.000000 7.800000 0.199998
v 1.200000 7.600000 0.199998
v 1.200000 7.800000 0.199998
v -1.100000 7.000000 0.099998
v -1.100000 7.400000 0.099998
v -1.000000 7.000000 0.099998
v -1.000000 7.400000 0.099998
v -1.100000 6.700000 -0.100001
v -1.100000 6.900000 -0.100001
v -1.000000 6.700000 -0.100001
v -1.000000 6.900000 -0.100001
v 1.000000 6.700000 -0.100001
v 1.000000 6.900000 -0.100001
v 1.100000 6.700000 -0.100001
v 1.100000 6.900000 -0.100001
v -1.200000 7.600000 -0.200002
v -1.200000 7.800000 -0.200002
v -1.100000 4.800000 -0.200000
v -1.100000 5.000000 -0.200000
v -1.000000 4.800000 -0.200000
v -1.000000 5.000000 -0.200000
v -1.000000 7.600000 -0.200002
v -1.000000 7.800000 -0.200002
v 1.000000 7.600000 -0.200002
v 1.000000 7.800000 -0.200002
v 1.200000 7.600000 -0.200002
v 1.200000 7.800000 -0.200002
v -1.100000 7.000000 -0.500002
v -1.100000 7.200000 -0.500002
v -1.000000 7.000000 -0.500002
v -1.000000 7.200000 -0.500002
v 1.000000 7.000000 -0.500002
v 1.000000 7.200000 -0.500002
v 1.100000 7.000000 -0.500002
v 1.100000 7.200000 -0.500002
v -1.200000 7.600000 -0.600002
v -1.200000 7.800000 -0.600002
v -1.100000 5.100000 -0.600000
v -1.100000 5.300000 -0.600000
v -1.000000 7.600000 -0.600002
v -1.000000 5.100000 -0.600000
v -1.000000 5.300000 -0.600000
v -1.000000 7.800000 -0.600002
v 1.000000 7.600000 -0.600002
v 1.000000 7.800000 -0.600002
v 1.200000 7.600000 -0.600002
v 1.200000 7.800000 -0.600002
v -1.200000 7.600000 -1.000002
v -1.200000 7.800000 -1.000002
v -1.000000 7.600000 -1.000002
v -1.000000 7.800000 -1.000002
v 1.000000 7.600000 -1.000002
v 1.000000 7.800000 -1.000002
v 1.200000 7.600000 -1.000002
v 1.200000 7.800000 -1.000002
v -1.200000 7.600000 -1.400002
v -1.200000 7.800000 -1.400002
v -1.000000 7.600000 -1.400002
v -1.000000 7.800000 -1.400002
v 1.000000 7.000000 -1.400000
v 1.000000 7.400000 -1.400002
v 1.000000 7.600000 -1.400002
v 1.000000 7.800000 -1.400002
v 1.100000 7.000000 -1.400000
v 1.100000 7.400000 -1.400002
v 1.200000 7.600000 -1.400002
v 1.200000 7.800000 -1.400002
v -1.000000 6.950000 -1.500000
v -1.000000 8.000000 -1.500002
v -0.800000 5.600000 -1.500000
v -0.800000 6.000000 -1.500000
v -0.900000 6.950000 -1.500000
v -0.900000 7.500000 -1.500002
v -0.900000 7.600000 -1.500002
v -0.900000 7.800000 -1.500002
v -0.700000 7.600000 -1.500002
v -0.700000 7.800000 -1.500002
v -0.500000 7.500000 -1.500002
v -0.500000 7.600000 -1.500002
v -0.500000 7.800000 -1.500002
v -0.300000 6.000000 -1.500000
v -0.200000 6.100000 -1.500000
v -0.300000 7.600000 -1.500002
v -0.300000 7.800000 -1.500002
v -0.100000 5.600000 -1.500000
v -0.200000 6.300000 -1.500000
v -0.100000 7.000000 -1.500000
v -0.100000 7.200000 -1.500002
v -0.150000 7.425000 -1.500002
v -0.100000 7.800000 -1.500002
v -0.150000 8.000000 -1.500002
v -0.100000 6.000000 -1.500000
v -0.100000 7.600000 -1.500002
v 0.100000 6.500000 -1.500000
v 0.100000 6.900000 -1.500000
v 0.100000 7.600000 -1.500002
v 0.100000 6.100000 -1.500000
v 0.100000 6.300000 -1.500000
v 0.100000 7.500000 -1.500002
v 0.100000 7.800000 -1.500002
v 0.200000 6.900000 -1.500000
v 0.200000 7.000000 -1.500000
v 0.200000 7.200000 -1.500002
v 0.350000 7.425000 -1.500002
v 0.300000 7.600000 -1.500002
v 0.300000 7.800000 -1.500002
v 0.500000 7.800000 -1.500002
v 0.400000 8.000000 -1.500002
v 0.500000 6.900000 -1.500000
v 0.600000 7.400000 -1.500002
v 0.500000 7.600000 -1.500002
v 0.575000 8.000000 -1.500002
v 0.600000 7.000000 -1.500000
v 0.700000 7.800000 -1.500002
v 0.800000 6.500000 -1.500000
v 0.700000 7.600000 -1.500002
v 0.850000 5.650000 -1.500000
v 0.800000 6.900000 -1.500000
v 0.900000 7.600000 -1.500002
v 0.900000 5.800000 -1.500000
v 1.000000 7.400000 -1.500002
v 0.900000 7.800000 -1.500002
v 1.000000 5.750000 -1.500000
v 1.000000 7.000000 -1.500000
v 1.000000 8.000000 -1.500002
v -0.800000 5.600000 -1.600001
v -0.800000 6.000000 -1.600001
v -0.200000 6.100000 -1.600001
v -0.200000 6.300000 -1.600001
v -0.100000 5.600000 -1.600001
v -0.100000 6.000000 -1.600001
v -0.100000 7.000000 -1.600001
v -0.100000 7.200000 -1.600002
v 0.100000 6.100000 -1.600001
v 0.100000 6.300000 -1.600001
v 0.100000 6.500000 -1.600001
v 0.100000 6.900000 -1.600001
v 0.200000 7.000000 -1.600001
v 0.200000 7.200000 -1.600002
v 0.600000 7.000000 -1.600001
v 0.600000 7.400000 -1.600002
v 0.800000 6.500000 -1.600001
v 0.800000 6.900000 -1.600001
v 1.000000 7.000000 -1.600001
v 1.000000 7.400000 -1.600002
v -0.900000 7.600000 -1.700002
v -0.900000 7.800000 -1.700002
v -0.700000 7.600000 -1.700002
v -0.700000 7.800000 -1.700002
v -0.500000 7.600000 -1.700002
v -0.500000 7.800000 -1.700002
v -0.300000 7.600000 -1.700002
v -0.300000 7.800000 -1.700002
v -0.100000 7.600000 -1.700002
v -0.100000 7.800000 -1.700002
v 0.100000 7.600000 -1.700002
v 0.100000 7.800000 -1.700002
v 0.300000 7.600000 -1.700002
v 0.300000 7.800000 -1.700002
v 0.500000 7.600000 -1.700002
v 0.500000 7.800000 -1.700002
v 0.700000 7.600000 -1.700002
v 0.700000 7.800000 -1.700002
v 0.900000 7.600000 -1.700002
v 0.900000 7.800000 -1.700002
v -1.100000 4.800000 0.100000
v -1.000000 4.800000 0.100000
v -1.000000 4.800000 -0.200000
v -1.100000 4.800000 -0.200000
v -1.100000 5.100000 -0.200000
v -1.000000 5.100000 -0.200000
v -1.000000 5.100000 -0.600000
v -1.100000 5.100000 -0.600000
v -0.800000 5.600000 -1.500000
v -0.100000 5.600000 -1.500000
v -0.800000 5.600000 -1.600001
v -0.100000 5.600000 -1.600001
v -1.000000 6.100000 1.100000
v -0.900000 6.100000 1.100000
v -0.800000 6.100000 1.100000
v -0.700000 6.100000 1.100000
v -0.600000 6.100000 1.100000
v -0.500000 6.100000 1.100000
v -0.400000 6.100000 1.100000
v -0.300000 6.100000 1.100000
v -0.200000 6.100000 1.100000
v -0.100000 6.100000 1.100000
v 0.100000 6.100000 1.100000
v 0.200000 6.100000 1.100000
v 0.300000 6.100000 1.100000
v 0.400000 6.100000 1.100000
v 0.500000 6.100000 1.100000
v 0.600000 6.100000 1.100000
v 0.700000 6.100000 1.100000
v 0.800000 6.100000 1.100000
v 0.900000 6.100000 1.100000
v 1.000000 6.100000 1.100000
v -1.000000 6.100000 1.000000
v -0.900000 6.100000 1.000000
v -0.800000 6.100000 1.000000
v -0.700000 6.100000 1.000000
v -0.600000 6.100000 1.000000
v -0.500000 6.100000 1.000000
v -0.400000 6.100000 1.000000
v -0.300000 6.100000 1.000000
v -0.200000 6.100000 1.000000
v -0.100000 6.100000 1.000000
v 0.100000 6.100000 1.000000
v 0.200000 6.100000 1.000000
v 0.300000 6.100000 1.000000
v 0.400000 6.100000 1.000000
v 0.500000 6.100000 1.000000
v 0.600000 6.100000 1.000000
v 0.700000 6.100000 1.000000
v 0.800000 6.100000 1.000000
v 0.900000 6.100000 1.000000
v 1.000000 6.100000 1.000000
v -0.200000 6.100000 -1.500000
v 0.100000 6.100000 -1.500000
v -0.200000 6.100000 -1.600001
v 0.100000 6.100000 -1.600001
v -0.900000 6.300000 1.100000
v -0.800000 6.300000 1.100000
v -0.700000 6.300000 1.100000
v -0.600000 6.300000 1.100000
v -0.500000 6.300000 1.100000
v -0.400000 6.300000 1.100000
v -0.300000 6.300000 1.100000
v -0.200000 6.300000 1.100000
v 0.200000 6.300000 1.100000
v 0.300000 6.300000 1.100000
v 0.400000 6.300000 1.100000
v 0.500000 6.300000 1.100000
v 0.600000 6.300000 1.100000
v 0.700000 6.300000 1.100000
v 0.800000 6.300000 1.100000
v 0.900000 6.300000 1.100000
v -0.900000 6.300000 1.000000
v -0.800000 6.300000 1.000000
v -0.700000 6.300000 1.000000
v -0.600000 6.300000 1.000000
v -0.500000 6.300000 1.000000
v -0.400000 6.300000 1.000000
v -0.300000 6.300000 1.000000
v -0.200000 6.300000 1.000000
v 0.200000 6.300000 1.000000
v 0.300000 6.300000 1.000000
v 0.400000 6.300000 1.000000
v 0.500000 6.300000 1.000000
v 0.600000 6.300000 1.000000
v 0.700000 6.300000 1.000000
v 0.800000 6.300000 1.000000
v 0.900000 6.300000 1.000000
v -1.000000 6.400001 1.000000
v -0.650000 6.400000 1.000000
v -0.450000 6.400000 1.000000
v -0.300000 6.400000 1.000000
v -0.100000 6.400001 1.000000
v 0.100000 6.400001 1.000000
v 0.350000 6.400000 1.000000
v 0.500000 6.400000 1.000000
v 0.650000 6.400000 1.000000
v 1.000000 6.400001 1.000000
v -1.000000 6.400000 0.800000
v -0.900000 6.400000 0.800000
v -0.200000 6.400000 0.800000
v -0.100000 6.400000 0.800000
v 0.100000 6.400000 0.800000
v 0.200000 6.400000 0.800000
v 0.900000 6.400000 0.800000
v 1.000000 6.400000 0.800000
v -1.000000 6.400001 0.700000
v -0.900000 6.400001 0.700000
v -0.200000 6.400001 0.700000
v -0.100000 6.400001 0.700000
v 0.100000 6.400001 0.700000
v 0.200000 6.400001 0.700000
v 0.900000 6.400001 0.700000
v 1.000000 6.400001 0.700000
v -1.000000 6.400000 0.500000
v -0.800000 6.400001 0.500000
v -0.300000 6.400000 0.500000
v -0.100000 6.400001 0.500000
v 0.100000 6.400000 0.500000
v 0.300000 6.400001 0.500000
v 0.800000 6.400001 0.500000
v 1.000000 6.400000 0.500000
v -0.800000 6.400001 0.300000
v -0.300000 6.400001 0.300000
v 0.300000 6.400001 0.300000
v 0.800000 6.400001 0.300000
v 0.100000 6.500000 -1.500000
v 0.800000 6.500000 -1.500000
v 0.100000 6.500000 -1.600001
v 0.800000 6.500000 -1.600001
v -1.100000 6.700000 0.199998
v -1.000000 6.700000 0.199998
v 1.000000 6.700000 0.199998
v 1.100000 6.700000 0.199998
v -1.000000 6.700000 -0.100001
v -1.100000 6.700000 -0.100001
v 1.000000 6.700000 -0.100001
v 1.100000 6.700000 -0.100001
v -0.500000 6.800000 0.599998
v -0.100000 6.800000 0.599998
v -0.500000 6.800000 0.499998
v -0.100000 6.800000 0.499998
v -1.100000 7.000000 0.599998
v -0.600000 7.000000 0.599998
v -1.000000 7.000000 0.499998
v -0.600000 7.000000 0.499998
v -1.100000 7.000000 0.099998
v -1.000000 7.000000 0.099998
v -1.100000 7.000000 -0.200002
v -1.000000 7.000000 -0.200002
v 1.000000 7.000000 -0.200002
v 1.100000 7.000000 -0.200002
v -1.100000 7.000000 -0.500002
v -1.000000 7.000000 -0.500002
v 1.000000 7.000000 -0.500002
v 1.100000 7.000000 -0.500002
v 1.000000 7.000000 -0.900002
v 1.100000 7.000000 -0.900002
v 1.000000 7.000000 -1.400000
v 1.100000 7.000000 -1.400000
v -0.100000 7.000000 -1.500000
v 0.200000 7.000000 -1.500000
v 0.600000 7.000000 -1.500000
v 1.000000 7.000000 -1.500000
v -0.100000 7.000000 -1.600001
v 0.200000 7.000000 -1.600001
v 0.600000 7.000000 -1.600001
v 1.000000 7.000000 -1.600001
v 0.000000 7.100000 0.599998
v 0.300000 7.100000 0.599998
v 0.000000 7.100000 0.499998
v 0.300000 7.100000 0.499998
v -0.900000 7.600000 0.699998
v -0.700000 7.600000 0.699998
v -0.500000 7.600000 0.699998
v -0.300000 7.600000 0.699998
v -0.100000 7.600000 0.699998
v 0.100000 7.600000 0.699998
v 0.300000 7.600000 0.699998
v 0.500000 7.600000 0.699998
v 0.700000 7.600000 0.699998
v 0.900000 7.600000 0.699998
v -0.700000 7.600000 0.499998
v -0.900000 7.600000 0.499998
v -0.500000 7.600000 0.499998
v -0.300000 7.600000 0.499998
v -0.100000 7.600000 0.499998
v 0.100000 7.600000 0.499998
v 0.300000 7.600000 0.499998
v 0.500000 7.600000 0.499998
v 0.700000 7.600000 0.499998
v 0.900000 7.600000 0.499998
v -1.200000 7.600000 0.399998
v -1.000000 7.600000 0.399998
v 1.000000 7.600000 0.399998
v 1.200000 7.600000 0.399998
v -1.000000 7.600000 0.199998
v -1.200000 7.600000 0.199998
v 1.000000 7.600000 0.199998
v 1.200000 7.600000 0.199998
v -1.200000 7.600000 -0.000002
v -1.000000 7.600000 -0.000002
v 1.000000 7.600000 -0.000002
v 1.200000 7.600000 -0.000002
v -1.200000 7.600000 -0.200002
v -1.000000 7.600000 -0.200002
v 1.000000 7.600000 -0.200002
v 1.200000 7.600000 -0.200002
v -1.200000 7.600000 -0.400002
v -1.000000 7.600000 -0.400002
v 1.000000 7.600000 -0.400002
v 1.200000 7.600000 -0.400002
v -1.200000 7.600000 -0.600002
v -1.000000 7.600000 -0.600002
v 1.000000 7.600000 -0.600002
v 1.200000 7.600000 -0.600002
v -1.200000 7.600000 -0.800002
v -1.000000 7.600000 -0.800002
v 1.000000 7.600000 -0.800002
v 1.200000 7.600000 -0.800002
v -1.000000 7.600000 -1.000002
v -1.200000 7.600000 -1.000002
v 1.000000 7.600000 -1.000002
v 1.200000 7.600000 -1.000002
v -1.200000 7.600000 -1.200002
v -1.000000 7.600000 -1.200002
v 1.000000 7.600000 -1.200002
v 1.200000 7.600000 -1.200002
v -1.000000 7.600000 -1.400002
v -1.200000 7.600000 -1.400002
v 1.000000 7.600000 -1.400002
v 1.200000 7.600000 -1.400002
v -0.900000 7.600000 -1.500002
v -0.700000 7.600000 -1.500002
v -0.500000 7.600000 -1.500002
v -0.300000 7.600000 -1.500002
v -0.100000 7.600000 -1.500002
v 0.100000 7.600000 -1.500002
v 0.300000 7.600000 -1.500002
v 0.500000 7.600000 -1.500002
v 0.700000 7.600000 -1.500002
v 0.900000 7.600000 -1.500002
v 0.100000 7.600000 -1.700002
v 0.900000 7.600000 -1.700002
v -0.900000 7.600000 -1.700002
v -0.700000 7.600000 -1.700002
v -0.500000 7.600000 -1.700002
v -0.300000 7.600000 -1.700002
v -0.100000 7.600000 -1.700002
v 0.300000 7.600000 -1.700002
v 0.500000 7.600000 -1.700002
v 0.700000 7.600000 -1.700002
v -0.800000 7.700000 0.299998
v 0.800000 7.700000 0.299998
v -0.800000 7.700000 -1.300002
v 0.800000 7.700000 -1.300002
v -1.000000 4.500000 0.900000
v -1.000000 4.500000 0.800000
v -1.000000 4.500000 0.700000
v -1.000000 4.600000 0.600000
v -0.900000 4.600000 0.600000
v -1.000000 4.600000 0.500000
v -0.900000 4.600000 0.500000
v -1.100000 5.000000 0.100000
v -1.000000 5.000000 0.100000
v -1.000000 5.000000 -0.200000
v -1.100000 5.000000 -0.200000
v -1.100000 5.300000 -0.200000
v -1.000000 5.300000 -0.200000
v -1.100000 5.300000 -0.600000
v -1.000000 5.300000 -0.600000
v -0.800000 6.000000 -1.500000
v -0.300000 6.000000 -1.500000
v -0.100000 6.000000 -1.500000
v -0.800000 6.000000 -1.600001
v -0.100000 6.000000 -1.600001
v -0.200000 6.300000 -1.500000
v 0.100000 6.300000 -1.500000
v -0.200000 6.300000 -1.600001
v 0.100000 6.300000 -1.600001
v -1.000000 6.500000 1.100000
v -0.100000 6.500000 1.100000
v 0.100000 6.500000 1.100000
v 1.000000 6.500000 1.100000
v -1.000000 6.500000 0.600000
v -0.100000 6.500000 0.600000
v 0.100000 6.500000 0.600000
v 1.000000 6.500000 0.600000
v -1.000000 6.600000 0.600000
v -0.100000 6.600000 0.600000
v 0.100000 6.600000 0.600000
v 1.000000 6.600000 0.600000
v -1.000000 6.600000 0.499998
v -0.100000 6.600000 0.499998
v 0.100000 6.600000 0.499998
v 1.000000 6.600000 0.499998
v -1.100000 6.900000 0.199998
v -1.000000 6.900001 0.199998
v 1.000000 6.900000 0.199998
v 1.100000 6.900000 0.199998
v -1.100000 6.900000 -0.100001
v -1.000000 6.900000 -0.100001
v 1.000000 6.900000 -0.100001
v 1.100000 6.900000 -0.100001
v 0.100000 6.900001 -1.500000
v 0.500000 6.900000 -1.500000
v 0.800000 6.900000 -1.500000
v 0.100000 6.900000 -1.600001
v 0.800000 6.900000 -1.600001
v -0.500000 7.000000 0.599998
v -0.100000 7.000000 0.599998
v -0.500000 7.000000 0.499998
v -0.100000 7.000000 0.499998
v -1.100000 7.200000 -0.200002
v -1.000000 7.200000 -0.200002
v 1.000000 7.200000 -0.200002
v 1.100000 7.200000 -0.200002
v -1.100000 7.200000 -0.500002
v -1.000000 7.200000 -0.500002
v 1.000000 7.200000 -0.500002
v 1.100000 7.200000 -0.500002
v -0.100000 7.200000 -1.500002
v 0.200000 7.200000 -1.500002
v -0.100000 7.200000 -1.600002
v 0.200000 7.200000 -1.600002
v 0.000000 7.300000 0.599998
v 0.300000 7.300000 0.599998
v 0.000000 7.300000 0.499998
v 0.300000 7.300000 0.499998
v -1.100000 7.400000 0.599998
v -0.600000 7.400000 0.599998
v -1.000000 7.400000 0.499998
v -0.600000 7.400000 0.499998
v -1.100000 7.400000 0.099998
v -1.000000 7.400000 0.099998
v 1.000000 7.400001 -0.900002
v 1.100000 7.400000 -0.900002
v 1.000000 7.400000 -1.400002
v 1.100000 7.400000 -1.400002
v 0.600000 7.400000 -1.500002
v 1.000000 7.400000 -1.500002
v 0.600000 7.400000 -1.600002
v 1.000000 7.400000 -1.600002
v -0.900000 7.800000 0.699998
v -0.700000 7.800000 0.699998
v -0.500000 7.800000 0.699998
v -0.300000 7.800000 0.699998
v -0.100000 7.800000 0.699998
v 0.100000 7.800000 0.699998
v 0.300000 7.800000 0.699998
v 0.500000 7.800000 0.699998
v 0.700000 7.800000 0.699998
v 0.900000 7.800000 0.699998
v -0.900000 7.800000 0.499998
v -0.700000 7.800000 0.499998
v -0.500000 7.800000 0.499998
v -0.300000 7.800000 0.499998
v -0.100000 7.800000 0.499998
v 0.100000 7.800000 0.499998
v 0.300000 7.800000 0.499998
v 0.500000 7.800000 0.499998
v 0.700000 7.800000 0.499998
v 0.900000 7.800000 0.499998
v -1.200000 7.800000 0.399998
v -1.000000 7.800000 0.399998
v 1.000000 7.800000 0.399998
v 1.200000 7.800000 0.399998
v -0.800000 7.800000 0.299998
v 0.800000 7.800001 0.299998
v -1.200000 7.800000 0.199998
v -1.000000 7.800000 0.199998
v 1.000000 7.800000 0.199998
v 1.200000 7.800000 0.199998
v -1.200000 7.800000 -0.000002
v -1.000000 7.800001 -0.000002
v 1.000000 7.800000 -0.000002
v 1.200000 7.800000 -0.000002
v -1.200000 7.800000 -0.200002
v -1.000000 7.800000 -0.200002
v 1.000000 7.800000 -0.200002
v 1.200000 7.800000 -0.200002
v -1.200000 7.800000 -0.400002
v -1.000000 7.800000 -0.400002
v 1.000000 7.800000 -0.400002
v 1.200000 7.800000 -0.400002
v -1.200000 7.800000 -0.600002
v -1.000000 7.800000 -0.600002
v 1.000000 7.800000 -0.600002
v 1.200000 7.800000 -0.600002
v -1.200000 7.800000 -0.800002
v -1.000000 7.800000 -0.800002
v 1.000000 7.800000 -0.800002
v 1.200000 7.800000 -0.800002
v -1.200000 7.800000 -1.000002
v -1.000000 7.800000 -1.000002
v 1.000000 7.800000 -1.000002
v 1.200000 7.800000 -1.000002
v -1.200000 7.800000 -1.200002
v -1.000000 7.800000 -1.200002
v -0.800000 7.800001 -1.300002
v 0.800000 7.800001 -1.300002
v 1.000000 7.800000 -1.200002
v 1.200000 7.800000 -1.200002
v -1.200000 7.800000 -1.400002
v -1.000000 7.800000 -1.400002
v 1.000000 7.800000 -1.400002
v 1.200000 7.800000 -1.400002
v -0.900000 7.800000 -1.500002
v -0.700000 7.800000 -1.500002
v -0.500000 7.800000 -1.500002
v -0.300000 7.800000 -1.500002
v -0.100000 7.800000 -1.500002
v 0.100000 7.800000 -1.500002
v 0.300000 7.800000 -1.500002
v 0.500000 7.800001 -1.500002
v 0.700000 7.800000 -1.500002
v 0.900000 7.800000 -1.500002
v -0.900000 7.800000 -1.700002
v -0.700000 7.800000 -1.700002
v -0.500000 7.800000 -1.700002
v -0.300000 7.800000 -1.700002
v -0.100000 7.800000 -1.700002
v 0.100000 7.800000 -1.700002
v 0.300000 7.800000 -1.700002
v 0.500000 7.800000 -1.700002
v 0.700000 7.800000 -1.700002
v 0.900000 7.800000 -1.700002
v -0.900000 7.900001 0.399998
v -0.550000 7.900000 0.399998
v 0.900000 7.900000 0.399998
v -0.800000 7.900000 0.299998
v 0.800000 7.900000 0.299998
v -0.800000 7.900000 -1.300002
v 0.800000 7.900000 -1.300002
v -0.900000 7.900000 -1.400002
v -0.150000 7.900000 -1.400002
v 0.450000 7.900000 -1.400002
v 0.650000 7.900000 -1.400002
v 0.900000 7.900000 -1.400002
v -1.000000 8.000000 0.499998
v -0.550000 8.000000 0.499998
v 1.000000 8.000000 0.499998
v -0.900000 8.000000 0.399998
v -0.550000 8.000000 0.399998
v 0.900000 8.000000 0.399998
v -0.900000 8.000000 -1.400002
v -0.150000 8.000000 -1.400002
v 0.450000 8.000000 -1.400002
v 0.650000 8.000000 -1.400002
v 0.900000 8.000000 -1.400002
v -1.000000 8.000000 -1.500002
v -0.150000 8.000000 -1.500002
v 0.450000 8.000000 -1.500002
v 0.650000 8.000000 -1.500002
v 1.000000 8.000000 -1.500002
v -1.000000 4.499652 0.799652
v 0.200000 5.102958 0.800000
v 0.300000 5.155114 0.369519
v 0.300000 5.155417 0.300000
v -0.999879 4.499274 0.900000
v -0.998435 4.500000 0.900000
v -0.900000 4.551236 0.500000
v -0.234296 4.885923 0.500000
v -0.227194 4.889494 0.500000
v -0.218371 4.893930 0.500000
v -0.081018 4.962985 0.499999
v 0.172746 5.090566 0.500000
v 0.946687 5.479670 0.500000
v 0.100000 5.053119 0.700000
v -0.300000 4.853764 0.300000
v 0.300000 5.155417 0.300000
v -1.000000 4.509696 -1.500000
v -0.066525 4.979007 -1.500000
v -0.999299 4.500000 0.800701
v 0.800000 5.413785 -1.300001
v 0.900000 5.455079 0.756181
v 0.900000 5.455324 0.700000
v -0.800000 4.601829 0.427356
v -0.800000 4.601949 0.400000
v 0.100000 5.052682 0.800000
v 0.900000 5.454887 0.800000
v -0.892501 4.555006 0.500000
v -0.200000 4.903166 0.500000
v -0.087836 4.959557 0.499999
v 0.200000 5.104268 0.500000
v 0.300000 5.154544 0.500000
v -0.900000 4.550362 0.700000
v 0.169061 5.087840 0.700000
v -0.212902 4.897553 0.300000
v -0.130601 4.938931 0.300000
v -0.049371 4.979769 0.300000
v -0.924920 4.547443 -1.500000
v 0.394880 5.210981 -1.500000
v 0.639215 5.333822 -1.500000
v -0.999304 4.500000 0.800087
v -1.000000 4.500744 0.549628
v -1.000000 4.509593 -1.476263
v -1.000000 4.509696 -1.500000
v 0.100000 5.052992 0.729104
v 0.100000 5.053119 0.700000
v -0.900000 4.551236 0.500000
v -0.800000 4.601512 0.500000
v 1.000000 5.505163 0.800000
v 0.169083 5.087414 0.800000
v 0.942571 5.476291 0.800000
v -1.000000 4.500524 0.600000
v -0.826150 4.588365 0.500000
v -0.121417 4.942674 0.500000
v -0.091483 4.957724 0.499999
v 0.246307 5.127550 0.500000
v 0.800000 5.413785 -1.300001
v -0.100000 4.952568 0.700000
v 0.900000 5.455324 0.700000
v -0.431196 4.795666 -1.500000
v 0.120539 5.073055 -1.500000
v 0.066537 5.045905 -1.500000
v 0.123270 5.074428 -1.500000
v -0.999304 4.500000 0.800077
v -1.000000 4.499650 0.800050
v -1.000000 4.499213 0.900000
v -1.000000 4.500526 0.599474
v -0.300000 4.852890 0.500000
v -0.200000 4.902200 0.721168
v -0.200000 4.902292 0.700000
v 0.800000 5.406080 0.463912
v 0.800000 5.406359 0.400000
v 0.800000 5.407657 0.102871
v 0.800000 5.408197 -0.020878
v 0.800000 5.409138 -0.236160
v 0.800000 5.412722 -1.056673
v -0.900000 4.550349 0.702961
v -0.900000 4.550362 0.700000
v -0.800000 4.604562 -0.198290
v -0.800000 4.604922 -0.280761
v -0.800000 4.605549 -0.424234
v -0.800000 4.607937 -0.971058
v 1.000000 5.506834 0.417560
v 1.000000 5.506474 0.500000
v -0.999305 4.500000 0.800000
v 0.200000 5.102958 0.800000
v -0.933804 4.533804 0.600000
v -0.100000 4.953442 0.500000
v 0.024297 5.015932 0.499999
v 0.033283 5.020451 0.499999
v 0.039800 5.023727 0.499999
v 0.061040 5.034405 0.499999
v 0.068696 5.038255 0.499999
v 0.942546 5.476715 0.700000
v -0.300000 4.853185 0.432659
v -0.300000 4.853327 0.400000
v 0.800000 5.405922 0.500000
v -0.900000 4.551022 0.548978
v -0.900000 4.550799 0.600000
v -0.800000 4.609374 -1.300001
v -0.100000 4.952464 0.723814
v -0.100000 4.952568 0.700000
v 0.200000 5.103256 0.731750
v 0.200000 5.103395 0.700000
v 0.300000 5.154740 0.454987
v 0.300000 5.154981 0.400000
v 1.000000 5.514601 -1.360767
v 1.000000 5.513960 -1.214084
v -0.902852 4.548491 0.800000
v 1.000000 5.505163 0.800000
v -0.800000 4.601512 0.500000
v 0.800000 5.405922 0.500000
v 0.200000 5.103395 0.700000
v -0.128351 4.947923 -1.500000
v 0.214181 5.120133 -1.500000
v -1.000000 4.499650 0.799941
v -0.300000 4.853510 0.357922
v -0.300000 4.853764 0.300000
v 0.100000 5.052682 0.800000
v 0.900000 5.454888 0.800000
v 0.300000 5.154544 0.500000
v 1.000000 5.514799 -1.406109
v 1.000000 5.515209 -1.500000
v -0.200000 4.901855 0.800000
v 0.836929 5.424489 0.500000
v 0.842917 5.427499 0.500000
v 0.848118 5.430114 0.500000
v -0.902877 4.548916 0.700000
v -0.800000 4.610248 -1.500000
v -0.076379 4.974052 -1.500000
v -1.000000 4.500899 0.514157
v -1.000000 4.500979 0.495874
v -1.000000 4.500524 0.600000
v -0.900000 4.549926 0.800000
v -0.123183 4.940475 0.800000
v -0.075504 4.965757 0.499999
v 1.000000 5.506474 0.500000
v -0.800000 4.609374 -1.300001
v -0.200000 4.902292 0.700000
v -0.854995 4.582599 -1.500000
v 0.858242 5.443940 -1.500000
v 1.000000 5.515209 -1.500000
v -1.000000 4.502177 0.221580
v -1.000000 4.502406 0.169115
v -1.000000 4.504907 -0.403395
v -1.000000 4.505757 -0.598094
v -1.000000 4.506380 -0.740632
v -1.000000 4.507453 -0.986444
v -1.000000 4.507688 -1.040174
v -1.000000 4.507904 -1.089645
v -1.000000 4.509082 -1.359318
v -0.200000 4.901855 0.800000
v -0.900000 4.549926 0.800000
v -0.100000 4.952131 0.800000
v 1.000000 5.505342 0.759137
v 1.000000 5.505600 0.700000
v -1.000000 4.499213 0.900000
v -0.100000 4.952131 0.800000
v -0.900000 4.550799 0.600000
v -0.300000 4.852890 0.500000
v -0.078692 4.964154 0.499999
v 0.100000 5.053993 0.500000
v 0.900000 5.456198 0.500000
v -0.204533 4.908749 -1.300001
v -0.123205 4.940901 0.700000
v 1.000000 5.505600 0.700000
v -0.462354 4.780002 -1.500000
v -0.998435 4.500000 0.900000
v -0.999305 4.500000 0.800000
vn -1.0000 -0.0000 -0.0000
vn 1.0000 -0.0000 -0.0000
vn -0.0000 -0.0000 1.0000
vn 0.0007 -0.0000 1.0000
vn 0.0001 -0.0000 1.0000
vn 0.0012 -0.0000 1.0000
vn -0.0000 -0.0000 -1.0000
vn -0.0000 -1.0000 -0.0000
vn -0.0000 1.0000 -0.0000
vt 0.912109 0.500000
vt 0.939453 0.500000
vt 0.908203 0.500000
vt 0.943359 0.500000
vt 0.755859 0.500000
vt 0.759766 0.500000
vt 0.943359 0.500000
vt 0.912109 0.500000
vt 0.939453 0.500000
vt 0.751953 0.500000
vt 0.943359 0.500000
vt 0.724609 0.500000
vt 0.759766 0.500000
s 1
usemtl palette
f 11/1/1 2/1/1 1/1/1
f 12/1/1 2/1/1 11/1/1
f 13/1/1 4/1/1 3/1/1
f 14/1/1 4/1/1 13/1/1
f 15/1/1 6/1/1 5/1/1
f 16/1/1 6/1/1 15/1/1
f 17/1/1 8/1/1 7/1/1
f 18/1/1 8/1/1 17/1/1
f 19/1/1 10/1/1 9/1/1
f 20/1/1 10/1/1 19/1/1
f 23/2/1 22/2/1 21/2/1
f 24/2/1 22/2/1 23/2/1
f 27/2/1 26/2/1 25/2/1
f 28/2/1 26/2/1 27/2/1
f 31/2/1 30/2/1 29/2/1
f 32/2/1 30/2/1 31/2/1
f 37/2/1 36/2/1 35/2/1
f 38/2/1 36/2/1 37/2/1
f 39/2/1 34/2/1 33/2/1
f 40/2/1 34/2/1 39/2/1
f 1424/1/1 1538/1/1 41/1/1
f 1489/3/1 42/3/1 1464/3/1
f 47/4/1 45/4/1 42/4/1
f 53/2/1 51/2/1 50/2/1
f 53/2/1 52/2/1 51/2/1
f 54/4/1 50/4/1 49/4/1
f 54/2/1 53/2/1 50/2/1
f 56/4/1 55/4/1 54/4/1
f 59/1/1 44/1/1 41/1/1
f 60/1/1 44/1/1 59/1/1
f 61/4/1 47/4/1 42/4/1
f 61/4/1 49/4/1 47/4/1
f 61/4/1 54/4/1 49/4/1
f 61/4/1 56/4/1 54/4/1
f 62/5/1 58/5/1 57/5/1
f 63/5/1 58/5/1 62/5/1
f 64/3/1 60/3/1 59/3/1
f 65/3/1 60/3/1 64/3/1
f 62/1/1 64/1/1 63/1/1
f 62/1/1 65/1/1 64/1/1
f 66/3/1 61/3/1 65/3/1
f 66/1/1 65/1/1 62/1/1
f 67/3/1 61/3/1 66/3/1
f 68/1/1 67/1/1 66/1/1
f 67/4/1 56/4/1 61/4/1
f 69/4/1 56/4/1 67/4/1
f 70/4/1 56/4/1 69/4/1
f 71/4/1 69/4/1 67/4/1
f 72/4/1 69/4/1 71/4/1
f 73/4/1 56/4/1 70/4/1
f 74/4/1 56/4/1 73/4/1
f 75/4/1 56/4/1 74/4/1
f 77/4/1 73/4/1 72/4/1
f 77/2/1 72/2/1 71/2/1
f 78/2/1 74/2/1 73/2/1
f 79/4/1 73/4/1 77/4/1
f 79/2/1 78/2/1 73/2/1
f 80/4/1 76/4/1 75/4/1
f 80/4/1 75/4/1 74/4/1
f 81/4/1 76/4/1 80/4/1
f 81/4/1 80/4/1 79/4/1
f 83/4/1 79/4/1 77/4/1
f 83/4/1 81/4/1 79/4/1
f 84/4/1 81/4/1 83/4/1
f 85/4/1 81/4/1 84/4/1
f 85/4/1 76/4/1 81/4/1
f 86/4/1 76/4/1 85/4/1
f 82/4/1 84/4/1 83/4/1
f 87/4/1 84/4/1 82/4/1
f 88/4/1 85/4/1 84/4/1
f 89/4/1 85/4/1 88/4/1
f 90/4/1 86/4/1 85/4/1
f 91/4/1 86/4/1 90/4/1
f 92/4/1 76/4/1 86/4/1
f 93/2/1 87/2/1 82/2/1
f 94/4/1 84/4/1 87/4/1
f 94/2/1 88/2/1 84/2/1
f 95/2/1 85/2/1 89/2/1
f 95/4/1 90/4/1 85/4/1
f 96/2/1 91/2/1 90/2/1
f 96/4/1 90/4/1 95/4/1
f 97/2/1 92/2/1 86/2/1
f 97/4/1 86/4/1 91/4/1
f 98/4/1 97/4/1 91/4/1
f 99/4/1 93/4/1 82/4/1
f 100/4/1 94/4/1 87/4/1
f 101/4/1 94/4/1 100/4/1
f 102/4/1 89/4/1 88/4/1
f 103/4/1 89/4/1 102/4/1
f 104/4/1 96/4/1 95/4/1
f 105/4/1 96/4/1 104/4/1
f 106/4/1 98/4/1 91/4/1
f 107/4/1 76/4/1 92/4/1
f 108/4/1 100/4/1 99/4/1
f 108/4/1 101/4/1 100/4/1
f 108/2/1 102/2/1 101/2/1
f 108/4/1 103/4/1 102/4/1
f 108/4/1 105/4/1 104/4/1
f 108/4/1 106/4/1 105/4/1
f 108/4/1 104/4/1 103/4/1
f 109/4/1 106/4/1 108/4/1
f 109/4/1 108/4/1 99/4/1
f 109/4/1 98/4/1 106/4/1
f 109/4/1 99/4/1 82/4/1
f 110/4/1 107/4/1 98/4/1
f 110/4/1 98/4/1 109/4/1
f 110/4/1 76/4/1 107/4/1
f 115/1/1 112/1/1 111/1/1
f 116/1/1 112/1/1 115/1/1
f 117/1/1 114/1/1 113/1/1
f 118/1/1 114/1/1 117/1/1
f 121/2/1 120/2/1 119/2/1
f 122/2/1 120/2/1 121/2/1
f 125/5/1 124/5/1 123/5/1
f 126/5/1 124/5/1 125/5/1
f 129/5/1 128/5/1 127/5/1
f 130/5/1 128/5/1 129/5/1
f 133/2/1 132/2/1 131/2/1
f 134/2/1 133/2/1 131/2/1
f 140/1/1 139/1/1 136/1/1
f 140/1/1 136/1/1 135/1/1
f 141/1/1 138/1/1 137/1/1
f 142/1/1 138/1/1 141/1/1
f 145/5/1 144/5/1 143/5/1
f 146/5/1 144/5/1 145/5/1
f 149/5/1 148/5/1 147/5/1
f 150/5/1 148/5/1 149/5/1
f 155/5/1 152/5/1 151/5/1
f 156/5/1 152/5/1 155/5/1
f 159/2/1 154/2/1 153/2/1
f 160/2/1 154/2/1 159/2/1
f 163/2/1 162/2/1 161/2/1
f 164/2/1 162/2/1 163/2/1
f 169/1/1 166/1/1 165/1/1
f 170/1/1 166/1/1 169/1/1
f 171/1/1 168/1/1 167/1/1
f 172/1/1 168/1/1 171/1/1
f 175/2/1 174/2/1 173/2/1
f 176/2/1 174/2/1 175/2/1
f 181/5/1 178/5/1 177/5/1
f 182/5/1 178/5/1 181/5/1
f 181/1/1 180/1/1 179/1/1
f 181/1/1 179/1/1 182/1/1
f 184/3/1 183/3/1 180/3/1
f 184/1/1 180/1/1 181/1/1
f 187/1/1 183/1/1 184/1/1
f 188/1/1 183/1/1 187/1/1
f 189/2/1 186/2/1 185/2/1
f 190/2/1 186/2/1 189/2/1
f 193/5/1 192/5/1 191/5/1
f 194/5/1 192/5/1 193/5/1
f 199/1/1 196/1/1 195/1/1
f 200/1/1 196/1/1 199/1/1
f 201/1/1 198/1/1 197/1/1
f 202/1/1 198/1/1 201/1/1
f 205/5/1 204/5/1 203/5/1
f 206/5/1 204/5/1 205/5/1
f 209/2/1 208/2/1 207/2/1
f 210/2/1 208/2/1 209/2/1
f 213/5/1 212/5/1 211/5/1
f 214/5/1 212/5/1 213/5/1
f 220/1/1 216/1/1 215/1/1
f 220/1/1 219/1/1 216/1/1
f 221/1/1 218/1/1 217/1/1
f 222/1/1 218/1/1 221/1/1
f 225/5/1 224/5/1 223/5/1
f 226/5/1 224/5/1 225/5/1
f 231/2/1 230/2/1 229/2/1
f 232/2/1 230/2/1 231/2/1
f 237/5/1 234/5/1 233/5/1
f 238/5/1 234/5/1 237/5/1
f 239/3/1 236/3/1 235/3/1
f 240/3/1 236/3/1 239/3/1
f 243/4/1 242/4/1 241/4/1
f 244/4/1 242/4/1 243/4/1
f 1520/3/2 1469/3/2 245/3/2
f 1520/1/2 246/1/2 1521/1/2
f 1575/1/2 1499/1/2 249/1/2
f 247/5/2 248/5/2 251/5/2
f 251/5/2 248/5/2 252/5/2
f 249/3/2 250/3/2 253/3/2
f 253/3/2 250/3/2 254/3/2
f 255/4/2 256/4/2 257/4/2
f 257/4/2 256/4/2 258/4/2
f 1470/6/2 1446/6/2 259/6/2
f 1447/4/2 1501/4/2 260/4/2
f 259/5/2 260/5/2 261/5/2
f 261/5/2 260/5/2 262/5/2
f 1504/7/2 1522/4/2 264/4/2
f 265/2/2 266/2/2 267/2/2
f 267/2/2 266/2/2 268/2/2
f 269/5/2 270/5/2 271/5/2
f 271/5/2 270/5/2 272/5/2
f 273/1/2 274/1/2 278/1/2
f 274/1/2 277/1/2 278/1/2
f 275/1/2 276/1/2 279/1/2
f 279/1/2 276/1/2 280/1/2
f 281/2/2 282/2/2 283/2/2
f 281/2/2 283/2/2 284/2/2
f 285/5/2 286/5/2 287/5/2
f 287/5/2 286/5/2 288/5/2
f 289/5/2 290/5/2 291/5/2
f 291/5/2 290/5/2 292/5/2
f 293/1/2 294/1/2 297/1/2
f 297/1/2 294/1/2 298/1/2
f 295/1/2 296/1/2 299/1/2
f 299/1/2 296/1/2 300/1/2
f 301/2/2 302/2/2 303/2/2
f 303/2/2 302/2/2 304/2/2
f 1576/1/2 1523/1/2 307/1/2
f 305/5/2 306/5/2 309/5/2
f 309/5/2 306/5/2 310/5/2
f 307/1/2 308/1/2 309/1/2
f 310/1/2 307/1/2 309/1/2
f 308/3/2 311/3/2 312/3/2
f 309/1/2 308/1/2 312/1/2
f 312/1/2 311/1/2 313/1/2
f 313/1/2 311/1/2 314/1/2
f 315/2/2 316/2/2 317/2/2
f 317/2/2 316/2/2 318/2/2
f 319/2/2 320/2/2 321/2/2
f 321/2/2 320/2/2 322/2/2
f 324/1/2 327/1/2 328/1/2
f 323/1/2 324/1/2 328/1/2
f 325/1/2 326/1/2 329/1/2
f 329/1/2 326/1/2 330/1/2
f 331/5/2 332/5/2 333/5/2
f 333/5/2 332/5/2 334/5/2
f 1425/1/2 1525/1/2 335/1/2
f 337/2/2 338/2/2 339/2/2
f 339/2/2 338/2/2 340/2/2
f 1543/6/2 1527/6/2 341/6/2
f 1528/4/2 1426/4/2 342/4/2
f 341/5/2 342/5/2 343/5/2
f 343/5/2 342/5/2 344/5/2
f 345/2/2 346/2/2 347/2/2
f 347/2/2 346/2/2 348/2/2
f 349/5/2 350/5/2 351/5/2
f 351/5/2 350/5/2 352/5/2
f 353/1/2 354/1/2 358/1/2
f 354/1/2 357/1/2 358/1/2
f 355/1/2 356/1/2 359/1/2
f 359/1/2 356/1/2 360/1/2
f 361/5/2 362/5/2 363/5/2
f 363/5/2 362/5/2 364/5/2
f 365/5/2 366/5/2 367/5/2
f 367/5/2 366/5/2 368/5/2
f 369/2/2 370/2/2 371/2/2
f 371/2/2 370/2/2 372/2/2
f 373/1/2 374/1/2 377/1/2
f 377/1/2 374/1/2 378/1/2
f 375/1/2 376/1/2 380/1/2
f 379/1/2 375/1/2 380/1/2
f 1529/4/2 1544/4/2 381/4/2
f 1471/1/2 1577/1/2 385/1/2
f 1505/4/2 1530/4/2 387/4/2
f 381/4/2 1530/4/2 1529/4/2
f 381/4/2 382/4/2 387/4/2
f 387/4/2 382/4/2 388/4/2
f 387/4/2 1506/4/2 1505/4/2
f 383/5/2 384/5/2 390/5/2
f 390/5/2 384/5/2 391/5/2
f 385/3/2 386/3/2 392/3/2
f 392/3/2 386/3/2 393/3/2
f 391/1/2 392/1/2 390/1/2
f 392/1/2 393/1/2 390/1/2
f 393/3/2 389/3/2 394/3/2
f 390/1/2 393/1/2 394/1/2
f 389/2/2 387/2/2 395/2/2
f 394/3/2 389/3/2 395/3/2
f 388/4/2 382/4/2 396/4/2
f 387/4/2 388/4/2 396/4/2
f 394/1/2 395/1/2 397/1/2
f 387/4/2 396/4/2 398/4/2
f 395/2/2 387/2/2 399/2/2
f 387/4/2 398/4/2 400/4/2
f 399/2/2 387/2/2 400/2/2
f 398/2/2 396/2/2 401/2/2
f 401/2/2 396/2/2 402/2/2
f 402/2/2 396/2/2 403/2/2
f 400/4/2 398/4/2 404/4/2
f 399/4/2 400/4/2 404/4/2
f 396/4/2 382/4/2 403/4/2
f 403/4/2 382/4/2 405/4/2
f 405/4/2 382/4/2 406/4/2
f 406/4/2 382/4/2 407/4/2
f 404/4/2 402/4/2 408/4/2
f 402/4/2 403/4/2 408/4/2
f 403/2/2 405/2/2 408/2/2
f 406/2/2 407/2/2 409/2/2
f 409/2/2 407/2/2 410/2/2
f 404/4/2 408/4/2 412/4/2
f 409/2/2 410/2/2 414/2/2
f 410/2/2 411/2/2 414/2/2
f 414/2/2 411/2/2 415/2/2
f 412/4/2 413/4/2 416/4/2
f 404/4/2 412/4/2 416/4/2
f 413/4/2 405/4/2 417/4/2
f 416/4/2 413/4/2 417/4/2
f 405/4/2 406/4/2 417/4/2
f 417/4/2 406/4/2 418/4/2
f 415/2/2 411/2/2 419/2/2
f 404/4/2 416/4/2 420/4/2
f 399/4/2 404/4/2 420/4/2
f 420/4/2 416/4/2 421/4/2
f 416/4/2 417/4/2 422/4/2
f 422/4/2 417/4/2 423/4/2
f 417/4/2 418/4/2 424/4/2
f 418/4/2 414/4/2 425/4/2
f 414/4/2 415/4/2 425/4/2
f 425/4/2 415/4/2 426/4/2
f 420/2/2 421/2/2 427/2/2
f 399/4/2 420/4/2 427/4/2
f 421/4/2 416/4/2 428/4/2
f 416/2/2 422/2/2 428/2/2
f 417/4/2 424/4/2 429/4/2
f 423/2/2 417/2/2 429/2/2
f 418/4/2 425/4/2 430/4/2
f 424/2/2 418/2/2 430/2/2
f 425/2/2 426/2/2 431/2/2
f 430/4/2 425/4/2 431/4/2
f 421/4/2 428/4/2 432/4/2
f 430/4/2 431/4/2 433/4/2
f 399/4/2 427/4/2 434/4/2
f 435/4/2 421/4/2 432/4/2
f 422/4/2 423/4/2 436/4/2
f 436/4/2 423/4/2 437/4/2
f 429/4/2 424/4/2 438/4/2
f 438/4/2 424/4/2 439/4/2
f 430/2/2 433/2/2 440/2/2
f 426/4/2 415/4/2 441/4/2
f 433/4/2 441/4/2 442/4/2
f 439/4/2 440/4/2 442/4/2
f 436/4/2 437/4/2 442/4/2
f 440/4/2 433/4/2 442/4/2
f 437/4/2 438/4/2 442/4/2
f 434/4/2 435/4/2 442/4/2
f 432/4/2 436/4/2 442/4/2
f 399/4/2 434/4/2 442/4/2
f 435/4/2 432/4/2 442/4/2
f 438/4/2 439/4/2 442/4/2
f 441/4/2 415/4/2 443/4/2
f 442/4/2 441/4/2 443/4/2
f 444/2/2 445/2/2 446/2/2
f 446/2/2 445/2/2 447/2/2
f 448/2/2 449/2/2 452/2/2
f 452/2/2 449/2/2 453/2/2
f 450/2/2 451/2/2 454/2/2
f 454/2/2 451/2/2 455/2/2
f 456/1/2 457/1/2 466/1/2
f 466/1/2 457/1/2 467/1/2
f 458/1/2 459/1/2 468/1/2
f 468/1/2 459/1/2 469/1/2
f 460/1/2 461/1/2 470/1/2
f 470/1/2 461/1/2 471/1/2
f 462/1/2 463/1/2 472/1/2
f 472/1/2 463/1/2 473/1/2
f 464/1/2 465/1/2 474/1/2
f 474/1/2 465/1/2 475/1/2
f 478/5/3 477/5/3 476/5/3
f 479/5/3 477/5/3 478/5/3
f 481/1/3 477/1/3 479/1/3
f 482/5/3 481/5/3 480/5/3
f 483/5/3 481/5/3 482/5/3
f 483/1/3 477/1/3 481/1/3
f 485/1/3 477/1/3 483/1/3
f 486/5/3 485/5/3 484/5/3
f 487/5/3 485/5/3 486/5/3
f 487/1/3 477/1/3 485/1/3
f 489/1/3 477/1/3 487/1/3
f 490/5/3 489/5/3 488/5/3
f 491/5/3 489/5/3 490/5/3
f 491/1/3 477/1/3 489/1/3
f 493/1/3 477/1/3 491/1/3
f 494/5/3 493/5/3 492/5/3
f 495/1/3 477/1/3 493/1/3
f 495/5/3 493/5/3 494/5/3
f 498/5/3 497/5/3 496/5/3
f 499/5/3 497/5/3 498/5/3
f 501/1/3 497/1/3 499/1/3
f 502/5/3 501/5/3 500/5/3
f 503/5/3 501/5/3 502/5/3
f 503/1/3 497/1/3 501/1/3
f 505/1/3 497/1/3 503/1/3
f 506/5/3 505/5/3 504/5/3
f 507/5/3 505/5/3 506/5/3
f 507/1/3 497/1/3 505/1/3
f 509/1/3 497/1/3 507/1/3
f 510/5/3 509/5/3 508/5/3
f 511/5/3 509/5/3 510/5/3
f 511/1/3 497/1/3 509/1/3
f 513/1/3 497/1/3 511/1/3
f 514/5/3 513/5/3 512/5/3
f 515/1/3 497/1/3 513/1/3
f 515/5/3 513/5/3 514/5/3
f 1428/1/4 516/1/5 1579/1/6
f 1429/8/3 516/1/5 1428/1/4
f 1531/1/3 517/1/3 1507/1/3
f 520/3/3 519/3/3 518/3/3
f 521/3/3 519/3/3 520/3/3
f 1557/1/3 522/1/3 1546/1/3
f 1472/1/3 524/1/3 1448/1/3
f 1473/1/3 526/1/3 1449/1/3
f 528/3/3 527/3/3 526/3/3
f 529/3/3 527/3/3 528/3/3
f 532/1/3 531/1/3 530/1/3
f 533/1/3 531/1/3 532/1/3
f 536/1/3 535/1/3 534/1/3
f 537/1/3 535/1/3 536/1/3
f 540/1/3 539/1/3 538/1/3
f 541/1/3 539/1/3 540/1/3
f 544/1/3 543/1/3 542/1/3
f 545/1/3 543/1/3 544/1/3
f 548/1/3 547/1/3 546/1/3
f 549/1/3 547/1/3 548/1/3
f 1509/1/3 552/1/3 1474/1/3
f 556/2/3 551/2/3 550/2/3
f 557/2/3 551/2/3 556/2/3
f 560/1/3 554/1/3 553/1/3
f 561/1/3 554/1/3 560/1/3
f 562/2/3 559/2/3 558/2/3
f 563/2/3 559/2/3 562/2/3
f 568/2/3 565/2/3 564/2/3
f 569/2/3 565/2/3 568/2/3
f 570/1/3 567/1/3 566/1/3
f 571/1/3 567/1/3 570/1/3
f 578/4/3 573/4/3 572/4/3
f 579/4/3 573/4/3 578/4/3
f 580/2/3 573/2/3 579/2/3
f 581/4/3 577/4/3 576/4/3
f 582/4/3 577/4/3 581/4/3
f 1450/6/3 578/6/3 1430/6/3
f 1475/6/3 578/6/3 1450/6/3
f 583/5/3 580/5/3 579/5/3
f 584/4/3 581/4/3 576/4/3
f 585/4/3 577/4/3 582/4/3
f 587/4/3 585/4/3 584/4/3
f 587/4/3 584/4/3 576/4/3
f 588/4/3 577/4/3 585/4/3
f 589/4/3 575/4/3 574/4/3
f 589/2/3 587/2/3 586/2/3
f 589/2/3 586/2/3 575/2/3
f 590/2/3 587/2/3 589/2/3
f 591/4/3 585/4/3 587/4/3
f 592/4/3 585/4/3 591/4/3
f 592/2/3 588/2/3 585/2/3
f 596/2/3 593/2/3 591/2/3
f 596/4/3 591/4/3 587/4/3
f 596/4/3 587/4/3 590/4/3
f 597/4/3 588/4/3 592/4/3
f 1431/6/3 594/6/3 1582/6/3
f 1432/6/3 594/6/3 1431/6/3
f 1433/6/3 594/6/3 1432/6/3
f 598/5/3 595/5/3 594/5/3
f 599/5/3 595/5/3 598/5/3
f 600/2/3 589/2/3 574/2/3
f 601/4/3 597/4/3 593/4/3
f 601/4/3 593/4/3 596/4/3
f 601/4/3 596/4/3 590/4/3
f 1510/2/3 598/2/3 1476/2/3
f 1476/2/3 598/2/3 1451/9/3
f 602/2/3 589/2/3 600/2/3
f 603/2/3 589/2/3 602/2/3
f 604/4/3 601/4/3 590/4/3
f 605/4/3 597/4/3 601/4/3
f 606/4/3 588/4/3 597/4/3
f 606/4/3 597/4/3 605/4/3
f 602/2/3 600/2/3 599/2/3
f 604/4/3 605/4/3 601/4/3
f 604/2/3 603/2/3 602/2/3
f 607/4/3 605/4/3 604/4/3
f 608/4/3 605/4/3 607/4/3
f 1511/2/3 602/2/3 1558/2/3
f 1512/2/3 602/2/3 1511/2/3
f 1513/2/3 602/2/3 1512/2/3
f 1514/2/3 602/2/3 1513/2/3
f 1515/2/3 602/2/3 1514/2/3
f 611/2/3 602/2/3 610/2/3
f 612/4/3 605/4/3 608/4/3
f 612/2/3 609/2/3 605/2/3
f 613/4/3 588/4/3 606/4/3
f 1435/2/3 610/2/3 1584/2/3
f 615/2/3 610/2/3 614/2/3
f 616/4/3 613/4/3 609/4/3
f 616/4/3 609/4/3 612/4/3
f 616/4/3 588/4/3 613/4/3
f 1478/6/3 614/6/3 1453/6/3
f 617/5/3 615/5/3 614/5/3
f 619/4/3 616/4/3 612/4/3
f 619/4/3 612/4/3 608/4/3
f 620/4/3 616/4/3 619/4/3
f 621/4/3 616/4/3 620/4/3
f 622/4/3 616/4/3 621/4/3
f 623/4/3 604/4/3 602/4/3
f 623/4/3 607/4/3 604/4/3
f 623/2/3 618/2/3 607/2/3
f 623/2/3 619/2/3 618/2/3
f 624/4/3 620/4/3 619/4/3
f 624/4/3 619/4/3 623/4/3
f 625/2/3 621/2/3 620/2/3
f 625/4/3 620/4/3 624/4/3
f 626/4/3 616/4/3 622/4/3
f 624/4/3 626/4/3 625/4/3
f 627/4/3 626/4/3 624/4/3
f 628/4/3 616/4/3 626/4/3
f 628/4/3 626/4/3 627/4/3
f 1547/6/3 629/6/3 1534/6/3
f 1548/6/3 629/6/3 1547/6/3
f 1549/6/3 629/6/3 1548/6/3
f 632/5/3 630/5/3 629/5/3
f 633/2/3 631/2/3 627/2/3
f 633/4/3 627/4/3 624/4/3
f 634/4/3 616/4/3 628/4/3
f 1436/4/3 632/4/3 1585/4/3
f 635/2/3 630/2/3 632/2/3
f 636/2/3 602/2/3 611/2/3
f 636/4/3 624/4/3 623/4/3
f 636/4/3 631/4/3 633/4/3
f 636/4/3 633/4/3 624/4/3
f 636/4/3 634/4/3 631/4/3
f 636/4/3 623/4/3 602/4/3
f 637/4/3 588/4/3 616/4/3
f 637/4/3 634/4/3 636/4/3
f 637/4/3 616/4/3 634/4/3
f 640/1/3 639/1/3 638/1/3
f 641/1/3 639/1/3 640/1/3
f 645/1/3 643/1/3 642/1/3
f 645/1/3 642/1/3 644/1/3
f 648/2/3 647/2/3 646/2/3
f 649/2/3 647/2/3 648/2/3
f 652/2/3 651/2/3 650/2/3
f 653/2/3 651/2/3 652/2/3
f 656/2/3 655/2/3 654/2/3
f 657/2/3 655/2/3 656/2/3
f 660/1/3 659/1/3 658/1/3
f 661/1/3 659/1/3 660/1/3
f 664/1/3 663/1/3 662/1/3
f 665/1/3 663/1/3 664/1/3
f 670/2/3 667/2/3 666/2/3
f 671/2/3 667/2/3 670/2/3
f 672/2/3 669/2/3 668/2/3
f 673/2/3 669/2/3 672/2/3
f 676/2/3 675/2/3 674/2/3
f 677/2/3 675/2/3 676/2/3
f 680/1/3 679/1/3 678/1/3
f 681/1/3 679/1/3 680/1/3
f 684/1/3 683/1/3 682/1/3
f 685/1/3 683/1/3 684/1/3
f 688/1/3 687/1/3 686/1/3
f 689/1/3 687/1/3 688/1/3
f 690/1/3 687/1/3 689/1/3
f 694/1/3 692/1/3 691/1/3
f 694/3/3 691/3/3 693/3/3
f 695/1/3 694/1/3 693/1/3
f 698/2/3 697/2/3 696/2/3
f 699/2/3 697/2/3 698/2/3
f 702/1/3 701/1/3 700/1/3
f 703/1/3 701/1/3 702/1/3
f 706/1/3 705/1/3 704/1/3
f 707/1/3 705/1/3 706/1/3
f 1586/4/3 708/4/3 1560/4/3
f 712/2/3 710/2/3 709/2/3
f 713/2/3 710/2/3 712/2/3
f 716/4/3 715/4/3 714/4/3
f 717/4/3 715/4/3 716/4/3
f 718/4/3 717/4/3 716/4/3
f 719/4/3 717/4/3 718/4/3
f 720/4/3 719/4/3 718/4/3
f 721/4/3 719/4/3 720/4/3
f 722/4/3 721/4/3 720/4/3
f 723/4/3 721/4/3 722/4/3
f 724/5/7 725/5/7 726/5/7
f 726/5/7 725/5/7 727/5/7
f 727/10/7 725/10/7 729/10/7
f 729/10/7 725/10/7 730/10/7
f 728/5/7 729/5/7 731/5/7
f 729/5/7 730/5/7 731/5/7
f 731/5/7 730/5/7 732/5/7
f 732/10/7 730/10/7 734/10/7
f 734/10/7 730/10/7 735/10/7
f 733/5/7 734/5/7 736/5/7
f 734/5/7 735/5/7 736/5/7
f 736/5/7 735/5/7 737/5/7
f 737/10/7 735/10/7 739/10/7
f 739/10/7 735/10/7 740/10/7
f 738/5/7 739/5/7 741/5/7
f 739/5/7 740/5/7 741/5/7
f 741/5/7 740/5/7 742/5/7
f 742/10/7 740/10/7 744/10/7
f 744/10/7 740/10/7 745/10/7
f 743/5/7 744/5/7 746/5/7
f 744/5/7 745/5/7 746/5/7
f 747/5/7 748/5/7 749/5/7
f 749/5/7 748/5/7 750/5/7
f 750/10/7 748/10/7 752/10/7
f 752/10/7 748/10/7 753/10/7
f 751/5/7 752/5/7 754/5/7
f 752/5/7 753/5/7 754/5/7
f 754/5/7 753/5/7 755/5/7
f 755/10/7 753/10/7 757/10/7
f 757/10/7 753/10/7 758/10/7
f 756/5/7 757/5/7 759/5/7
f 757/5/7 758/5/7 759/5/7
f 759/5/7 758/5/7 760/5/7
f 760/10/7 758/10/7 762/10/7
f 762/10/7 758/10/7 763/10/7
f 761/5/7 762/5/7 764/5/7
f 762/5/7 763/5/7 764/5/7
f 764/5/7 763/5/7 765/5/7
f 765/10/7 763/10/7 767/10/7
f 767/10/7 763/10/7 768/10/7
f 766/5/7 767/5/7 769/5/7
f 767/5/7 768/5/7 769/5/7
f 770/1/7 771/1/7 1550/1/7
f 771/3/7 772/3/7 773/3/7
f 771/1/7 1455/1/7 1550/1/7
f 773/3/7 772/3/7 774/3/7
f 1561/1/7 775/1/7 1587/1/7
f 775/1/7 1480/1/7 1587/1/7
f 1437/8/7 777/1/7 1456/1/7
f 777/1/7 1535/1/7 1456/1/7
f 1481/1/7 779/1/7 1516/1/7
f 779/3/7 780/3/7 781/3/7
f 779/1/7 1588/1/7 1516/1/7
f 781/3/7 780/3/7 782/3/7
f 783/4/7 784/4/7 785/4/7
f 785/4/7 784/4/7 786/4/7
f 785/4/7 786/4/7 787/4/7
f 787/4/7 786/4/7 788/4/7
f 789/4/7 790/4/7 793/4/7
f 1438/4/7 793/4/7 1457/11/7
f 1457/11/7 793/4/7 1458/11/7
f 1458/11/7 793/4/7 1459/4/7
f 793/4/7 790/4/7 794/4/7
f 793/4/7 1439/4/7 1459/4/7
f 794/4/7 790/4/7 795/4/7
f 791/2/7 792/2/7 796/2/7
f 794/4/7 795/4/7 797/4/7
f 796/2/7 792/2/7 798/2/7
f 799/1/7 800/1/7 801/1/7
f 801/1/7 800/1/7 802/1/7
f 803/1/7 804/1/7 805/1/7
f 805/1/7 804/1/7 806/1/7
f 807/2/7 808/2/7 809/2/7
f 809/2/7 808/2/7 810/2/7
f 811/2/7 812/2/7 813/2/7
f 813/2/7 812/2/7 814/2/7
f 815/2/7 816/2/7 817/2/7
f 817/2/7 816/2/7 818/2/7
f 821/2/7 822/2/7 823/2/7
f 823/2/7 822/2/7 824/2/7
f 819/1/7 820/1/7 826/1/7
f 825/3/7 819/3/7 826/3/7
f 827/1/7 828/1/7 830/1/7
f 829/1/7 827/1/7 830/1/7
f 831/2/7 832/2/7 833/2/7
f 833/2/7 832/2/7 834/2/7
f 835/2/7 836/2/7 837/2/7
f 837/2/7 836/2/7 838/2/7
f 839/1/7 840/1/7 843/1/7
f 841/2/7 842/2/7 844/2/7
f 844/2/7 842/2/7 845/2/7
f 843/1/7 840/1/7 846/1/7
f 847/1/7 848/1/7 849/1/7
f 849/1/7 848/1/7 850/1/7
f 851/1/7 852/1/7 853/1/7
f 853/1/7 852/1/7 854/1/7
f 855/1/7 856/1/7 857/1/7
f 857/1/7 856/1/7 858/1/7
f 859/1/7 860/1/7 861/1/7
f 861/1/7 860/1/7 862/1/7
f 863/2/7 864/2/7 867/2/7
f 867/2/7 864/2/7 868/2/7
f 865/1/7 866/1/7 869/1/7
f 869/1/7 866/1/7 870/1/7
f 1440/4/7 871/4/7 1460/4/7
f 1460/4/7 873/4/7 1562/4/7
f 873/4/7 871/4/7 874/4/7
f 874/4/7 871/4/7 875/4/7
f 871/4/7 872/4/7 875/4/7
f 875/4/7 872/4/7 876/4/7
f 876/4/7 872/4/7 877/4/7
f 877/4/7 872/4/7 878/4/7
f 1562/4/7 873/4/7 1551/4/7
f 875/4/7 876/4/7 874/4/7
f 876/2/7 877/2/7 879/2/7
f 874/4/7 876/4/7 879/4/7
f 878/4/7 872/4/7 880/4/7
f 1551/4/7 873/4/7 1589/4/7
f 879/4/7 880/4/7 881/4/7
f 874/4/7 879/4/7 881/4/7
f 881/4/7 880/4/7 882/4/7
f 880/4/7 872/4/7 883/4/7
f 882/4/7 880/4/7 883/4/7
f 874/4/7 881/4/7 884/4/7
f 884/4/7 881/4/7 885/4/7
f 881/2/7 882/2/7 886/2/7
f 885/4/7 881/4/7 886/4/7
f 883/4/7 872/4/7 887/4/7
f 1536/4/7 1482/7/7 888/4/7
f 873/4/7 1482/7/7 1589/4/7
f 886/4/7 887/4/7 885/4/7
f 885/4/7 887/4/7 889/4/7
f 889/4/7 887/4/7 890/4/7
f 890/4/7 887/4/7 891/4/7
f 891/4/7 887/4/7 892/4/7
f 887/4/7 872/4/7 893/4/7
f 892/4/7 887/4/7 893/4/7
f 893/4/7 872/4/7 894/4/7
f 884/2/7 885/2/7 895/2/7
f 892/4/7 893/4/7 896/4/7
f 1536/4/7 888/4/7 1552/4/7
f 889/4/7 890/4/7 897/4/7
f 897/4/7 890/4/7 898/4/7
f 895/2/7 885/2/7 900/2/7
f 1483/4/7 1484/4/7 900/4/7
f 895/4/7 1484/4/7 1441/11/7
f 889/4/7 897/4/7 901/4/7
f 892/4/7 896/4/7 902/4/7
f 891/4/7 892/4/7 902/4/7
f 896/2/7 899/2/7 902/2/7
f 893/4/7 894/4/7 903/4/7
f 1485/4/7 901/4/7 1537/4/7
f 898/2/7 890/2/7 904/2/7
f 904/2/7 890/2/7 905/2/7
f 902/4/7 899/4/7 906/4/7
f 899/4/7 903/4/7 906/4/7
f 891/4/7 902/4/7 906/4/7
f 904/4/7 905/4/7 907/4/7
f 905/4/7 906/4/7 907/4/7
f 906/4/7 903/4/7 907/4/7
f 907/4/7 903/4/7 908/4/7
f 903/4/7 894/4/7 909/4/7
f 908/4/7 903/4/7 909/4/7
f 909/4/7 894/4/7 910/4/7
f 910/4/7 894/4/7 911/4/7
f 904/4/7 907/4/7 912/4/7
f 912/4/7 907/4/7 913/4/7
f 907/2/7 908/2/7 914/2/7
f 913/4/7 907/4/7 914/4/7
f 910/2/7 911/2/7 915/2/7
f 912/2/7 913/2/7 916/2/7
f 910/4/7 915/4/7 913/4/7
f 914/4/7 910/4/7 913/4/7
f 913/4/7 915/4/7 917/4/7
f 901/4/7 1461/4/7 1537/4/7
f 901/4/7 897/4/7 918/4/7
f 913/4/7 917/4/7 919/4/7
f 1461/4/7 920/4/7 1462/4/7
f 912/2/7 916/2/7 921/2/7
f 918/4/7 921/4/7 920/4/7
f 920/4/7 921/4/7 923/4/7
f 913/4/7 919/4/7 924/4/7
f 919/2/7 922/2/7 924/2/7
f 917/4/7 915/4/7 925/4/7
f 1462/4/7 920/4/7 1563/4/7
f 920/2/7 923/2/7 926/2/7
f 920/4/7 1564/4/7 1563/4/7
f 923/4/7 921/4/7 926/4/7
f 921/2/7 916/2/7 927/2/7
f 926/4/7 921/4/7 927/4/7
f 922/4/7 925/4/7 924/4/7
f 925/4/7 915/4/7 928/4/7
f 924/4/7 925/4/7 928/4/7
f 929/2/7 930/2/7 933/2/7
f 933/2/7 930/2/7 934/2/7
f 931/2/7 932/2/7 937/2/7
f 937/2/7 932/2/7 938/2/7
f 935/2/7 936/2/7 941/2/7
f 941/2/7 936/2/7 942/2/7
f 939/2/7 940/2/7 945/2/7
f 945/2/7 940/2/7 946/2/7
f 943/2/7 944/2/7 947/2/7
f 947/2/7 944/2/7 948/2/7
f 949/1/7 950/1/7 951/1/7
f 951/1/7 950/1/7 952/1/7
f 953/1/7 954/1/7 955/1/7
f 955/1/7 954/1/7 956/1/7
f 957/1/7 958/1/7 959/1/7
f 959/1/7 958/1/7 960/1/7
f 961/1/7 962/1/7 963/1/7
f 963/1/7 962/1/7 964/1/7
f 965/1/7 966/1/7 967/1/7
f 967/1/7 966/1/7 968/1/7
f 971/2/8 970/2/8 969/2/8
f 972/2/8 971/2/8 969/2/8
f 975/2/8 974/2/8 973/2/8
f 976/2/8 975/2/8 973/2/8
f 979/2/8 978/2/8 977/2/8
f 980/2/8 978/2/8 979/2/8
f 1001/12/8 982/12/8 981/12/8
f 1002/12/8 982/12/8 1001/12/8
f 1003/12/8 984/12/8 983/12/8
f 1004/12/8 984/12/8 1003/12/8
f 1005/12/8 986/12/8 985/12/8
f 1006/12/8 986/12/8 1005/12/8
f 1007/12/8 988/12/8 987/12/8
f 1008/12/8 988/12/8 1007/12/8
f 1009/12/8 990/12/8 989/12/8
f 1010/12/8 990/12/8 1009/12/8
f 1011/12/8 992/12/8 991/12/8
f 1012/12/8 992/12/8 1011/12/8
f 1013/12/8 994/12/8 993/12/8
f 1014/12/8 994/12/8 1013/12/8
f 1015/12/8 996/12/8 995/12/8
f 1016/12/8 996/12/8 1015/12/8
f 1017/12/8 998/12/8 997/12/8
f 1018/12/8 998/12/8 1017/12/8
f 1019/12/8 1000/12/8 999/12/8
f 1020/12/8 1000/12/8 1019/12/8
f 1023/2/8 1022/2/8 1021/2/8
f 1024/2/8 1022/2/8 1023/2/8
f 1041/10/8 1026/10/8 1025/10/8
f 1042/10/8 1026/10/8 1041/10/8
f 1043/10/8 1028/10/8 1027/10/8
f 1044/10/8 1028/10/8 1043/10/8
f 1045/10/8 1030/10/8 1029/10/8
f 1046/10/8 1030/10/8 1045/10/8
f 1047/10/8 1032/10/8 1031/10/8
f 1048/10/8 1032/10/8 1047/10/8
f 1049/10/8 1034/10/8 1033/10/8
f 1050/10/8 1034/10/8 1049/10/8
f 1051/10/8 1036/10/8 1035/10/8
f 1052/10/8 1036/10/8 1051/10/8
f 1053/10/8 1038/10/8 1037/10/8
f 1054/10/8 1038/10/8 1053/10/8
f 1055/10/8 1040/10/8 1039/10/8
f 1056/10/8 1040/10/8 1055/10/8
f 1067/1/8 1058/1/8 1057/1/8
f 1067/1/8 1059/1/8 1058/1/8
f 1067/1/8 1060/1/8 1059/1/8
f 1067/1/8 1061/1/8 1060/1/8
f 1068/1/8 1061/1/8 1067/1/8
f 1069/1/8 1061/1/8 1068/1/8
f 1070/1/8 1061/1/8 1069/1/8
f 1071/1/8 1066/1/8 1065/1/8
f 1071/1/8 1065/1/8 1064/1/8
f 1071/1/8 1063/1/8 1062/1/8
f 1071/1/8 1064/1/8 1063/1/8
f 1072/1/8 1066/1/8 1071/1/8
f 1073/1/8 1066/1/8 1072/1/8
f 1074/1/8 1066/1/8 1073/1/8
f 1076/1/8 1069/1/8 1068/1/8
f 1077/1/8 1069/1/8 1076/1/8
f 1080/1/8 1073/1/8 1072/1/8
f 1081/1/8 1073/1/8 1080/1/8
f 1083/3/8 1076/3/8 1075/3/8
f 1083/3/8 1078/3/8 1077/3/8
f 1083/3/8 1077/3/8 1076/3/8
f 1084/3/8 1078/3/8 1083/3/8
f 1085/3/8 1078/3/8 1084/3/8
f 1086/3/8 1078/3/8 1085/3/8
f 1087/3/8 1080/3/8 1079/3/8
f 1087/3/8 1082/3/8 1081/3/8
f 1087/3/8 1081/3/8 1080/3/8
f 1088/3/8 1082/3/8 1087/3/8
f 1089/3/8 1082/3/8 1088/3/8
f 1090/3/8 1082/3/8 1089/3/8
f 1091/4/8 1085/4/8 1084/4/8
f 1092/4/8 1085/4/8 1091/4/8
f 1093/4/8 1089/4/8 1088/4/8
f 1094/4/8 1089/4/8 1093/4/8
f 1097/2/8 1096/2/8 1095/2/8
f 1098/2/8 1096/2/8 1097/2/8
f 1103/2/8 1100/2/8 1099/2/8
f 1104/2/8 1103/2/8 1099/2/8
f 1105/2/8 1102/2/8 1101/2/8
f 1106/2/8 1102/2/8 1105/2/8
f 1109/2/8 1108/2/8 1107/2/8
f 1110/2/8 1108/2/8 1109/2/8
f 1113/2/8 1112/2/8 1111/2/8
f 1114/2/8 1112/2/8 1113/2/8
f 1115/2/8 1113/2/8 1111/2/8
f 1116/2/8 1113/2/8 1115/2/8
f 1121/2/8 1118/2/8 1117/2/8
f 1122/2/8 1118/2/8 1121/2/8
f 1123/2/8 1120/2/8 1119/2/8
f 1124/2/8 1120/2/8 1123/2/8
f 1127/2/8 1126/2/8 1125/2/8
f 1128/2/8 1126/2/8 1127/2/8
f 1133/2/8 1130/2/8 1129/2/8
f 1134/2/8 1130/2/8 1133/2/8
f 1135/2/8 1132/2/8 1131/2/8
f 1136/2/8 1132/2/8 1135/2/8
f 1139/2/8 1138/2/8 1137/2/8
f 1140/2/8 1138/2/8 1139/2/8
f 1151/1/8 1142/1/8 1141/1/8
f 1152/3/8 1151/3/8 1141/3/8
f 1154/1/8 1144/1/8 1143/1/8
f 1154/3/8 1143/3/8 1153/3/8
f 1155/1/8 1146/1/8 1145/1/8
f 1156/1/8 1146/1/8 1155/1/8
f 1158/3/8 1148/3/8 1147/3/8
f 1158/1/8 1147/1/8 1157/1/8
f 1159/3/8 1150/3/8 1149/3/8
f 1160/3/8 1150/3/8 1159/3/8
f 1166/1/8 1165/1/8 1162/1/8
f 1166/1/8 1162/1/8 1161/1/8
f 1167/1/8 1164/1/8 1163/1/8
f 1168/1/8 1164/1/8 1167/1/8
f 1174/3/8 1170/3/8 1169/3/8
f 1174/1/8 1169/1/8 1173/1/8
f 1175/3/8 1172/3/8 1171/3/8
f 1176/3/8 1172/3/8 1175/3/8
f 1181/1/8 1178/1/8 1177/1/8
f 1182/1/8 1178/1/8 1181/1/8
f 1183/3/8 1180/3/8 1179/3/8
f 1184/3/8 1180/3/8 1183/3/8
f 1190/1/8 1189/1/8 1186/1/8
f 1190/1/8 1186/1/8 1185/1/8
f 1191/1/8 1188/1/8 1187/1/8
f 1192/1/8 1188/1/8 1191/1/8
f 1198/1/8 1197/1/8 1194/1/8
f 1198/1/8 1194/1/8 1193/1/8
f 1199/3/8 1196/3/8 1195/3/8
f 1200/3/8 1196/3/8 1199/3/8
f 1214/1/8 1202/1/8 1201/1/8
f 1214/1/8 1201/1/8 1213/1/8
f 1216/1/8 1204/1/8 1203/1/8
f 1216/1/8 1203/1/8 1215/1/8
f 1217/1/8 1211/1/8 1206/1/8
f 1217/1/8 1206/1/8 1205/1/8
f 1218/1/8 1208/1/8 1207/1/8
f 1219/1/8 1208/1/8 1218/1/8
f 1220/1/8 1212/1/8 1210/1/8
f 1220/1/8 1210/1/8 1209/1/8
f 1223/1/8 1222/1/8 1221/1/8
f 1224/1/8 1222/1/8 1223/1/8
f 1463/1/9 1486/1/9 1226/1/9
f 1442/1/9 1463/1/9 1226/1/9
f 1228/1/9 1229/1/9 1230/1/9
f 1230/1/9 1229/1/9 1231/1/9
f 1232/2/9 1233/2/9 1234/2/9
f 1232/2/9 1234/2/9 1235/2/9
f 1236/2/9 1237/2/9 1238/2/9
f 1238/2/9 1237/2/9 1239/2/9
f 1240/2/9 1241/2/9 1243/2/9
f 1241/2/9 1242/2/9 1243/2/9
f 1243/2/9 1242/2/9 1244/2/9
f 1245/2/9 1246/2/9 1247/2/9
f 1247/2/9 1246/2/9 1248/2/9
f 1249/1/9 1250/1/9 1253/1/9
f 1253/1/9 1250/1/9 1254/1/9
f 1251/1/9 1252/1/9 1255/1/9
f 1255/1/9 1252/1/9 1256/1/9
f 1257/1/9 1258/1/9 1261/1/9
f 1261/1/9 1258/1/9 1262/1/9
f 1259/1/9 1260/1/9 1263/1/9
f 1263/1/9 1260/1/9 1264/1/9
f 1265/2/9 1266/2/9 1269/2/9
f 1269/2/9 1266/2/9 1270/2/9
f 1267/2/9 1268/2/9 1271/2/9
f 1271/2/9 1268/2/9 1272/2/9
f 1274/2/9 1275/2/9 1276/2/9
f 1273/2/9 1274/2/9 1276/2/9
f 1276/2/9 1275/2/9 1277/2/9
f 1278/2/9 1279/2/9 1280/2/9
f 1280/2/9 1279/2/9 1281/2/9
f 1282/2/9 1283/2/9 1286/2/9
f 1286/2/9 1283/2/9 1287/2/9
f 1284/2/9 1285/2/9 1288/2/9
f 1288/2/9 1285/2/9 1289/2/9
f 1290/2/9 1291/2/9 1292/2/9
f 1292/2/9 1291/2/9 1293/2/9
f 1294/2/9 1295/2/9 1296/2/9
f 1296/2/9 1295/2/9 1297/2/9
f 1298/2/9 1299/2/9 1300/2/9
f 1300/2/9 1299/2/9 1301/2/9
f 1298/2/9 1300/2/9 1302/2/9
f 1302/2/9 1300/2/9 1303/2/9
f 1304/2/9 1305/2/9 1306/2/9
f 1306/2/9 1305/2/9 1307/2/9
f 1308/2/9 1309/2/9 1310/2/9
f 1310/2/9 1309/2/9 1311/2/9
f 1312/1/9 1313/1/9 1322/1/9
f 1322/1/9 1313/1/9 1323/1/9
f 1314/1/9 1315/1/9 1324/1/9
f 1324/1/9 1315/1/9 1325/1/9
f 1316/1/9 1317/1/9 1326/1/9
f 1326/1/9 1317/1/9 1327/1/9
f 1318/1/9 1319/1/9 1328/1/9
f 1328/1/9 1319/1/9 1329/1/9
f 1320/1/9 1321/1/9 1330/1/9
f 1330/1/9 1321/1/9 1331/1/9
f 1332/1/9 1333/1/9 1338/1/9
f 1338/1/9 1333/1/9 1339/1/9
f 1334/1/9 1335/1/9 1340/1/9
f 1340/1/9 1335/1/9 1341/1/9
f 1342/1/9 1343/1/9 1346/1/9
f 1346/1/9 1343/1/9 1347/1/9
f 1344/1/9 1345/1/9 1348/1/9
f 1348/1/9 1345/1/9 1349/1/9
f 1350/1/9 1351/1/9 1354/1/9
f 1354/1/9 1351/1/9 1355/1/9
f 1352/1/9 1353/1/9 1356/1/9
f 1356/1/9 1353/1/9 1357/1/9
f 1358/1/9 1359/1/9 1362/1/9
f 1362/1/9 1359/1/9 1363/1/9
f 1360/1/9 1361/1/9 1364/1/9
f 1364/1/9 1361/1/9 1365/1/9
f 1336/1/9 1337/1/9 1368/1/9
f 1368/1/9 1337/1/9 1369/1/9
f 1366/1/9 1367/1/9 1372/1/9
f 1372/1/9 1367/1/9 1373/1/9
f 1370/1/9 1371/1/9 1374/1/9
f 1374/1/9 1371/1/9 1375/1/9
f 1376/1/9 1377/1/9 1386/1/9
f 1386/1/9 1377/1/9 1387/1/9
f 1378/1/9 1379/1/9 1388/1/9
f 1388/1/9 1379/1/9 1389/1/9
f 1380/1/9 1381/1/9 1390/1/9
f 1390/1/9 1381/1/9 1391/1/9
f 1382/1/9 1383/1/9 1392/1/9
f 1392/1/9 1383/1/9 1393/1/9
f 1384/1/9 1385/1/9 1394/1/9
f 1394/1/9 1385/1/9 1395/1/9
f 1397/2/9 1398/2/9 1399/2/9
f 1396/2/9 1397/2/9 1399/2/9
f 1399/2/9 1398/2/9 1400/2/9
f 1396/2/9 1399/2/9 1401/2/9
f 1400/2/9 1398/2/9 1402/2/9
f 1396/2/9 1401/2/9 1403/2/9
f 1401/2/9 1402/2/9 1403/2/9
f 1403/2/9 1402/2/9 1404/2/9
f 1404/2/9 1402/2/9 1405/2/9
f 1405/2/9 1402/2/9 1406/2/9
f 1402/2/9 1398/2/9 1407/2/9
f 1406/2/9 1402/2/9 1407/2/9
f 1408/4/9 1409/4/9 1411/4/9
f 1411/4/9 1409/4/9 1412/4/9
f 1409/4/9 1410/4/9 1412/4/9
f 1412/4/9 1410/4/9 1413/4/9
f 1408/4/9 1411/4/9 1414/4/9
f 1413/4/9 1410/4/9 1418/4/9
f 1408/4/9 1414/4/9 1419/4/9
f 1414/4/9 1415/4/9 1419/4/9
f 1419/4/9 1415/4/9 1420/4/9
f 1415/4/9 1416/4/9 1420/4/9
f 1420/4/9 1416/4/9 1421/4/9
f 1416/4/9 1417/4/9 1421/4/9
f 1421/4/9 1417/4/9 1422/4/9
f 1417/4/9 1418/4/9 1422/4/9
f 1418/4/9 1410/4/9 1423/4/9
f 1422/4/9 1418/4/9 1423/4/9
f 1577/1/2 386/1/2 385/1/2
f 1573/4/1 56/4/1 75/4/1
f 1572/4/1 55/4/1 56/4/1
f 1571/4/1 52/4/1 55/4/1
f 52/4/1 1569/4/1 51/4/1
f 51/4/1 1568/4/1 48/4/1
f 48/4/1 1567/4/1 47/4/1
f 47/4/1 1566/4/1 45/4/1
f 45/4/1 1565/4/1 42/4/1
f 602/2/3 1583/2/3 1558/2/3
f 522/1/3 1580/1/3 523/1/3
f 42/4/1 1565/4/1 1554/4/1
f 42/2/1 1554/2/1 1553/2/1
f 629/6/3 1585/6/3 632/6/3
f 1544/4/2 382/4/2 381/4/2
f 1540/4/1 148/4/1 150/4/1
f 518/1/3 1556/1/3 520/1/3
f 1527/6/2 342/6/2 341/6/2
f 1525/1/2 336/1/2 335/1/2
f 1523/1/2 308/1/2 307/1/2
f 148/4/1 1539/4/1 1518/4/1
f 148/6/1 1517/6/1 147/6/1
f 610/2/3 1515/2/3 1584/2/3
f 555/1/3 1509/1/3 1581/1/3
f 1503/4/2 264/4/2 263/4/2
f 262/4/2 1503/4/2 263/4/2
f 260/4/2 1502/4/2 262/4/2
f 1499/1/2 250/1/2 249/1/2
f 228/4/1 1497/4/1 227/4/1
f 1497/4/1 226/4/1 227/4/1
f 1496/4/1 224/4/1 226/4/1
f 224/4/1 1495/4/1 1494/4/1
f 223/6/1 1493/6/1 1519/6/1
f 224/6/1 1493/6/1 223/6/1
f 157/1/1 1491/1/1 1574/1/1
f 158/1/1 1491/1/1 157/1/1
f 147/6/1 1517/6/1 1490/6/1
f 46/1/1 1489/1/1 1555/1/1
f 41/1/1 1538/1/1 1487/1/1
f 43/1/1 1487/1/1 1488/1/1
f 1226/1/9 1486/1/9 1591/1/9
f 900/4/7 1485/4/7 1483/4/7
f 708/4/3 1479/4/3 711/4/3
f 599/2/3 1477/2/3 602/2/3
f 583/6/3 1475/6/3 1533/6/3
f 526/1/3 1532/1/3 528/1/3
f 524/1/3 1508/1/3 525/1/3
f 179/1/1 1467/1/1 1541/1/1
f 180/1/1 1467/1/1 179/1/1
f 75/4/1 1465/4/1 1573/4/1
f 76/4/1 1465/4/1 75/4/1
f 42/1/1 1553/1/1 1464/1/1
f 614/6/3 1454/6/3 617/6/3
f 602/2/3 1477/2/3 1452/2/3
f 1446/6/2 260/6/2 259/6/2
f 235/1/1 1444/1/1 1542/1/1
f 236/1/1 1444/1/1 235/1/1
f 228/4/1 1443/4/1 1498/4/1
f 1225/1/9 1442/1/9 1226/1/9
f 888/4/7 1441/11/7 1552/4/7
f 632/4/3 1559/4/3 635/4/3
f 614/2/3 1435/2/3 1453/2/3
f 602/2/3 1452/2/3 1434/2/3
f 602/2/3 1434/2/3 1583/2/3
f 594/6/3 1451/13/3 598/6/3
f 342/4/2 1427/4/2 344/4/2
f 41/3/1 44/3/1 1424/3/1
f 1520/1/2 245/1/2 246/1/2
f 381/4/2 387/4/2 1530/4/2
f 387/4/2 389/4/2 1506/4/2
f 1531/1/3 518/1/3 517/1/3
f 1475/6/3 579/6/3 578/6/3
f 1510/2/3 599/2/3 598/2/3
f 771/1/7 773/1/7 1455/1/7
f 775/1/7 776/1/7 1480/1/7
f 777/1/7 778/1/7 1535/1/7
f 779/1/7 781/1/7 1588/1/7
f 793/4/7 794/4/7 1439/4/7
f 1460/4/7 871/4/7 873/4/7
f 873/4/7 888/4/7 1482/7/7
f 895/4/7 900/4/7 1484/4/7
f 901/4/7 918/4/7 1461/4/7
f 1461/4/7 918/4/7 920/4/7
f 920/4/7 926/4/7 1564/4/7
f 1577/1/2 1578/1/2 386/1/2
f 1573/4/1 1572/4/1 56/4/1
f 1572/4/1 1571/4/1 55/4/1
f 1571/4/1 1570/4/1 52/4/1
f 52/4/1 1570/4/1 1569/4/1
f 51/4/1 1569/4/1 1568/4/1
f 48/4/1 1568/4/1 1567/4/1
f 47/4/1 1567/4/1 1566/4/1
f 45/4/1 1566/4/1 1565/4/1
f 522/1/3 1557/1/3 1580/1/3
f 629/6/3 1549/6/3 1585/6/3
f 1544/4/2 1545/4/2 382/4/2
f 1540/4/1 1539/4/1 148/4/1
f 518/1/3 1531/1/3 1556/1/3
f 1527/6/2 1528/6/2 342/6/2
f 1525/1/2 1526/1/2 336/1/2
f 1523/1/2 1524/1/2 308/1/2
f 148/6/1 1518/6/1 1517/6/1
f 610/2/3 602/2/3 1515/2/3
f 555/1/3 552/1/3 1509/1/3
f 1503/4/2 1504/7/2 264/4/2
f 262/4/2 1502/4/2 1503/4/2
f 260/4/2 1501/4/2 1502/4/2
f 1499/1/2 1500/1/2 250/1/2
f 228/4/1 1498/4/1 1497/4/1
f 1497/4/1 1496/4/1 226/4/1
f 1496/4/1 1495/4/1 224/4/1
f 224/6/1 1494/6/1 1493/6/1
f 158/1/1 1492/1/1 1491/1/1
f 46/1/1 42/1/1 1489/1/1
f 43/1/1 41/1/1 1487/1/1
f 900/4/7 901/4/7 1485/4/7
f 708/4/3 1586/4/3 1479/4/3
f 599/2/3 1510/2/3 1477/2/3
f 583/6/3 579/6/3 1475/6/3
f 526/1/3 1473/1/3 1532/1/3
f 524/1/3 1472/1/3 1508/1/3
f 180/1/1 1468/8/1 1467/1/1
f 76/4/1 1466/4/1 1465/4/1
f 614/6/3 1478/6/3 1454/6/3
f 1446/6/2 1447/13/2 260/6/2
f 236/1/1 1445/1/1 1444/1/1
f 1225/1/9 1590/8/9 1442/1/9
f 888/4/7 895/4/7 1441/11/7
f 632/4/3 1436/4/3 1559/4/3
f 614/2/3 610/2/3 1435/2/3
f 594/6/3 1433/6/3 1451/13/3
f 342/4/2 1426/4/2 1427/4/2
