{
	"asset":{
		"generator":"Khronos glTF Blender I/O v5.0.21",
		"version":"2.0"
	},
	"scene":0,
	"scenes":[
		{
			"name":"Scene",
			"nodes":[
				51
			]
		}
	],
	"nodes":[
		{
			"name":"Foot.L",
			"rotation":[
				1.1713168532878626e-05,
				0.7058064937591553,
				0.7084047198295593,
				1.208511912409449e-05
			],
			"translation":[
				0.3519195318222046,
				0.04358881711959839,
				-0.0450553223490715
			]
		},
		{
			"name":"Ear3.L",
			"rotation":[
				0.1733470857143402,
				0.05579088255763054,
				0.044415779411792755,
				0.982275664806366
			],
			"translation":[
				3.725290298461914e-08,
				0.4417828917503357,
				1.30385160446167e-07
			]
		},
		{
			"children":[
				1
			],
			"name":"Ear2.L",
			"rotation":[
				-0.010240023024380207,
				-0.015900103375315666,
				0.125650554895401,
				0.9918943047523499
			],
			"translation":[
				9.313225746154785e-10,
				0.34060025215148926,
				-4.470348358154297e-08
			]
		},
		{
			"children":[
				2
			],
			"name":"Ear1.L",
			"rotation":[
				-0.17619240283966064,
				-0.06396757811307907,
				-0.17877861857414246,
				0.9658688306808472
			],
			"scale":[
				1.0000001192092896,
				1.0000001192092896,
				0.9999999403953552
			],
			"translation":[
				0.24033772945404053,
				0.28991490602493286,
				0.07646961510181427
			]
		},
		{
			"name":"Ear3.R",
			"rotation":[
				0.5451990962028503,
				-0.22276164591312408,
				-0.1895190179347992,
				0.7856321334838867
			],
			"scale":[
				0.9999998807907104,
				0.9999999403953552,
				0.9999999403953552
			],
			"translation":[
				3.557652235031128e-07,
				0.39746975898742676,
				-1.043081283569336e-07
			]
		},
		{
			"children":[
				4
			],
			"name":"Ear2.R",
			"rotation":[
				0.15439407527446747,
				-0.043352656066417694,
				0.1317972093820572,
				0.9782190322875977
			],
			"scale":[
				1.0000001192092896,
				1,
				1.0000001192092896
			],
			"translation":[
				-6.612390279769897e-08,
				0.34060055017471313,
				2.9802322387695312e-08
			]
		},
		{
			"children":[
				5
			],
			"name":"Ear1.R",
			"rotation":[
				-0.17609398066997528,
				0.06449899077415466,
				0.17887555062770844,
				0.9658334851264954
			],
			"translation":[
				-0.23897671699523926,
				0.2899148762226105,
				0.07673335075378418
			]
		},
		{
			"children":[
				3,
				6
			],
			"name":"Head",
			"rotation":[
				-0.3111063539981842,
				-0.0002622035681270063,
				8.533916843589395e-05,
				0.9503750801086426
			],
			"scale":[
				0.9999999403953552,
				0.9999999403953552,
				0.9999998211860657
			],
			"translation":[
				-1.7539747432238073e-11,
				0.18661893904209137,
				1.703508161199352e-07
			]
		},
		{
			"children":[
				7
			],
			"name":"Neck",
			"rotation":[
				0.3519251346588135,
				1.0285522193953511e-06,
				1.7147836217645818e-07,
				0.9360281229019165
			],
			"scale":[
				1,
				0.9999999403953552,
				0.9999998807907104
			],
			"translation":[
				-1.056719156622421e-10,
				0.5871496200561523,
				1.419514603639982e-07
			]
		},
		{
			"name":"Pinky3.L",
			"rotation":[
				-0.10664122551679611,
				-0.0009219341445714235,
				0.008596573024988174,
				0.9942600131034851
			],
			"scale":[
				0.9999998807907104,
				1,
				1
			],
			"translation":[
				-6.651103490185051e-08,
				0.11594559997320175,
				2.166052581742406e-07
			]
		},
		{
			"children":[
				9
			],
			"name":"Pinky2.L",
			"rotation":[
				-0.02837483026087284,
				-0.004822367802262306,
				-0.16748133301734924,
				0.9854550361633301
			],
			"scale":[
				1,
				0.9999998807907104,
				0.9999998807907104
			],
			"translation":[
				-8.188345645976369e-08,
				0.2424502968788147,
				-5.587935447692871e-07
			]
		},
		{
			"children":[
				10
			],
			"name":"Pinky1.L",
			"rotation":[
				-0.0025038530584424734,
				0.017147542908787727,
				0.29655659198760986,
				0.9548580646514893
			],
			"scale":[
				1,
				1,
				0.9999999403953552
			],
			"translation":[
				6.51925802230835e-08,
				0.5340543389320374,
				-1.5232762962114066e-07
			]
		},
		{
			"name":"Middle3.L",
			"rotation":[
				0.02055775187909603,
				-0.0009909404907375574,
				-0.001249672961421311,
				0.999787449836731
			],
			"scale":[
				1,
				1,
				0.9999999403953552
			],
			"translation":[
				-1.4435499906539917e-08,
				0.11864324659109116,
				-3.112363629043102e-07
			]
		},
		{
			"children":[
				12
			],
			"name":"Middle2.L",
			"rotation":[
				-0.11277103424072266,
				0.0007699258276261389,
				0.014514287002384663,
				0.9935147166252136
			],
			"scale":[
				1,
				1,
				0.9999999403953552
			],
			"translation":[
				4.598405212163925e-08,
				0.26272305846214294,
				-2.9389047995209694e-07
			]
		},
		{
			"children":[
				13
			],
			"name":"Middle1.L",
			"rotation":[
				0.024549076333642006,
				-0.0010813161497935653,
				-0.008040813729166985,
				0.9996657371520996
			],
			"scale":[
				0.9999999403953552,
				1.0000001192092896,
				1
			],
			"translation":[
				5.587935447692871e-09,
				0.5340543389320374,
				-3.3111064112745225e-08
			]
		},
		{
			"name":"Index3.L",
			"rotation":[
				-0.07661214470863342,
				-0.0015270429430529475,
				-0.019867531955242157,
				0.9968618750572205
			],
			"scale":[
				1,
				0.9999999403953552,
				0.9999999403953552
			],
			"translation":[
				-4.527001351561921e-08,
				0.09540410339832306,
				2.60770320892334e-08
			]
		},
		{
			"children":[
				15
			],
			"name":"Index2.L",
			"rotation":[
				0.04225397855043411,
				0.025641661137342453,
				0.2323046326637268,
				0.9713864922523499
			],
			"scale":[
				0.9999999403953552,
				1.0000001192092896,
				1
			],
			"translation":[
				2.987153209232929e-07,
				0.2896113395690918,
				-3.060267772525549e-07
			]
		},
		{
			"children":[
				16
			],
			"name":"Index1.L",
			"rotation":[
				0.0021520194131881,
				-0.020635206252336502,
				-0.30965694785118103,
				0.9506219625473022
			],
			"scale":[
				1,
				1.0000001192092896,
				0.9999999403953552
			],
			"translation":[
				-1.434236764907837e-07,
				0.5340542793273926,
				-1.5229852579068393e-07
			]
		},
		{
			"name":"Thumb2.L",
			"rotation":[
				-0.011625788174569607,
				0.0025344339665025473,
				0.21219263970851898,
				0.9771554470062256
			],
			"scale":[
				1,
				1.0000001192092896,
				0.9999999403953552
			],
			"translation":[
				1.0155781637877226e-07,
				0.2799481153488159,
				8.475035429000854e-08
			]
		},
		{
			"children":[
				18
			],
			"name":"Thumb1.L",
			"rotation":[
				-0.013722315430641174,
				-0.029715582728385925,
				-0.6772017478942871,
				0.7350690364837646
			],
			"scale":[
				1.0000001192092896,
				1,
				1
			],
			"translation":[
				3.5390257835388184e-08,
				0.5340543389320374,
				-3.311470209155232e-08
			]
		},
		{
			"children":[
				11,
				14,
				17,
				19
			],
			"name":"LowerArm.L",
			"rotation":[
				0.03155312314629555,
				0.03223361074924469,
				0.011584152467548847,
				0.9989150762557983
			],
			"scale":[
				1,
				0.9999998211860657,
				1
			],
			"translation":[
				-4.842877388000488e-08,
				0.8396773934364319,
				1.1874362826347351e-08
			]
		},
		{
			"children":[
				20
			],
			"name":"UpperArm.L",
			"rotation":[
				-0.24289746582508087,
				-0.6871078610420227,
				-0.25994282960891724,
				0.6334929466247559
			],
			"scale":[
				0.9999997615814209,
				0.9999998211860657,
				0.9999998807907104
			],
			"translation":[
				1.1709380487445742e-07,
				0.2595314383506775,
				-4.4912155772180995e-08
			]
		},
		{
			"children":[
				21
			],
			"name":"Shoulder.L",
			"rotation":[
				-0.1241787001490593,
				-0.05580439418554306,
				-0.40609171986579895,
				0.9036343693733215
			],
			"scale":[
				1,
				0.9999998807907104,
				0.9999998211860657
			],
			"translation":[
				0.1717863380908966,
				0.25496482849121094,
				-0.019056469202041626
			]
		},
		{
			"name":"Pinky3.R",
			"rotation":[
				-0.10664152354001999,
				0.0009219420608133078,
				-0.008596427738666534,
				0.9942599534988403
			],
			"scale":[
				0.9999999403953552,
				1.0000001192092896,
				1
			],
			"translation":[
				5.1484278174029896e-08,
				0.11594591289758682,
				4.3993321696689236e-07
			]
		},
		{
			"children":[
				23
			],
			"name":"Pinky2.R",
			"rotation":[
				-0.02837485447525978,
				0.004822312388569117,
				0.1674814373254776,
				0.9854550361633301
			],
			"scale":[
				0.9999999403953552,
				0.9999999403953552,
				0.9999999403953552
			],
			"translation":[
				1.962405349331675e-07,
				0.24245025217533112,
				-5.4016709327697754e-08
			]
		},
		{
			"children":[
				24
			],
			"name":"Pinky1.R",
			"rotation":[
				-0.002503741066902876,
				-0.017147434875369072,
				-0.2965567708015442,
				0.9548580050468445
			],
			"scale":[
				1,
				1.0000001192092896,
				0.9999999403953552
			],
			"translation":[
				-1.832377165555954e-07,
				0.5340539216995239,
				-1.599892129888758e-07
			]
		},
		{
			"name":"Middle3.R",
			"rotation":[
				0.020557254552841187,
				0.0009909302461892366,
				0.0012496018316596746,
				0.999787449836731
			],
			"translation":[
				4.6566128730773926e-08,
				0.11864348500967026,
				2.448796294629574e-07
			]
		},
		{
			"children":[
				26
			],
			"name":"Middle2.R",
			"rotation":[
				-0.11277095228433609,
				-0.0007699151756241918,
				-0.01451424602419138,
				0.9935147166252136
			],
			"scale":[
				1.0000001192092896,
				1,
				1
			],
			"translation":[
				-6.05359673500061e-09,
				0.26272261142730713,
				-2.5081681087613106e-07
			]
		},
		{
			"children":[
				27
			],
			"name":"Middle1.R",
			"rotation":[
				0.024549223482608795,
				0.0010813085827976465,
				0.00804081093519926,
				0.9996657371520996
			],
			"scale":[
				0.9999999403953552,
				1.0000001192092896,
				1
			],
			"translation":[
				-2.6542693376541138e-08,
				0.534054160118103,
				-5.566107574850321e-08
			]
		},
		{
			"name":"Index3.R",
			"rotation":[
				-0.07661217451095581,
				0.0015270391013473272,
				0.01986762508749962,
				0.9968618154525757
			],
			"scale":[
				1,
				0.9999998807907104,
				1
			],
			"translation":[
				-6.601308655262983e-08,
				0.09540290385484695,
				-9.109498932957649e-08
			]
		},
		{
			"children":[
				29
			],
			"name":"Index2.R",
			"rotation":[
				0.04225402697920799,
				-0.025641601532697678,
				-0.2323046326637268,
				0.9713864922523499
			],
			"scale":[
				0.9999998211860657,
				0.9999998807907104,
				0.9999998807907104
			],
			"translation":[
				2.5466118813710636e-07,
				0.2896113991737366,
				1.440348569303751e-07
			]
		},
		{
			"children":[
				30
			],
			"name":"Index1.R",
			"rotation":[
				0.0021521139424294233,
				0.02063509076833725,
				0.3096570074558258,
				0.9506219625473022
			],
			"scale":[
				1,
				1,
				0.9999998807907104
			],
			"translation":[
				-1.6880221664905548e-07,
				0.5340539216995239,
				-3.9840597310103476e-07
			]
		},
		{
			"name":"Thumb2.R",
			"rotation":[
				-0.011625844985246658,
				-0.0025344330351799726,
				-0.21219250559806824,
				0.9771554470062256
			],
			"scale":[
				0.9999999403953552,
				1,
				0.9999998807907104
			],
			"translation":[
				-2.5932968128472567e-07,
				0.27994805574417114,
				-1.0454095900058746e-07
			]
		},
		{
			"children":[
				32
			],
			"name":"Thumb1.R",
			"rotation":[
				-0.013722172006964684,
				0.029715433716773987,
				0.6772016882896423,
				0.7350690960884094
			],
			"scale":[
				1,
				1,
				0.9999998807907104
			],
			"translation":[
				-2.2817403078079224e-08,
				0.5340536832809448,
				-2.5855115382000804e-08
			]
		},
		{
			"children":[
				25,
				28,
				31,
				33
			],
			"name":"LowerArm.R",
			"rotation":[
				0.03155303746461868,
				-0.03223365917801857,
				-0.011584199965000153,
				0.9989150166511536
			],
			"scale":[
				1.0000001192092896,
				0.9999998807907104,
				1
			],
			"translation":[
				0,
				0.8396771550178528,
				5.133915692567825e-07
			]
		},
		{
			"children":[
				34
			],
			"name":"UpperArm.R",
			"rotation":[
				-0.24289759993553162,
				0.6871078610420227,
				0.2599428594112396,
				0.6334928870201111
			],
			"scale":[
				0.9999998211860657,
				0.9999998807907104,
				0.9999998807907104
			],
			"translation":[
				-5.4331849241862074e-08,
				0.2595316469669342,
				-8.104336757241981e-09
			]
		},
		{
			"children":[
				35
			],
			"name":"Shoulder.R",
			"rotation":[
				-0.12417840212583542,
				0.05580497533082962,
				0.4060917794704437,
				0.9036343693733215
			],
			"scale":[
				1,
				1,
				0.9999999403953552
			],
			"translation":[
				-0.1705094873905182,
				0.2549647092819214,
				-0.019056260585784912
			]
		},
		{
			"children":[
				8,
				22,
				36
			],
			"name":"Torso",
			"rotation":[
				0.09618956595659256,
				-8.465290761705546e-07,
				2.2978140279406034e-08,
				0.9953630566596985
			],
			"translation":[
				-3.036859652638668e-11,
				0.2985783815383911,
				1.420574147203979e-08
			]
		},
		{
			"children":[
				37
			],
			"name":"Abdomen",
			"rotation":[
				0.09089295566082001,
				4.048006871926191e-07,
				6.206920488693868e-08,
				0.9958606958389282
			],
			"scale":[
				1,
				1,
				0.9999998807907104
			],
			"translation":[
				1.5053913671181363e-10,
				0.31433773040771484,
				4.452704160939902e-08
			]
		},
		{
			"children":[
				38
			],
			"name":"Hips",
			"rotation":[
				-0.05076878145337105,
				-2.1942261696494825e-07,
				-2.51870559964118e-08,
				0.9987104535102844
			],
			"scale":[
				1,
				1.0000001192092896,
				0.9999999403953552
			],
			"translation":[
				-0.001479828730225563,
				-0.18224500119686127,
				-0.1945052593946457
			]
		},
		{
			"name":"LowerLeg.L",
			"rotation":[
				0.09582474827766418,
				0.0020175606478005648,
				0.010402972809970379,
				0.9953417778015137
			],
			"translation":[
				2.1420419216156006e-08,
				0.42269113659858704,
				8.149072527885437e-09
			]
		},
		{
			"children":[
				40
			],
			"name":"UpperLeg.L",
			"rotation":[
				0.9997501969337463,
				0.010526507161557674,
				-0.00121887621935457,
				0.01967683807015419
			],
			"scale":[
				1.000000238418579,
				1,
				1.0000007152557373
			],
			"translation":[
				0.3395238220691681,
				0.0011798265622928739,
				-0.15161462128162384
			]
		},
		{
			"name":"LowerLeg.R",
			"rotation":[
				0.0958247035741806,
				-0.002017594873905182,
				-0.01040307991206646,
				0.9953418374061584
			],
			"scale":[
				1,
				1,
				0.9999999403953552
			],
			"translation":[
				-4.2549800127744675e-08,
				0.4226909875869751,
				7.392372936010361e-09
			]
		},
		{
			"children":[
				42
			],
			"name":"UpperLeg.R",
			"rotation":[
				0.9997502565383911,
				-0.010526633821427822,
				0.0012196811148896813,
				0.01967681013047695
			],
			"scale":[
				1.000000238418579,
				0.9999999403953552,
				1.0000007152557373
			],
			"translation":[
				-0.34120678901672363,
				0.0011797669576480985,
				-0.15161506831645966
			]
		},
		{
			"children":[
				39,
				41,
				43
			],
			"name":"Body",
			"rotation":[
				-2.795213660533591e-08,
				1.1855971138174937e-07,
				-3.313997347891137e-15,
				1
			],
			"translation":[
				0.0021529800724238157,
				0.9692426323890686,
				0.16757357120513916
			]
		},
		{
			"name":"PoleTarget.L",
			"rotation":[
				-1.0097419586828951e-28,
				1.1828666401925148e-07,
				1.7205056342870267e-27,
				1
			],
			"translation":[
				0.34848839044570923,
				0.6023485064506531,
				1.8575890064239502
			]
		},
		{
			"name":"Foot.R",
			"rotation":[
				1.2123808119213209e-05,
				-0.7058064937591553,
				-0.7084047198295593,
				1.1664425073831808e-05
			],
			"translation":[
				-0.3492964208126068,
				0.04358881711959839,
				-0.04505566135048866
			]
		},
		{
			"name":"PoleTarget.R",
			"rotation":[
				2.0194839173657902e-28,
				-5.96969073285436e-07,
				-1.7205056342870267e-27,
				1
			],
			"translation":[
				-0.34586721658706665,
				0.6023485660552979,
				1.8575888872146606
			]
		},
		{
			"children":[
				0,
				44,
				45,
				46,
				47
			],
			"name":"Root",
			"rotation":[
				-1.0497398506004174e-08,
				2.393412046330923e-07,
				-5.024920045083045e-15,
				1
			],
			"translation":[
				-0.0013114692410454154,
				-0.0024153697304427624,
				-0.23543952405452728
			]
		},
		{
			"mesh":0,
			"name":"Bunny",
			"skin":0
		},
		{
			"mesh":1,
			"name":"Carrot",
			"skin":0
		},
		{
			"children":[
				49,
				50,
				48
			],
			"name":"CharacterArmature"
		}
	],
	"animations":[
		{
			"channels":[
				{
					"sampler":0,
					"target":{
						"node":48,
						"path":"translation"
					}
				},
				{
					"sampler":1,
					"target":{
						"node":48,
						"path":"rotation"
					}
				},
				{
					"sampler":2,
					"target":{
						"node":48,
						"path":"scale"
					}
				},
				{
					"sampler":3,
					"target":{
						"node":0,
						"path":"translation"
					}
				},
				{
					"sampler":4,
					"target":{
						"node":0,
						"path":"rotation"
					}
				},
				{
					"sampler":5,
					"target":{
						"node":0,
						"path":"scale"
					}
				},
				{
					"sampler":6,
					"target":{
						"node":44,
						"path":"translation"
					}
				},
				{
					"sampler":7,
					"target":{
						"node":44,
						"path":"rotation"
					}
				},
				{
					"sampler":8,
					"target":{
						"node":44,
						"path":"scale"
					}
				},
				{
					"sampler":9,
					"target":{
						"node":39,
						"path":"translation"
					}
				},
				{
					"sampler":10,
					"target":{
						"node":39,
						"path":"rotation"
					}
				},
				{
					"sampler":11,
					"target":{
						"node":39,
						"path":"scale"
					}
				},
				{
					"sampler":12,
					"target":{
						"node":38,
						"path":"translation"
					}
				},
				{
					"sampler":13,
					"target":{
						"node":38,
						"path":"rotation"
					}
				},
				{
					"sampler":14,
					"target":{
						"node":38,
						"path":"scale"
					}
				},
				{
					"sampler":15,
					"target":{
						"node":37,
						"path":"translation"
					}
				},
				{
					"sampler":16,
					"target":{
						"node":37,
						"path":"rotation"
					}
				},
				{
					"sampler":17,
					"target":{
						"node":37,
						"path":"scale"
					}
				},
				{
					"sampler":18,
					"target":{
						"node":8,
						"path":"translation"
					}
				},
				{
					"sampler":19,
					"target":{
						"node":8,
						"path":"rotation"
					}
				},
				{
					"sampler":20,
					"target":{
						"node":8,
						"path":"scale"
					}
				},
				{
					"sampler":21,
					"target":{
						"node":7,
						"path":"translation"
					}
				},
				{
					"sampler":22,
					"target":{
						"node":7,
						"path":"rotation"
					}
				},
				{
					"sampler":23,
					"target":{
						"node":7,
						"path":"scale"
					}
				},
				{
					"sampler":24,
					"target":{
						"node":3,
						"path":"translation"
					}
				},
				{
					"sampler":25,
					"target":{
						"node":3,
						"path":"rotation"
					}
				},
				{
					"sampler":26,
					"target":{
						"node":3,
						"path":"scale"
					}
				},
				{
					"sampler":27,
					"target":{
						"node":2,
						"path":"translation"
					}
				},
				{
					"sampler":28,
					"target":{
						"node":2,
						"path":"rotation"
					}
				},
				{
					"sampler":29,
					"target":{
						"node":2,
						"path":"scale"
					}
				},
				{
					"sampler":30,
					"target":{
						"node":1,
						"path":"translation"
					}
				},
				{
					"sampler":31,
					"target":{
						"node":1,
						"path":"rotation"
					}
				},
				{
					"sampler":32,
					"target":{
						"node":1,
						"path":"scale"
					}
				},
				{
					"sampler":33,
					"target":{
						"node":6,
						"path":"translation"
					}
				},
				{
					"sampler":34,
					"target":{
						"node":6,
						"path":"rotation"
					}
				},
				{
					"sampler":35,
					"target":{
						"node":6,
						"path":"scale"
					}
				},
				{
					"sampler":36,
					"target":{
						"node":5,
						"path":"translation"
					}
				},
				{
					"sampler":37,
					"target":{
						"node":5,
						"path":"rotation"
					}
				},
				{
					"sampler":38,
					"target":{
						"node":5,
						"path":"scale"
					}
				},
				{
					"sampler":39,
					"target":{
						"node":4,
						"path":"translation"
					}
				},
				{
					"sampler":40,
					"target":{
						"node":4,
						"path":"rotation"
					}
				},
				{
					"sampler":41,
					"target":{
						"node":4,
						"path":"scale"
					}
				},
				{
					"sampler":42,
					"target":{
						"node":22,
						"path":"translation"
					}
				},
				{
					"sampler":43,
					"target":{
						"node":22,
						"path":"rotation"
					}
				},
				{
					"sampler":44,
					"target":{
						"node":22,
						"path":"scale"
					}
				},
				{
					"sampler":45,
					"target":{
						"node":21,
						"path":"translation"
					}
				},
				{
					"sampler":46,
					"target":{
						"node":21,
						"path":"rotation"
					}
				},
				{
					"sampler":47,
					"target":{
						"node":21,
						"path":"scale"
					}
				},
				{
					"sampler":48,
					"target":{
						"node":20,
						"path":"translation"
					}
				},
				{
					"sampler":49,
					"target":{
						"node":20,
						"path":"rotation"
					}
				},
				{
					"sampler":50,
					"target":{
						"node":20,
						"path":"scale"
					}
				},
				{
					"sampler":51,
					"target":{
						"node":11,
						"path":"translation"
					}
				},
				{
					"sampler":52,
					"target":{
						"node":11,
						"path":"rotation"
					}
				},
				{
					"sampler":53,
					"target":{
						"node":11,
						"path":"scale"
					}
				},
				{
					"sampler":54,
					"target":{
						"node":10,
						"path":"translation"
					}
				},
				{
					"sampler":55,
					"target":{
						"node":10,
						"path":"rotation"
					}
				},
				{
					"sampler":56,
					"target":{
						"node":10,
						"path":"scale"
					}
				},
				{
					"sampler":57,
					"target":{
						"node":9,
						"path":"translation"
					}
				},
				{
					"sampler":58,
					"target":{
						"node":9,
						"path":"rotation"
					}
				},
				{
					"sampler":59,
					"target":{
						"node":9,
						"path":"scale"
					}
				},
				{
					"sampler":60,
					"target":{
						"node":14,
						"path":"translation"
					}
				},
				{
					"sampler":61,
					"target":{
						"node":14,
						"path":"rotation"
					}
				},
				{
					"sampler":62,
					"target":{
						"node":14,
						"path":"scale"
					}
				},
				{
					"sampler":63,
					"target":{
						"node":13,
						"path":"translation"
					}
				},
				{
					"sampler":64,
					"target":{
						"node":13,
						"path":"rotation"
					}
				},
				{
					"sampler":65,
					"target":{
						"node":13,
						"path":"scale"
					}
				},
				{
					"sampler":66,
					"target":{
						"node":12,
						"path":"translation"
					}
				},
				{
					"sampler":67,
					"target":{
						"node":12,
						"path":"rotation"
					}
				},
				{
					"sampler":68,
					"target":{
						"node":12,
						"path":"scale"
					}
				},
				{
					"sampler":69,
					"target":{
						"node":17,
						"path":"translation"
					}
				},
				{
					"sampler":70,
					"target":{
						"node":17,
						"path":"rotation"
					}
				},
				{
					"sampler":71,
					"target":{
						"node":17,
						"path":"scale"
					}
				},
				{
					"sampler":72,
					"target":{
						"node":16,
						"path":"translation"
					}
				},
				{
					"sampler":73,
					"target":{
						"node":16,
						"path":"rotation"
					}
				},
				{
					"sampler":74,
					"target":{
						"node":16,
						"path":"scale"
					}
				},
				{
					"sampler":75,
					"target":{
						"node":15,
						"path":"translation"
					}
				},
				{
					"sampler":76,
					"target":{
						"node":15,
						"path":"rotation"
					}
				},
				{
					"sampler":77,
					"target":{
						"node":15,
						"path":"scale"
					}
				},
				{
					"sampler":78,
					"target":{
						"node":19,
						"path":"translation"
					}
				},
				{
					"sampler":79,
					"target":{
						"node":19,
						"path":"rotation"
					}
				},
				{
					"sampler":80,
					"target":{
						"node":19,
						"path":"scale"
					}
				},
				{
					"sampler":81,
					"target":{
						"node":18,
						"path":"translation"
					}
				},
				{
					"sampler":82,
					"target":{
						"node":18,
						"path":"rotation"
					}
				},
				{
					"sampler":83,
					"target":{
						"node":18,
						"path":"scale"
					}
				},
				{
					"sampler":84,
					"target":{
						"node":36,
						"path":"translation"
					}
				},
				{
					"sampler":85,
					"target":{
						"node":36,
						"path":"rotation"
					}
				},
				{
					"sampler":86,
					"target":{
						"node":36,
						"path":"scale"
					}
				},
				{
					"sampler":87,
					"target":{
						"node":35,
						"path":"translation"
					}
				},
				{
					"sampler":88,
					"target":{
						"node":35,
						"path":"rotation"
					}
				},
				{
					"sampler":89,
					"target":{
						"node":35,
						"path":"scale"
					}
				},
				{
					"sampler":90,
					"target":{
						"node":34,
						"path":"translation"
					}
				},
				{
					"sampler":91,
					"target":{
						"node":34,
						"path":"rotation"
					}
				},
				{
					"sampler":92,
					"target":{
						"node":34,
						"path":"scale"
					}
				},
				{
					"sampler":93,
					"target":{
						"node":25,
						"path":"translation"
					}
				},
				{
					"sampler":94,
					"target":{
						"node":25,
						"path":"rotation"
					}
				},
				{
					"sampler":95,
					"target":{
						"node":25,
						"path":"scale"
					}
				},
				{
					"sampler":96,
					"target":{
						"node":24,
						"path":"translation"
					}
				},
				{
					"sampler":97,
					"target":{
						"node":24,
						"path":"rotation"
					}
				},
				{
					"sampler":98,
					"target":{
						"node":24,
						"path":"scale"
					}
				},
				{
					"sampler":99,
					"target":{
						"node":23,
						"path":"translation"
					}
				},
				{
					"sampler":100,
					"target":{
						"node":23,
						"path":"rotation"
					}
				},
				{
					"sampler":101,
					"target":{
						"node":23,
						"path":"scale"
					}
				},
				{
					"sampler":102,
					"target":{
						"node":28,
						"path":"translation"
					}
				},
				{
					"sampler":103,
					"target":{
						"node":28,
						"path":"rotation"
					}
				},
				{
					"sampler":104,
					"target":{
						"node":28,
						"path":"scale"
					}
				},
				{
					"sampler":105,
					"target":{
						"node":27,
						"path":"translation"
					}
				},
				{
					"sampler":106,
					"target":{
						"node":27,
						"path":"rotation"
					}
				},
				{
					"sampler":107,
					"target":{
						"node":27,
						"path":"scale"
					}
				},
				{
					"sampler":108,
					"target":{
						"node":26,
						"path":"translation"
					}
				},
				{
					"sampler":109,
					"target":{
						"node":26,
						"path":"rotation"
					}
				},
				{
					"sampler":110,
					"target":{
						"node":26,
						"path":"scale"
					}
				},
				{
					"sampler":111,
					"target":{
						"node":31,
						"path":"translation"
					}
				},
				{
					"sampler":112,
					"target":{
						"node":31,
						"path":"rotation"
					}
				},
				{
					"sampler":113,
					"target":{
						"node":31,
						"path":"scale"
					}
				},
				{
					"sampler":114,
					"target":{
						"node":30,
						"path":"translation"
					}
				},
				{
					"sampler":115,
					"target":{
						"node":30,
						"path":"rotation"
					}
				},
				{
					"sampler":116,
					"target":{
						"node":30,
						"path":"scale"
					}
				},
				{
					"sampler":117,
					"target":{
						"node":29,
						"path":"translation"
					}
				},
				{
					"sampler":118,
					"target":{
						"node":29,
						"path":"rotation"
					}
				},
				{
					"sampler":119,
					"target":{
						"node":29,
						"path":"scale"
					}
				},
				{
					"sampler":120,
					"target":{
						"node":33,
						"path":"translation"
					}
				},
				{
					"sampler":121,
					"target":{
						"node":33,
						"path":"rotation"
					}
				},
				{
					"sampler":122,
					"target":{
						"node":33,
						"path":"scale"
					}
				},
				{
					"sampler":123,
					"target":{
						"node":32,
						"path":"translation"
					}
				},
				{
					"sampler":124,
					"target":{
						"node":32,
						"path":"rotation"
					}
				},
				{
					"sampler":125,
					"target":{
						"node":32,
						"path":"scale"
					}
				},
				{
					"sampler":126,
					"target":{
						"node":41,
						"path":"translation"
					}
				},
				{
					"sampler":127,
					"target":{
						"node":41,
						"path":"rotation"
					}
				},
				{
					"sampler":128,
					"target":{
						"node":41,
						"path":"scale"
					}
				},
				{
					"sampler":129,
					"target":{
						"node":40,
						"path":"translation"
					}
				},
				{
					"sampler":130,
					"target":{
						"node":40,
						"path":"rotation"
					}
				},
				{
					"sampler":131,
					"target":{
						"node":40,
						"path":"scale"
					}
				},
				{
					"sampler":132,
					"target":{
						"node":43,
						"path":"translation"
					}
				},
				{
					"sampler":133,
					"target":{
						"node":43,
						"path":"rotation"
					}
				},
				{
					"sampler":134,
					"target":{
						"node":43,
						"path":"scale"
					}
				},
				{
					"sampler":135,
					"target":{
						"node":42,
						"path":"translation"
					}
				},
				{
					"sampler":136,
					"target":{
						"node":42,
						"path":"rotation"
					}
				},
				{
					"sampler":137,
					"target":{
						"node":42,
						"path":"scale"
					}
				},
				{
					"sampler":138,
					"target":{
						"node":45,
						"path":"translation"
					}
				},
				{
					"sampler":139,
					"target":{
						"node":45,
						"path":"rotation"
					}
				},
				{
					"sampler":140,
					"target":{
						"node":45,
						"path":"scale"
					}
				},
				{
					"sampler":141,
					"target":{
						"node":46,
						"path":"translation"
					}
				},
				{
					"sampler":142,
					"target":{
						"node":46,
						"path":"rotation"
					}
				},
				{
					"sampler":143,
					"target":{
						"node":46,
						"path":"scale"
					}
				},
				{
					"sampler":144,
					"target":{
						"node":47,
						"path":"translation"
					}
				},
				{
					"sampler":145,
					"target":{
						"node":47,
						"path":"rotation"
					}
				},
				{
					"sampler":146,
					"target":{
						"node":47,
						"path":"scale"
					}
				}
			],
			"name":"HitReact",
			"samplers":[
				{
					"input":13,
					"interpolation":"STEP",
					"output":14
				},
				{
					"input":13,
					"interpolation":"STEP",
					"output":15
				},
				{
					"input":13,
					"interpolation":"STEP",
					"output":16
				},
				{
					"input":13,
					"interpolation":"STEP",
					"output":17
				},
				{
					"input":13,
					"interpolation":"STEP",
					"output":18
				},
				{
					"input":13,
					"interpolation":"STEP",
					"output":19
				},
				{
					"input":20,
					"interpolation":"LINEAR",
					"output":21
				},
				{
					"input":20,
					"interpolation":"LINEAR",
					"output":22
				},
				{
					"input":13,
					"interpolation":"STEP",
					"output":23
				},
				{
					"input":13,
					"interpolation":"STEP",
					"output":24
				},
				{
					"input":13,
					"interpolation":"STEP",
					"output":25
				},
				{
					"input":13,
					"interpolation":"STEP",
					"output":26
				},
				{
					"input":13,
					"interpolation":"STEP",
					"output":27
				},
				{
					"input":20,
					"interpolation":"LINEAR",
					"output":28
				},
				{
					"input":13,
					"interpolation":"STEP",
					"output":29
				},
				{
					"input":13,
					"interpolation":"STEP",
					"output":30
				},
				{
					"input":20,
					"interpolation":"LINEAR",
					"output":31
				},
				{
					"input":13,
					"interpolation":"STEP",
					"output":32
				},
				{
					"input":13,
					"interpolation":"STEP",
					"output":33
				},
				{
					"input":13,
					"interpolation":"STEP",
					"output":34
				},
				{
					"input":13,
					"interpolation":"STEP",
					"output":35
				},
				{
					"input":13,
					"interpolation":"STEP",
					"output":36
				},
				{
					"input":20,
					"interpolation":"LINEAR",
					"output":37
				},
				{
					"input":13,
					"interpolation":"STEP",
					"output":38
				},
				{
					"input":13,
					"interpolation":"LINEAR",
					"output":39
				},
				{
					"input":13,
					"interpolation":"LINEAR",
					"output":40
				},
				{
					"input":13,
					"interpolation":"STEP",
					"output":41
				},
				{
					"input":13,
					"interpolation":"LINEAR",
					"output":42
				},
				{
					"input":20,
					"interpolation":"LINEAR",
					"output":43
				},
				{
					"input":13,
					"interpolation":"STEP",
					"output":44
				},
				{
					"input":13,
					"interpolation":"LINEAR",
					"output":45
				},
				{
					"input":20,
					"interpolation":"LINEAR",
					"output":46
				},
				{
					"input":13,
					"interpolation":"STEP",
					"output":47
				},
				{
					"input":13,
					"interpolation":"LINEAR",
					"output":48
				},
				{
					"input":13,
					"interpolation":"LINEAR",
					"output":49
				},
				{
					"input":13,
					"interpolation":"STEP",
					"output":50
				},
				{
					"input":13,
					"interpolation":"LINEAR",
					"output":51
				},
				{
					"input":20,
					"interpolation":"LINEAR",
					"output":52
				},
				{
					"input":13,
					"interpolation":"STEP",
					"output":53
				},
				{
					"input":13,
					"interpolation":"LINEAR",
					"output":54
				},
				{
					"input":20,
					"interpolation":"LINEAR",
					"output":55
				},
				{
					"input":13,
					"interpolation":"STEP",
					"output":56
				},
				{
					"input":13,
					"interpolation":"STEP",
					"output":57
				},
				{
					"input":13,
					"interpolation":"STEP",
					"output":58
				},
				{
					"input":13,
					"interpolation":"STEP",
					"output":59
				},
				{
					"input":13,
					"interpolation":"STEP",
					"output":60
				},
				{
					"input":20,
					"interpolation":"LINEAR",
					"output":61
				},
				{
					"input":13,
					"interpolation":"STEP",
					"output":62
				},
				{
					"input":13,
					"interpolation":"LINEAR",
					"output":63
				},
				{
					"input":20,
					"interpolation":"LINEAR",
					"output":64
				},
				{
					"input":13,
					"interpolation":"STEP",
					"output":65
				},
				{
					"input":13,
					"interpolation":"LINEAR",
					"output":66
				},
				{
					"input":13,
					"interpolation":"LINEAR",
					"output":67
				},
				{
					"input":13,
					"interpolation":"STEP",
					"output":68
				},
				{
					"input":13,
					"interpolation":"LINEAR",
					"output":69
				},
				{
					"input":13,
					"interpolation":"LINEAR",
					"output":70
				},
				{
					"input":13,
					"interpolation":"STEP",
					"output":71
				},
				{
					"input":13,
					"interpolation":"LINEAR",
					"output":72
				},
				{
					"input":13,
					"interpolation":"LINEAR",
					"output":73
				},
				{
					"input":13,
					"interpolation":"STEP",
					"output":74
				},
				{
					"input":13,
					"interpolation":"LINEAR",
					"output":75
				},
				{
					"input":13,
					"interpolation":"LINEAR",
					"output":76
				},
				{
					"input":13,
					"interpolation":"STEP",
					"output":77
				},
				{
					"input":13,
					"interpolation":"LINEAR",
					"output":78
				},
				{
					"input":13,
					"interpolation":"LINEAR",
					"output":79
				},
				{
					"input":13,
					"interpolation":"STEP",
					"output":80
				},
				{
					"input":13,
					"interpolation":"LINEAR",
					"output":81
				},
				{
					"input":13,
					"interpolation":"LINEAR",
					"output":82
				},
				{
					"input":13,
					"interpolation":"STEP",
					"output":83
				},
				{
					"input":13,
					"interpolation":"LINEAR",
					"output":84
				},
				{
					"input":13,
					"interpolation":"LINEAR",
					"output":85
				},
				{
					"input":13,
					"interpolation":"STEP",
					"output":86
				},
				{
					"input":13,
					"interpolation":"LINEAR",
					"output":87
				},
				{
					"input":13,
					"interpolation":"LINEAR",
					"output":88
				},
				{
					"input":13,
					"interpolation":"STEP",
					"output":89
				},
				{
					"input":13,
					"interpolation":"LINEAR",
					"output":90
				},
				{
					"input":13,
					"interpolation":"LINEAR",
					"output":91
				},
				{
					"input":13,
					"interpolation":"STEP",
					"output":92
				},
				{
					"input":13,
					"interpolation":"LINEAR",
					"output":93
				},
				{
					"input":13,
					"interpolation":"LINEAR",
					"output":94
				},
				{
					"input":13,
					"interpolation":"STEP",
					"output":95
				},
				{
					"input":13,
					"interpolation":"LINEAR",
					"output":96
				},
				{
					"input":13,
					"interpolation":"STEP",
					"output":97
				},
				{
					"input":13,
					"interpolation":"STEP",
					"output":98
				},
				{
					"input":13,
					"interpolation":"STEP",
					"output":99
				},
				{
					"input":13,
					"interpolation":"STEP",
					"output":100
				},
				{
					"input":13,
					"interpolation":"STEP",
					"output":101
				},
				{
					"input":13,
					"interpolation":"STEP",
					"output":102
				},
				{
					"input":20,
					"interpolation":"LINEAR",
					"output":103
				},
				{
					"input":13,
					"interpolation":"STEP",
					"output":104
				},
				{
					"input":13,
					"interpolation":"LINEAR",
					"output":105
				},
				{
					"input":20,
					"interpolation":"LINEAR",
					"output":106
				},
				{
					"input":13,
					"interpolation":"STEP",
					"output":107
				},
				{
					"input":13,
					"interpolation":"LINEAR",
					"output":108
				},
				{
					"input":13,
					"interpolation":"LINEAR",
					"output":109
				},
				{
					"input":13,
					"interpolation":"STEP",
					"output":110
				},
				{
					"input":13,
					"interpolation":"LINEAR",
					"output":111
				},
				{
					"input":13,
					"interpolation":"LINEAR",
					"output":112
				},
				{
					"input":13,
					"interpolation":"STEP",
					"output":113
				},
				{
					"input":13,
					"interpolation":"LINEAR",
					"output":114
				},
				{
					"input":13,
					"interpolation":"LINEAR",
					"output":115
				},
				{
					"input":13,
					"interpolation":"STEP",
					"output":116
				},
				{
					"input":13,
					"interpolation":"LINEAR",
					"output":117
				},
				{
					"input":13,
					"interpolation":"LINEAR",
					"output":118
				},
				{
					"input":13,
					"interpolation":"STEP",
					"output":119
				},
				{
					"input":13,
					"interpolation":"LINEAR",
					"output":120
				},
				{
					"input":13,
					"interpolation":"LINEAR",
					"output":121
				},
				{
					"input":13,
					"interpolation":"STEP",
					"output":122
				},
				{
					"input":13,
					"interpolation":"LINEAR",
					"output":123
				},
				{
					"input":13,
					"interpolation":"LINEAR",
					"output":124
				},
				{
					"input":13,
					"interpolation":"STEP",
					"output":125
				},
				{
					"input":13,
					"interpolation":"LINEAR",
					"output":126
				},
				{
					"input":13,
					"interpolation":"LINEAR",
					"output":127
				},
				{
					"input":13,
					"interpolation":"STEP",
					"output":128
				},
				{
					"input":13,
					"interpolation":"LINEAR",
					"output":129
				},
				{
					"input":13,
					"interpolation":"LINEAR",
					"output":130
				},
				{
					"input":13,
					"interpolation":"STEP",
					"output":131
				},
				{
					"input":13,
					"interpolation":"LINEAR",
					"output":132
				},
				{
					"input":13,
					"interpolation":"LINEAR",
					"output":133
				},
				{
					"input":13,
					"interpolation":"STEP",
					"output":134
				},
				{
					"input":13,
					"interpolation":"LINEAR",
					"output":135
				},
				{
					"input":13,
					"interpolation":"LINEAR",
					"output":136
				},
				{
					"input":13,
					"interpolation":"STEP",
					"output":137
				},
				{
					"input":13,
					"interpolation":"LINEAR",
					"output":138
				},
				{
					"input":13,
					"interpolation":"LINEAR",
					"output":139
				},
				{
					"input":13,
					"interpolation":"STEP",
					"output":140
				},
				{
					"input":13,
					"interpolation":"STEP",
					"output":141
				},
				{
					"input":20,
					"interpolation":"LINEAR",
					"output":142
				},
				{
					"input":13,
					"interpolation":"STEP",
					"output":143
				},
				{
					"input":13,
					"interpolation":"STEP",
					"output":144
				},
				{
					"input":20,
					"interpolation":"LINEAR",
					"output":145
				},
				{
					"input":13,
					"interpolation":"STEP",
					"output":146
				},
				{
					"input":13,
					"interpolation":"STEP",
					"output":147
				},
				{
					"input":20,
					"interpolation":"LINEAR",
					"output":148
				},
				{
					"input":13,
					"interpolation":"STEP",
					"output":149
				},
				{
					"input":13,
					"interpolation":"LINEAR",
					"output":150
				},
				{
					"input":20,
					"interpolation":"LINEAR",
					"output":151
				},
				{
					"input":13,
					"interpolation":"STEP",
					"output":152
				},
				{
					"input":13,
					"interpolation":"STEP",
					"output":153
				},
				{
					"input":13,
					"interpolation":"STEP",
					"output":154
				},
				{
					"input":13,
					"interpolation":"STEP",
					"output":23
				},
				{
					"input":13,
					"interpolation":"STEP",
					"output":155
				},
				{
					"input":13,
					"interpolation":"STEP",
					"output":156
				},
				{
					"input":13,
					"interpolation":"STEP",
					"output":19
				},
				{
					"input":20,
					"interpolation":"LINEAR",
					"output":157
				},
				{
					"input":13,
					"interpolation":"STEP",
					"output":158
				},
				{
					"input":13,
					"interpolation":"STEP",
					"output":23
				}
			]
		}
	],
	"materials":[
		{
			"doubleSided":true,
			"name":"Atlas",
			"pbrMetallicRoughness":{
				"baseColorTexture":{
					"index":0
				},
				"metallicFactor":0
			}
		}
	],
	"meshes":[
		{
			"name":"Cube.074",
			"primitives":[
				{
					"attributes":{
						"POSITION":0,
						"NORMAL":1,
						"TEXCOORD_0":2,
						"JOINTS_0":3,
						"WEIGHTS_0":4
					},
					"indices":5,
					"material":0
				}
			]
		},
		{
			"name":"Cube.077",
			"primitives":[
				{
					"attributes":{
						"POSITION":7,
						"NORMAL":8,
						"TEXCOORD_0":9,
						"JOINTS_0":10,
						"WEIGHTS_0":11
					},
					"indices":12,
					"material":0
				}
			]
		}
	],
	"textures":[
		{
			"sampler":0,
			"source":0
		}
	],
	"images":[
		{
			"mimeType":"image/png",
			"name":"Atlas_Monsters",
			"uri":"Atlas_Monsters.png"
		}
	],
	"skins":[
		{
			"inverseBindMatrices":6,
			"joints":[
				48,
				0,
				44,
				39,
				38,
				37,
				8,
				7,
				3,
				2,
				1,
				6,
				5,
				4,
				22,
				21,
				20,
				11,
				10,
				9,
				14,
				13,
				12,
				17,
				16,
				15,
				19,
				18,
				36,
				35,
				34,
				25,
				24,
				23,
				28,
				27,
				26,
				31,
				30,
				29,
				33,
				32,
				41,
				40,
				43,
				42,
				45,
				46,
				47
			],
			"name":"CharacterArmature"
		}
	],
	"accessors":[
		{
			"bufferView":0,
			"componentType":5126,
			"count":3972,
			"max":[
				2.324559450149536,
				3.440014362335205,
				0.7977301478385925
			],
			"min":[
				-2.324559450149536,
				-0.003983636386692524,
				-0.7897241115570068
			],
			"type":"VEC3"
		},
		{
			"bufferView":1,
			"componentType":5126,
			"count":3972,
			"type":"VEC3"
		},
		{
			"bufferView":2,
			"componentType":5126,
			"count":3972,
			"type":"VEC2"
		},
		{
			"bufferView":3,
			"componentType":5121,
			"count":3972,
			"type":"VEC4"
		},
		{
			"bufferView":4,
			"componentType":5126,
			"count":3972,
			"type":"VEC4"
		},
		{
			"bufferView":5,
			"componentType":5123,
			"count":20046,
			"type":"SCALAR"
		},
		{
			"bufferView":6,
			"componentType":5126,
			"count":49,
			"type":"MAT4"
		},
		{
			"bufferView":7,
			"componentType":5126,
			"count":848,
			"max":[
				2.465942621231079,
				2.090275526046753,
				1.0198132991790771
			],
			"min":[
				1.6110647916793823,
				1.5656213760375977,
				-0.7789750099182129
			],
			"type":"VEC3"
		},
		{
			"bufferView":8,
			"componentType":5126,
			"count":848,
			"type":"VEC3"
		},
		{
			"bufferView":9,
			"componentType":5126,
			"count":848,
			"type":"VEC2"
		},
		{
			"bufferView":10,
			"componentType":5121,
			"count":848,
			"type":"VEC4"
		},
		{
			"bufferView":11,
			"componentType":5126,
			"count":848,
			"type":"VEC4"
		},
		{
			"bufferView":12,
			"componentType":5123,
			"count":4800,
			"type":"SCALAR"
		},
		{
			"bufferView":13,
			"componentType":5126,
			"count":2,
			"max":[
				0.5833333333333334
			],
			"min":[
				0
			],
			"type":"SCALAR"
		},
		{
			"bufferView":14,
			"componentType":5126,
			"count":2,
			"type":"VEC3"
		},
		{
			"bufferView":15,
			"componentType":5126,
			"count":2,
			"type":"VEC4"
		},
		{
			"bufferView":16,
			"componentType":5126,
			"count":2,
			"type":"VEC3"
		},
		{
			"bufferView":17,
			"componentType":5126,
			"count":2,
			"type":"VEC3"
		},
		{
			"bufferView":18,
			"componentType":5126,
			"count":2,
			"type":"VEC4"
		},
		{
			"bufferView":19,
			"componentType":5126,
			"count":2,
			"type":"VEC3"
		},
		{
			"bufferView":20,
			"componentType":5126,
			"count":15,
			"max":[
				0.5833333333333334
			],
			"min":[
				0
			],
			"type":"SCALAR"
		},
		{
			"bufferView":21,
			"componentType":5126,
			"count":15,
			"type":"VEC3"
		},
		{
			"bufferView":22,
			"componentType":5126,
			"count":15,
			"type":"VEC4"
		},
		{
			"bufferView":23,
			"componentType":5126,
			"count":2,
			"type":"VEC3"
		},
		{
			"bufferView":24,
			"componentType":5126,
			"count":2,
			"type":"VEC3"
		},
		{
			"bufferView":25,
			"componentType":5126,
			"count":2,
			"type":"VEC4"
		},
		{
			"bufferView":26,
			"componentType":5126,
			"count":2,
			"type":"VEC3"
		},
		{
			"bufferView":27,
			"componentType":5126,
			"count":2,
			"type":"VEC3"
		},
		{
			"bufferView":28,
			"componentType":5126,
			"count":15,
			"type":"VEC4"
		},
		{
			"bufferView":29,
			"componentType":5126,
			"count":2,
			"type":"VEC3"
		},
		{
			"bufferView":30,
			"componentType":5126,
			"count":2,
			"type":"VEC3"
		},
		{
			"bufferView":31,
			"componentType":5126,
			"count":15,
			"type":"VEC4"
		},
		{
			"bufferView":32,
			"componentType":5126,
			"count":2,
			"type":"VEC3"
		},
		{
			"bufferView":33,
			"componentType":5126,
			"count":2,
			"type":"VEC3"
		},
		{
			"bufferView":34,
			"componentType":5126,
			"count":2,
			"type":"VEC4"
		},
		{
			"bufferView":35,
			"componentType":5126,
			"count":2,
			"type":"VEC3"
		},
		{
			"bufferView":36,
			"componentType":5126,
			"count":2,
			"type":"VEC3"
		},
		{
			"bufferView":37,
			"componentType":5126,
			"count":15,
			"type":"VEC4"
		},
		{
			"bufferView":38,
			"componentType":5126,
			"count":2,
			"type":"VEC3"
		},
		{
			"bufferView":39,
			"componentType":5126,
			"count":2,
			"type":"VEC3"
		},
		{
			"bufferView":40,
			"componentType":5126,
			"count":2,
			"type":"VEC4"
		},
		{
			"bufferView":41,
			"componentType":5126,
			"count":2,
			"type":"VEC3"
		},
		{
			"bufferView":42,
			"componentType":5126,
			"count":2,
			"type":"VEC3"
		},
		{
			"bufferView":43,
			"componentType":5126,
			"count":15,
			"type":"VEC4"
		},
		{
			"bufferView":44,
			"componentType":5126,
			"count":2,
			"type":"VEC3"
		},
		{
			"bufferView":45,
			"componentType":5126,
			"count":2,
			"type":"VEC3"
		},
		{
			"bufferView":46,
			"componentType":5126,
			"count":15,
			"type":"VEC4"
		},
		{
			"bufferView":47,
			"componentType":5126,
			"count":2,
			"type":"VEC3"
		},
		{
			"bufferView":48,
			"componentType":5126,
			"count":2,
			"type":"VEC3"
		},
		{
			"bufferView":49,
			"componentType":5126,
			"count":2,
			"type":"VEC4"
		},
		{
			"bufferView":50,
			"componentType":5126,
			"count":2,
			"type":"VEC3"
		},
		{
			"bufferView":51,
			"componentType":5126,
			"count":2,
			"type":"VEC3"
		},
		{
			"bufferView":52,
			"componentType":5126,
			"count":15,
			"type":"VEC4"
		},
		{
			"bufferView":53,
			"componentType":5126,
			"count":2,
			"type":"VEC3"
		},
		{
			"bufferView":54,
			"componentType":5126,
			"count":2,
			"type":"VEC3"
		},
		{
			"bufferView":55,
			"componentType":5126,
			"count":15,
			"type":"VEC4"
		},
		{
			"bufferView":56,
			"componentType":5126,
			"count":2,
			"type":"VEC3"
		},
		{
			"bufferView":57,
			"componentType":5126,
			"count":2,
			"type":"VEC3"
		},
		{
			"bufferView":58,
			"componentType":5126,
			"count":2,
			"type":"VEC4"
		},
		{
			"bufferView":59,
			"componentType":5126,
			"count":2,
			"type":"VEC3"
		},
		{
			"bufferView":60,
			"componentType":5126,
			"count":2,
			"type":"VEC3"
		},
		{
			"bufferView":61,
			"componentType":5126,
			"count":15,
			"type":"VEC4"
		},
		{
			"bufferView":62,
			"componentType":5126,
			"count":2,
			"type":"VEC3"
		},
		{
			"bufferView":63,
			"componentType":5126,
			"count":2,
			"type":"VEC3"
		},
		{
			"bufferView":64,
			"componentType":5126,
			"count":15,
			"type":"VEC4"
		},
		{
			"bufferView":65,
			"componentType":5126,
			"count":2,
			"type":"VEC3"
		},
		{
			"bufferView":66,
			"componentType":5126,
			"count":2,
			"type":"VEC3"
		},
		{
			"bufferView":67,
			"componentType":5126,
			"count":2,
			"type":"VEC4"
		},
		{
			"bufferView":68,
			"componentType":5126,
			"count":2,
			"type":"VEC3"
		},
		{
			"bufferView":69,
			"componentType":5126,
			"count":2,
			"type":"VEC3"
		},
		{
			"bufferView":70,
			"componentType":5126,
			"count":2,
			"type":"VEC4"
		},
		{
			"bufferView":71,
			"componentType":5126,
			"count":2,
			"type":"VEC3"
		},
		{
			"bufferView":72,
			"componentType":5126,
			"count":2,
			"type":"VEC3"
		},
		{
			"bufferView":73,
			"componentType":5126,
			"count":2,
			"type":"VEC4"
		},
		{
			"bufferView":74,
			"componentType":5126,
			"count":2,
			"type":"VEC3"
		},
		{
			"bufferView":75,
			"componentType":5126,
			"count":2,
			"type":"VEC3"
		},
		{
			"bufferView":76,
			"componentType":5126,
			"count":2,
			"type":"VEC4"
		},
		{
			"bufferView":77,
			"componentType":5126,
			"count":2,
			"type":"VEC3"
		},
		{
			"bufferView":78,
			"componentType":5126,
			"count":2,
			"type":"VEC3"
		},
		{
			"bufferView":79,
			"componentType":5126,
			"count":2,
			"type":"VEC4"
		},
		{
			"bufferView":80,
			"componentType":5126,
			"count":2,
			"type":"VEC3"
		},
		{
			"bufferView":81,
			"componentType":5126,
			"count":2,
			"type":"VEC3"
		},
		{
			"bufferView":82,
			"componentType":5126,
			"count":2,
			"type":"VEC4"
		},
		{
			"bufferView":83,
			"componentType":5126,
			"count":2,
			"type":"VEC3"
		},
		{
			"bufferView":84,
			"componentType":5126,
			"count":2,
			"type":"VEC3"
		},
		{
			"bufferView":85,
			"componentType":5126,
			"count":2,
			"type":"VEC4"
		},
		{
			"bufferView":86,
			"componentType":5126,
			"count":2,
			"type":"VEC3"
		},
		{
			"bufferView":87,
			"componentType":5126,
			"count":2,
			"type":"VEC3"
		},
		{
			"bufferView":88,
			"componentType":5126,
			"count":2,
			"type":"VEC4"
		},
		{
			"bufferView":89,
			"componentType":5126,
			"count":2,
			"type":"VEC3"
		},
		{
			"bufferView":90,
			"componentType":5126,
			"count":2,
			"type":"VEC3"
		},
		{
			"bufferView":91,
			"componentType":5126,
			"count":2,
			"type":"VEC4"
		},
		{
			"bufferView":92,
			"componentType":5126,
			"count":2,
			"type":"VEC3"
		},
		{
			"bufferView":93,
			"componentType":5126,
			"count":2,
			"type":"VEC3"
		},
		{
			"bufferView":94,
			"componentType":5126,
			"count":2,
			"type":"VEC4"
		},
		{
			"bufferView":95,
			"componentType":5126,
			"count":2,
			"type":"VEC3"
		},
		{
			"bufferView":96,
			"componentType":5126,
			"count":2,
			"type":"VEC3"
		},
		{
			"bufferView":97,
			"componentType":5126,
			"count":2,
			"type":"VEC4"
		},
		{
			"bufferView":98,
			"componentType":5126,
			"count":2,
			"type":"VEC3"
		},
		{
			"bufferView":99,
			"componentType":5126,
			"count":2,
			"type":"VEC3"
		},
		{
			"bufferView":100,
			"componentType":5126,
			"count":2,
			"type":"VEC4"
		},
		{
			"bufferView":101,
			"componentType":5126,
			"count":2,
			"type":"VEC3"
		},
		{
			"bufferView":102,
			"componentType":5126,
			"count":2,
			"type":"VEC3"
		},
		{
			"bufferView":103,
			"componentType":5126,
			"count":15,
			"type":"VEC4"
		},
		{
			"bufferView":104,
			"componentType":5126,
			"count":2,
			"type":"VEC3"
		},
		{
			"bufferView":105,
			"componentType":5126,
			"count":2,
			"type":"VEC3"
		},
		{
			"bufferView":106,
			"componentType":5126,
			"count":15,
			"type":"VEC4"
		},
		{
			"bufferView":107,
			"componentType":5126,
			"count":2,
			"type":"VEC3"
		},
		{
			"bufferView":108,
			"componentType":5126,
			"count":2,
			"type":"VEC3"
		},
		{
			"bufferView":109,
			"componentType":5126,
			"count":2,
			"type":"VEC4"
		},
		{
			"bufferView":110,
			"componentType":5126,
			"count":2,
			"type":"VEC3"
		},
		{
			"bufferView":111,
			"componentType":5126,
			"count":2,
			"type":"VEC3"
		},
		{
			"bufferView":112,
			"componentType":5126,
			"count":2,
			"type":"VEC4"
		},
		{
			"bufferView":113,
			"componentType":5126,
			"count":2,
			"type":"VEC3"
		},
		{
			"bufferView":114,
			"componentType":5126,
			"count":2,
			"type":"VEC3"
		},
		{
			"bufferView":115,
			"componentType":5126,
			"count":2,
			"type":"VEC4"
		},
		{
			"bufferView":116,
			"componentType":5126,
			"count":2,
			"type":"VEC3"
		},
		{
			"bufferView":117,
			"componentType":5126,
			"count":2,
			"type":"VEC3"
		},
		{
			"bufferView":118,
			"componentType":5126,
			"count":2,
			"type":"VEC4"
		},
		{
			"bufferView":119,
			"componentType":5126,
			"count":2,
			"type":"VEC3"
		},
		{
			"bufferView":120,
			"componentType":5126,
			"count":2,
			"type":"VEC3"
		},
		{
			"bufferView":121,
			"componentType":5126,
			"count":2,
			"type":"VEC4"
		},
		{
			"bufferView":122,
			"componentType":5126,
			"count":2,
			"type":"VEC3"
		},
		{
			"bufferView":123,
			"componentType":5126,
			"count":2,
			"type":"VEC3"
		},
		{
			"bufferView":124,
			"componentType":5126,
			"count":2,
			"type":"VEC4"
		},
		{
			"bufferView":125,
			"componentType":5126,
			"count":2,
			"type":"VEC3"
		},
		{
			"bufferView":126,
			"componentType":5126,
			"count":2,
			"type":"VEC3"
		},
		{
			"bufferView":127,
			"componentType":5126,
			"count":2,
			"type":"VEC4"
		},
		{
			"bufferView":128,
			"componentType":5126,
			"count":2,
			"type":"VEC3"
		},
		{
			"bufferView":129,
			"componentType":5126,
			"count":2,
			"type":"VEC3"
		},
		{
			"bufferView":130,
			"componentType":5126,
			"count":2,
			"type":"VEC4"
		},
		{
			"bufferView":131,
			"componentType":5126,
			"count":2,
			"type":"VEC3"
		},
		{
			"bufferView":132,
			"componentType":5126,
			"count":2,
			"type":"VEC3"
		},
		{
			"bufferView":133,
			"componentType":5126,
			"count":2,
			"type":"VEC4"
		},
		{
			"bufferView":134,
			"componentType":5126,
			"count":2,
			"type":"VEC3"
		},
		{
			"bufferView":135,
			"componentType":5126,
			"count":2,
			"type":"VEC3"
		},
		{
			"bufferView":136,
			"componentType":5126,
			"count":2,
			"type":"VEC4"
		},
		{
			"bufferView":137,
			"componentType":5126,
			"count":2,
			"type":"VEC3"
		},
		{
			"bufferView":138,
			"componentType":5126,
			"count":2,
			"type":"VEC3"
		},
		{
			"bufferView":139,
			"componentType":5126,
			"count":2,
			"type":"VEC4"
		},
		{
			"bufferView":140,
			"componentType":5126,
			"count":2,
			"type":"VEC3"
		},
		{
			"bufferView":141,
			"componentType":5126,
			"count":2,
			"type":"VEC3"
		},
		{
			"bufferView":142,
			"componentType":5126,
			"count":15,
			"type":"VEC4"
		},
		{
			"bufferView":143,
			"componentType":5126,
			"count":2,
			"type":"VEC3"
		},
		{
			"bufferView":144,
			"componentType":5126,
			"count":2,
			"type":"VEC3"
		},
		{
			"bufferView":145,
			"componentType":5126,
			"count":15,
			"type":"VEC4"
		},
		{
			"bufferView":146,
			"componentType":5126,
			"count":2,
			"type":"VEC3"
		},
		{
			"bufferView":147,
			"componentType":5126,
			"count":2,
			"type":"VEC3"
		},
		{
			"bufferView":148,
			"componentType":5126,
			"count":15,
			"type":"VEC4"
		},
		{
			"bufferView":149,
			"componentType":5126,
			"count":2,
			"type":"VEC3"
		},
		{
			"bufferView":150,
			"componentType":5126,
			"count":2,
			"type":"VEC3"
		},
		{
			"bufferView":151,
			"componentType":5126,
			"count":15,
			"type":"VEC4"
		},
		{
			"bufferView":152,
			"componentType":5126,
			"count":2,
			"type":"VEC3"
		},
		{
			"bufferView":153,
			"componentType":5126,
			"count":2,
			"type":"VEC3"
		},
		{
			"bufferView":154,
			"componentType":5126,
			"count":2,
			"type":"VEC4"
		},
		{
			"bufferView":155,
			"componentType":5126,
			"count":2,
			"type":"VEC3"
		},
		{
			"bufferView":156,
			"componentType":5126,
			"count":2,
			"type":"VEC4"
		},
		{
			"bufferView":157,
			"componentType":5126,
			"count":15,
			"type":"VEC3"
		},
		{
			"bufferView":158,
			"componentType":5126,
			"count":2,
			"type":"VEC4"
		}
	],
	"bufferViews":[
		{
			"buffer":0,
			"byteLength":47664,
			"byteOffset":0,
			"target":34962
		},
		{
			"buffer":0,
			"byteLength":47664,
			"byteOffset":47664,
			"target":34962
		},
		{
			"buffer":0,
			"byteLength":31776,
			"byteOffset":95328,
			"target":34962
		},
		{
			"buffer":0,
			"byteLength":15888,
			"byteOffset":127104,
			"target":34962
		},
		{
			"buffer":0,
			"byteLength":63552,
			"byteOffset":142992,
			"target":34962
		},
		{
			"buffer":0,
			"byteLength":40092,
			"byteOffset":206544,
			"target":34963
		},
		{
			"buffer":0,
			"byteLength":3136,
			"byteOffset":246636
		},
		{
			"buffer":0,
			"byteLength":10176,
			"byteOffset":249772,
			"target":34962
		},
		{
			"buffer":0,
			"byteLength":10176,
			"byteOffset":259948,
			"target":34962
		},
		{
			"buffer":0,
			"byteLength":6784,
			"byteOffset":270124,
			"target":34962
		},
		{
			"buffer":0,
			"byteLength":3392,
			"byteOffset":276908,
			"target":34962
		},
		{
			"buffer":0,
			"byteLength":13568,
			"byteOffset":280300,
			"target":34962
		},
		{
			"buffer":0,
			"byteLength":9600,
			"byteOffset":293868,
			"target":34963
		},
		{
			"buffer":0,
			"byteLength":8,
			"byteOffset":303468
		},
		{
			"buffer":0,
			"byteLength":24,
			"byteOffset":303476
		},
		{
			"buffer":0,
			"byteLength":32,
			"byteOffset":303500
		},
		{
			"buffer":0,
			"byteLength":24,
			"byteOffset":303532
		},
		{
			"buffer":0,
			"byteLength":24,
			"byteOffset":303556
		},
		{
			"buffer":0,
			"byteLength":32,
			"byteOffset":303580
		},
		{
			"buffer":0,
			"byteLength":24,
			"byteOffset":303612
		},
		{
			"buffer":0,
			"byteLength":60,
			"byteOffset":303636
		},
		{
			"buffer":0,
			"byteLength":180,
			"byteOffset":303696
		},
		{
			"buffer":0,
			"byteLength":240,
			"byteOffset":303876
		},
		{
			"buffer":0,
			"byteLength":24,
			"byteOffset":304116
		},
		{
			"buffer":0,
			"byteLength":24,
			"byteOffset":304140
		},
		{
			"buffer":0,
			"byteLength":32,
			"byteOffset":304164
		},
		{
			"buffer":0,
			"byteLength":24,
			"byteOffset":304196
		},
		{
			"buffer":0,
			"byteLength":24,
			"byteOffset":304220
		},
		{
			"buffer":0,
			"byteLength":240,
			"byteOffset":304244
		},
		{
			"buffer":0,
			"byteLength":24,
			"byteOffset":304484
		},
		{
			"buffer":0,
			"byteLength":24,
			"byteOffset":304508
		},
		{
			"buffer":0,
			"byteLength":240,
			"byteOffset":304532
		},
		{
			"buffer":0,
			"byteLength":24,
			"byteOffset":304772
		},
		{
			"buffer":0,
			"byteLength":24,
			"byteOffset":304796
		},
		{
			"buffer":0,
			"byteLength":32,
			"byteOffset":304820
		},
		{
			"buffer":0,
			"byteLength":24,
			"byteOffset":304852
		},
		{
			"buffer":0,
			"byteLength":24,
			"byteOffset":304876
		},
		{
			"buffer":0,
			"byteLength":240,
			"byteOffset":304900
		},
		{
			"buffer":0,
			"byteLength":24,
			"byteOffset":305140
		},
		{
			"buffer":0,
			"byteLength":24,
			"byteOffset":305164
		},
		{
			"buffer":0,
			"byteLength":32,
			"byteOffset":305188
		},
		{
			"buffer":0,
			"byteLength":24,
			"byteOffset":305220
		},
		{
			"buffer":0,
			"byteLength":24,
			"byteOffset":305244
		},
		{
			"buffer":0,
			"byteLength":240,
			"byteOffset":305268
		},
		{
			"buffer":0,
			"byteLength":24,
			"byteOffset":305508
		},
		{
			"buffer":0,
			"byteLength":24,
			"byteOffset":305532
		},
		{
			"buffer":0,
			"byteLength":240,
			"byteOffset":305556
		},
		{
			"buffer":0,
			"byteLength":24,
			"byteOffset":305796
		},
		{
			"buffer":0,
			"byteLength":24,
			"byteOffset":305820
		},
		{
			"buffer":0,
			"byteLength":32,
			"byteOffset":305844
		},
		{
			"buffer":0,
			"byteLength":24,
			"byteOffset":305876
		},
		{
			"buffer":0,
			"byteLength":24,
			"byteOffset":305900
		},
		{
			"buffer":0,
			"byteLength":240,
			"byteOffset":305924
		},
		{
			"buffer":0,
			"byteLength":24,
			"byteOffset":306164
		},
		{
			"buffer":0,
			"byteLength":24,
			"byteOffset":306188
		},
		{
			"buffer":0,
			"byteLength":240,
			"byteOffset":306212
		},
		{
			"buffer":0,
			"byteLength":24,
			"byteOffset":306452
		},
		{
			"buffer":0,
			"byteLength":24,
			"byteOffset":306476
		},
		{
			"buffer":0,
			"byteLength":32,
			"byteOffset":306500
		},
		{
			"buffer":0,
			"byteLength":24,
			"byteOffset":306532
		},
		{
			"buffer":0,
			"byteLength":24,
			"byteOffset":306556
		},
		{
			"buffer":0,
			"byteLength":240,
			"byteOffset":306580
		},
		{
			"buffer":0,
			"byteLength":24,
			"byteOffset":306820
		},
		{
			"buffer":0,
			"byteLength":24,
			"byteOffset":306844
		},
		{
			"buffer":0,
			"byteLength":240,
			"byteOffset":306868
		},
		{
			"buffer":0,
			"byteLength":24,
			"byteOffset":307108
		},
		{
			"buffer":0,
			"byteLength":24,
			"byteOffset":307132
		},
		{
			"buffer":0,
			"byteLength":32,
			"byteOffset":307156
		},
		{
			"buffer":0,
			"byteLength":24,
			"byteOffset":307188
		},
		{
			"buffer":0,
			"byteLength":24,
			"byteOffset":307212
		},
		{
			"buffer":0,
			"byteLength":32,
			"byteOffset":307236
		},
		{
			"buffer":0,
			"byteLength":24,
			"byteOffset":307268
		},
		{
			"buffer":0,
			"byteLength":24,
			"byteOffset":307292
		},
		{
			"buffer":0,
			"byteLength":32,
			"byteOffset":307316
		},
		{
			"buffer":0,
			"byteLength":24,
			"byteOffset":307348
		},
		{
			"buffer":0,
			"byteLength":24,
			"byteOffset":307372
		},
		{
			"buffer":0,
			"byteLength":32,
			"byteOffset":307396
		},
		{
			"buffer":0,
			"byteLength":24,
			"byteOffset":307428
		},
		{
			"buffer":0,
			"byteLength":24,
			"byteOffset":307452
		},
		{
			"buffer":0,
			"byteLength":32,
			"byteOffset":307476
		},
		{
			"buffer":0,
			"byteLength":24,
			"byteOffset":307508
		},
		{
			"buffer":0,
			"byteLength":24,
			"byteOffset":307532
		},
		{
			"buffer":0,
			"byteLength":32,
			"byteOffset":307556
		},
		{
			"buffer":0,
			"byteLength":24,
			"byteOffset":307588
		},
		{
			"buffer":0,
			"byteLength":24,
			"byteOffset":307612
		},
		{
			"buffer":0,
			"byteLength":32,
			"byteOffset":307636
		},
		{
			"buffer":0,
			"byteLength":24,
			"byteOffset":307668
		},
		{
			"buffer":0,
			"byteLength":24,
			"byteOffset":307692
		},
		{
			"buffer":0,
			"byteLength":32,
			"byteOffset":307716
		},
		{
			"buffer":0,
			"byteLength":24,
			"byteOffset":307748
		},
		{
			"buffer":0,
			"byteLength":24,
			"byteOffset":307772
		},
		{
			"buffer":0,
			"byteLength":32,
			"byteOffset":307796
		},
		{
			"buffer":0,
			"byteLength":24,
			"byteOffset":307828
		},
		{
			"buffer":0,
			"byteLength":24,
			"byteOffset":307852
		},
		{
			"buffer":0,
			"byteLength":32,
			"byteOffset":307876
		},
		{
			"buffer":0,
			"byteLength":24,
			"byteOffset":307908
		},
		{
			"buffer":0,
			"byteLength":24,
			"byteOffset":307932
		},
		{
			"buffer":0,
			"byteLength":32,
			"byteOffset":307956
		},
		{
			"buffer":0,
			"byteLength":24,
			"byteOffset":307988
		},
		{
			"buffer":0,
			"byteLength":24,
			"byteOffset":308012
		},
		{
			"buffer":0,
			"byteLength":32,
			"byteOffset":308036
		},
		{
			"buffer":0,
			"byteLength":24,
			"byteOffset":308068
		},
		{
			"buffer":0,
			"byteLength":24,
			"byteOffset":308092
		},
		{
			"buffer":0,
			"byteLength":240,
			"byteOffset":308116
		},
		{
			"buffer":0,
			"byteLength":24,
			"byteOffset":308356
		},
		{
			"buffer":0,
			"byteLength":24,
			"byteOffset":308380
		},
		{
			"buffer":0,
			"byteLength":240,
			"byteOffset":308404
		},
		{
			"buffer":0,
			"byteLength":24,
			"byteOffset":308644
		},
		{
			"buffer":0,
			"byteLength":24,
			"byteOffset":308668
		},
		{
			"buffer":0,
			"byteLength":32,
			"byteOffset":308692
		},
		{
			"buffer":0,
			"byteLength":24,
			"byteOffset":308724
		},
		{
			"buffer":0,
			"byteLength":24,
			"byteOffset":308748
		},
		{
			"buffer":0,
			"byteLength":32,
			"byteOffset":308772
		},
		{
			"buffer":0,
			"byteLength":24,
			"byteOffset":308804
		},
		{
			"buffer":0,
			"byteLength":24,
			"byteOffset":308828
		},
		{
			"buffer":0,
			"byteLength":32,
			"byteOffset":308852
		},
		{
			"buffer":0,
			"byteLength":24,
			"byteOffset":308884
		},
		{
			"buffer":0,
			"byteLength":24,
			"byteOffset":308908
		},
		{
			"buffer":0,
			"byteLength":32,
			"byteOffset":308932
		},
		{
			"buffer":0,
			"byteLength":24,
			"byteOffset":308964
		},
		{
			"buffer":0,
			"byteLength":24,
			"byteOffset":308988
		},
		{
			"buffer":0,
			"byteLength":32,
			"byteOffset":309012
		},
		{
			"buffer":0,
			"byteLength":24,
			"byteOffset":309044
		},
		{
			"buffer":0,
			"byteLength":24,
			"byteOffset":309068
		},
		{
			"buffer":0,
			"byteLength":32,
			"byteOffset":309092
		},
		{
			"buffer":0,
			"byteLength":24,
			"byteOffset":309124
		},
		{
			"buffer":0,
			"byteLength":24,
			"byteOffset":309148
		},
		{
			"buffer":0,
			"byteLength":32,
			"byteOffset":309172
		},
		{
			"buffer":0,
			"byteLength":24,
			"byteOffset":309204
		},
		{
			"buffer":0,
			"byteLength":24,
			"byteOffset":309228
		},
		{
			"buffer":0,
			"byteLength":32,
			"byteOffset":309252
		},
		{
			"buffer":0,
			"byteLength":24,
			"byteOffset":309284
		},
		{
			"buffer":0,
			"byteLength":24,
			"byteOffset":309308
		},
		{
			"buffer":0,
			"byteLength":32,
			"byteOffset":309332
		},
		{
			"buffer":0,
			"byteLength":24,
			"byteOffset":309364
		},
		{
			"buffer":0,
			"byteLength":24,
			"byteOffset":309388
		},
		{
			"buffer":0,
			"byteLength":32,
			"byteOffset":309412
		},
		{
			"buffer":0,
			"byteLength":24,
			"byteOffset":309444
		},
		{
			"buffer":0,
			"byteLength":24,
			"byteOffset":309468
		},
		{
			"buffer":0,
			"byteLength":32,
			"byteOffset":309492
		},
		{
			"buffer":0,
			"byteLength":24,
			"byteOffset":309524
		},
		{
			"buffer":0,
			"byteLength":24,
			"byteOffset":309548
		},
		{
			"buffer":0,
			"byteLength":240,
			"byteOffset":309572
		},
		{
			"buffer":0,
			"byteLength":24,
			"byteOffset":309812
		},
		{
			"buffer":0,
			"byteLength":24,
			"byteOffset":309836
		},
		{
			"buffer":0,
			"byteLength":240,
			"byteOffset":309860
		},
		{
			"buffer":0,
			"byteLength":24,
			"byteOffset":310100
		},
		{
			"buffer":0,
			"byteLength":24,
			"byteOffset":310124
		},
		{
			"buffer":0,
			"byteLength":240,
			"byteOffset":310148
		},
		{
			"buffer":0,
			"byteLength":24,
			"byteOffset":310388
		},
		{
			"buffer":0,
			"byteLength":24,
			"byteOffset":310412
		},
		{
			"buffer":0,
			"byteLength":240,
			"byteOffset":310436
		},
		{
			"buffer":0,
			"byteLength":24,
			"byteOffset":310676
		},
		{
			"buffer":0,
			"byteLength":24,
			"byteOffset":310700
		},
		{
			"buffer":0,
			"byteLength":32,
			"byteOffset":310724
		},
		{
			"buffer":0,
			"byteLength":24,
			"byteOffset":310756
		},
		{
			"buffer":0,
			"byteLength":32,
			"byteOffset":310780
		},
		{
			"buffer":0,
			"byteLength":180,
			"byteOffset":310812
		},
		{
			"buffer":0,
			"byteLength":32,
			"byteOffset":310992
		}
	],
	"samplers":[
		{
			"magFilter":9729,
			"minFilter":9987
		}
	],
	"buffers":[
		{
			"byteLength":311024,
			"uri":"bossHitReact.bin"
		}
	]
}
