# Blender 4.4.0
# www.blender.org
mtllib tallBuilding_02_bottom.mtl
o Untitled
v -1.100000 -0.000000 -1.700000
v 1.100000 -0.000000 -1.700000
v -1.100000 0.100000 -1.700000
v 1.100000 0.100000 -1.700000
v -1.200000 -0.000000 -1.500000
v -1.100000 -0.000000 -1.500000
v 1.100000 -0.000000 -1.500000
v 1.200000 -0.000000 -1.500000
v -1.200000 0.100000 -1.500000
v -1.100000 0.100000 -1.500000
v 1.100000 0.100000 -1.500000
v 1.200000 0.100000 -1.500000
v 0.400000 0.600000 -1.500000
v 0.700000 0.600000 -1.500000
v 0.400000 0.800000 -1.500000
v 0.700000 0.800000 -1.500000
v 1.200000 0.800000 -1.500000
v -1.000000 1.200000 -1.500000
v -0.900000 1.200000 -1.500000
v -0.400000 1.200000 -1.500000
v -0.300000 1.200000 -1.500000
v 0.300000 1.200000 -1.500000
v 0.400000 1.200000 -1.500000
v 0.700000 1.200000 -1.500000
v 0.900000 1.200000 -1.500000
v 1.000000 1.200000 -1.500000
v 1.200000 1.200000 -1.500000
v -1.000000 1.800000 -1.500000
v -0.900000 1.800000 -1.500000
v -0.400000 1.800000 -1.500000
v -0.300000 1.800000 -1.500000
v 0.300000 1.800000 -1.500000
v 0.400000 1.800000 -1.500000
v 0.900000 1.800000 -1.500000
v 1.000000 1.800000 -1.500000
v 1.200000 1.800000 -1.500000
v 1.200000 1.900000 -1.500000
v -1.400000 -0.000000 -1.400000
v -1.200000 -0.000000 -1.400000
v 1.200000 -0.000000 -1.400000
v 1.400000 -0.000000 -1.400000
v -1.400000 0.100000 -1.400000
v -1.200000 0.100000 -1.400000
v -1.100000 0.100000 -1.400000
v 1.100000 0.100000 -1.400000
v 1.200000 0.100000 -1.400000
v 1.400000 0.100000 -1.400000
v 0.400000 0.600000 -1.400000
v 0.700000 0.600000 -1.400000
v 1.100000 0.800000 -1.400000
v 0.400000 0.800000 -1.400000
v 0.700000 0.800000 -1.400000
v -1.000000 1.200000 -1.400000
v -0.900000 1.200000 -1.400000
v -0.400000 1.200000 -1.400000
v -0.300000 1.200000 -1.400000
v 0.300000 1.200000 -1.400000
v 0.400000 1.200000 -1.400000
v 0.700000 1.200000 -1.400000
v 0.900000 1.200000 -1.400000
v 1.000000 1.200000 -1.400000
v 1.100000 1.200000 -1.400000
v 0.400000 1.800000 -1.400000
v -1.000000 1.800000 -1.400000
v -0.900000 1.800000 -1.400000
v -0.400000 1.800000 -1.400000
v -0.300000 1.800000 -1.400000
v 0.300000 1.800000 -1.400000
v 0.900000 1.800000 -1.400000
v 1.000000 1.800000 -1.400000
v 1.100000 1.800000 -1.400000
v 1.100000 1.900000 -1.400000
v -1.200000 1.200000 -1.300000
v -1.100000 1.200000 -1.300000
v 1.100000 1.200000 -1.300000
v 1.200000 1.200000 -1.300000
v 1.100000 1.800000 -1.300000
v 1.200000 1.800000 -1.300000
v -1.200000 1.200000 -0.800000
v -1.100000 1.200000 -0.800000
v 1.100000 3.100000 -0.800000
v 1.200000 3.100000 -0.800000
v -1.400000 0.400000 -0.700000
v -1.100000 0.400000 -0.700000
v -1.200000 0.500000 -0.700000
v -1.100000 0.500000 -0.700000
v -1.200000 0.700000 -0.700000
v -1.100000 0.700000 -0.700000
v -1.400000 0.800000 -0.700000
v -1.300000 0.800000 -0.700000
v -1.200000 0.800000 -0.700000
v -1.100000 0.800000 -0.700000
v 1.100000 1.200000 -0.700000
v 1.200000 1.200000 -0.700000
v 1.100000 1.800000 -0.700000
v 1.200000 1.800000 -0.700000
v -1.000000 0.400000 -0.600000
v -0.900000 0.400000 -0.600000
v -1.400000 0.500000 -0.500000
v -1.300000 0.500000 -0.500000
v -1.400000 0.700000 -0.500000
v -1.300000 0.700000 -0.500000
v -1.200000 0.400000 -0.400000
v -1.100000 0.400000 -0.400000
v -1.200000 0.500000 -0.400000
v -1.100000 0.500000 -0.400000
v -1.400000 0.500000 -0.200000
v -1.300000 0.500000 -0.200000
v -1.400000 0.700000 -0.200000
v -1.300000 0.700000 -0.200000
v -1.100000 0.500000 -0.100000
v -0.900000 0.500000 -0.100000
v -1.000000 0.600000 -0.100000
v -0.900000 0.600000 -0.100000
v -1.000000 0.700000 -0.100000
v -0.900000 0.700000 -0.100000
v -1.000000 0.800000 -0.100000
v -0.900000 0.800000 -0.100000
v -1.000000 0.900000 -0.100000
v -0.900000 0.900000 -0.100000
v -1.000000 1.000000 -0.100000
v -0.900000 1.000000 -0.100000
v -1.000000 1.100000 -0.100000
v -0.900000 1.100000 -0.100000
v -1.000000 1.250000 -0.100000
v -0.900000 1.200000 -0.100000
v -0.900000 1.300000 -0.100000
v -1.000000 1.400000 -0.100000
v -0.900000 1.400000 -0.100000
v -1.000000 1.500000 -0.100000
v -0.900000 1.500000 -0.100000
v -0.900000 1.600000 -0.100000
v -1.300000 0.400000 -0.000000
v -1.100000 0.400000 -0.000000
v -1.400000 0.500000 -0.000000
v -1.250000 0.500000 -0.000000
v -1.100000 0.500000 -0.000000
v -1.400000 0.700000 -0.000000
v -1.250000 0.700000 -0.000000
v -1.100000 0.700000 -0.000000
v -1.300000 0.800000 -0.000000
v -1.200000 0.800000 -0.000000
v -1.100000 0.800000 -0.000000
v 1.100000 1.200000 -0.000000
v 1.200000 1.200000 -0.000000
v 1.100000 1.800000 -0.000000
v 1.200000 1.800000 -0.000000
v 1.100000 1.100000 0.100000
v 1.200000 1.100000 0.100000
v -1.200000 1.200000 0.100000
v -1.100000 1.200000 0.100000
v 1.100000 1.200000 0.100000
v 1.200000 1.200000 0.100000
v 1.100000 0.600000 0.300000
v 1.200000 0.600000 0.300000
v 1.100000 1.000000 0.300000
v 1.200000 1.000000 0.300000
v 0.800000 0.600000 0.400000
v 1.000000 0.600000 0.400000
v 0.800000 1.000000 0.400000
v 1.000000 1.000000 0.400000
v -0.300000 0.100000 0.600000
v 0.300000 0.100000 0.600000
v -0.200000 0.300000 0.600000
v -0.100000 0.300000 0.600000
v 0.100000 0.300000 0.600000
v 0.200000 0.300000 0.600000
v -0.200000 0.700000 0.600000
v -0.100000 0.700000 0.600000
v 0.100000 0.700000 0.600000
v 0.200000 0.700000 0.600000
v -0.200000 0.800000 0.600000
v -0.100000 0.800000 0.600000
v 0.100000 0.800000 0.600000
v 0.200000 0.800000 0.600000
v -1.200000 1.200000 0.600000
v -1.100000 1.200000 0.600000
v -0.200000 1.250000 0.600000
v -0.100000 1.200000 0.600000
v 0.100000 1.200000 0.600000
v 0.200000 1.250000 0.600000
v 1.100000 1.200000 0.600000
v 1.200000 1.200000 0.600000
v -0.100000 1.300000 0.600000
v 0.100000 1.300000 0.600000
v -0.200000 1.750000 0.600000
v -0.100000 1.700000 0.600000
v 0.100000 1.700000 0.600000
v 0.200000 1.750000 0.600000
v -0.100000 1.800000 0.600000
v 0.100000 1.800000 0.600000
v 1.100000 1.800000 0.600000
v 1.200000 1.800000 0.600000
v -1.000000 0.000000 0.700000
v 1.000000 0.000000 0.700000
v -0.300000 0.100000 0.700000
v 0.300000 0.100000 0.700000
v 0.800000 0.600000 0.700000
v 1.000000 0.600000 0.700000
v 0.800000 1.000000 0.700000
v 1.000000 1.000000 0.700000
v -1.000000 -0.000000 -1.300000
v 1.000000 -0.000000 -1.300000
v 0.700000 0.900000 -1.300000
v 1.000000 0.900000 -1.300000
v 0.700000 1.000000 -1.300000
v 0.800000 1.000000 -1.300000
v 0.800000 1.300000 -1.300000
v 1.000000 1.300000 -1.300000
v -1.200000 1.200000 -1.200000
v -1.100000 1.200000 -1.200000
v 1.100000 1.200000 -1.200000
v 1.200000 1.200000 -1.200000
v 1.100000 1.800000 -1.200000
v 1.200000 1.800000 -1.200000
v 1.100000 0.800000 -1.100000
v 1.200000 0.800000 -1.100000
v 0.700000 0.900000 -1.100000
v 1.000000 0.900000 -1.100000
v 0.700000 1.000000 -1.100000
v 0.800000 1.000000 -1.100000
v 1.100000 1.200000 -1.100000
v 1.200000 1.200000 -1.100000
v 0.800000 1.300000 -1.100000
v 1.000000 1.300000 -1.100000
v -1.200000 1.300000 -0.700000
v -1.100000 1.300000 -0.700000
v -1.300000 0.400000 -0.600000
v -1.100000 0.400000 -0.600000
v -1.400000 0.500000 -0.600000
v -1.250000 0.500000 -0.600000
v -1.100000 0.500000 -0.600000
v -1.400000 0.700000 -0.600000
v -1.250000 0.700000 -0.600000
v -1.100000 0.700000 -0.600000
v -1.300000 0.800000 -0.600000
v -1.200000 0.800000 -0.600000
v -1.100000 0.800000 -0.600000
v -1.200000 1.250000 -0.600000
v -1.100000 1.250000 -0.600000
v 1.100000 1.200000 -0.600000
v 1.200000 1.200000 -0.600000
v 1.100000 1.800000 -0.600000
v 1.200000 1.800000 -0.600000
v -1.100000 0.500000 -0.500000
v -0.900000 0.500000 -0.500000
v -1.000000 0.600000 -0.500000
v -0.900000 0.600000 -0.500000
v -1.000000 0.700000 -0.500000
v -0.900000 0.700000 -0.500000
v -1.000000 0.800000 -0.500000
v -0.900000 0.800000 -0.500000
v -1.000000 0.900000 -0.500000
v -0.900000 0.900000 -0.500000
v -1.000000 1.000000 -0.500000
v -0.900000 1.000000 -0.500000
v -1.000000 1.100000 -0.500000
v -0.900000 1.100000 -0.500000
v -1.000000 1.250000 -0.500000
v -0.900000 1.200000 -0.500000
v -0.900000 1.300000 -0.500000
v -1.000000 1.400000 -0.500000
v -0.900000 1.400000 -0.500000
v -1.000000 1.500000 -0.500000
v -0.900000 1.500000 -0.500000
v -1.000000 1.600000 -0.500000
v -0.900000 1.600000 -0.500000
v 1.200000 3.100000 -0.500000
v -1.400000 0.500000 -0.400000
v -1.300000 0.500000 -0.400000
v -1.400000 0.700000 -0.400000
v -1.300000 0.700000 -0.400000
v -1.200000 0.400000 -0.200000
v -1.100000 0.400000 -0.200000
v -1.200000 0.500000 -0.200000
v -1.100000 0.500000 -0.200000
v -1.400000 0.500000 -0.100000
v -1.300000 0.500000 -0.100000
v -1.400000 0.700000 -0.100000
v -1.300000 0.700000 -0.100000
v -1.000000 0.400000 -0.000000
v -0.900000 0.400000 -0.000000
v -1.400000 0.400000 0.100000
v -1.100000 0.400000 0.100000
v -1.200000 0.500000 0.100000
v -1.100000 0.500000 0.100000
v -1.200000 0.700000 0.100000
v -1.100000 0.700000 0.100000
v -1.400000 0.800000 0.100000
v -1.300000 0.800000 0.100000
v -1.200000 0.800000 0.100000
v -1.100000 0.800000 0.100000
v 1.100000 1.300000 0.100000
v 1.200000 1.300000 0.100000
v 1.100000 1.800000 0.100000
v 1.200000 1.800000 0.100000
v -1.200000 1.200000 0.200000
v -1.100000 1.200000 0.200000
v 1.100000 1.100000 0.400000
v 1.200000 1.100000 0.400000
v 1.100000 1.300000 0.400000
v 1.200000 1.300000 0.400000
v -0.300000 0.100000 0.700000
v 0.300000 0.100000 0.700000
v -0.200000 0.300000 0.700000
v -0.100000 0.300000 0.700000
v 0.100000 0.300000 0.700000
v 0.200000 0.300000 0.700000
v -0.200000 0.700000 0.700000
v -0.100000 0.700000 0.700000
v 0.100000 0.700000 0.700000
v 0.200000 0.700000 0.700000
v -0.200000 0.800000 0.700000
v -0.100000 0.800000 0.700000
v 0.100000 0.800000 0.700000
v 0.200000 0.800000 0.700000
v -1.200000 1.200000 0.700000
v -1.100000 1.200000 0.700000
v -0.200000 1.250000 0.700000
v -0.100000 1.200000 0.700000
v 0.100000 1.200000 0.700000
v 0.200000 1.200000 0.700000
v 0.300000 1.200000 0.700000
v 1.100000 1.200000 0.700000
v 1.200000 1.200000 0.700000
v -0.100000 1.300000 0.700000
v 0.100000 1.300000 0.700000
v 0.200000 1.300000 0.700000
v -0.200000 1.700000 0.700000
v -0.100000 1.700000 0.700000
v 0.100000 1.700000 0.700000
v 0.200000 1.750000 0.700000
v 1.100000 1.800000 0.700000
v -0.300000 1.800000 0.700000
v -0.200000 1.800000 0.700000
v -0.100000 1.800000 0.700000
v 0.100000 1.800000 0.700000
v 1.200000 1.800000 0.700000
v -1.400000 0.000000 0.800000
v -1.200000 0.000000 0.800000
v 1.200000 0.000000 0.800000
v 1.400000 0.000000 0.800000
v -1.400000 0.100000 0.800000
v -1.200000 0.100000 0.800000
v -1.100000 0.100000 0.800000
v -0.300000 0.100000 0.800000
v 0.300000 0.100000 0.800000
v 1.100000 0.100000 0.800000
v 1.200000 0.100000 0.800000
v 1.400000 0.100000 0.800000
v 0.800000 0.600000 0.800000
v 1.100000 0.600000 0.800000
v -1.000000 1.200000 0.800000
v 0.800000 1.000000 0.800000
v 1.100000 1.000000 0.800000
v 0.900000 1.200000 0.800000
v 1.000000 1.200000 0.800000
v -0.900000 1.200000 0.800000
v -0.500000 1.200000 0.800000
v -0.400000 1.200000 0.800000
v -0.300000 1.800000 0.800000
v 0.400000 1.200000 0.800000
v 0.500000 1.200000 0.800000
v 0.500000 1.800000 0.800000
v 0.900000 1.800000 0.800000
v 1.000000 1.800000 0.800000
v 1.100000 1.800000 0.800000
v 0.300000 1.800000 0.800000
v 0.400000 1.800000 0.800000
v 0.300000 1.900000 0.800000
v 1.100000 1.900000 0.800000
v -1.200000 0.000000 0.900000
v -1.100000 0.000000 0.900000
v 1.100000 0.000000 0.900000
v 1.200000 0.000000 0.900000
v -1.200000 0.100000 0.900000
v -1.100000 0.100000 0.900000
v 1.100000 0.100000 0.900000
v 1.200000 0.100000 0.900000
v 0.800000 0.600000 0.900000
v 1.200000 0.600000 0.900000
v 0.800000 1.000000 0.900000
v 1.200000 1.000000 0.900000
v -1.000000 1.200000 0.900000
v -0.900000 1.200000 0.900000
v -0.500000 1.200000 0.900000
v -0.400000 1.200000 0.900000
v 0.400000 1.200000 0.900000
v 0.500000 1.200000 0.900000
v 0.900000 1.200000 0.900000
v 1.000000 1.200000 0.900000
v 0.300000 1.800000 0.900000
v 0.400000 1.800000 0.900000
v 0.500000 1.800000 0.900000
v 0.900000 1.800000 0.900000
v 1.000000 1.800000 0.900000
v 1.200000 1.800000 0.900000
v 0.300000 1.900000 0.900000
v 1.200000 1.900000 0.900000
v -1.100000 0.000000 1.100000
v -0.400000 0.000000 1.100000
v 0.400000 0.000000 1.100000
v 1.100000 0.000000 1.100000
v -1.100000 0.100000 1.100000
v -0.400000 0.100000 1.100000
v 0.400000 0.100000 1.100000
v 1.100000 0.100000 1.100000
v -0.400000 0.000000 1.600000
v -0.300000 0.000000 1.600000
v 0.300000 0.000000 1.600000
v 0.400000 0.000000 1.600000
v -0.400000 0.100000 1.600000
v -0.300000 0.100000 1.600000
v 0.300000 0.100000 1.600000
v 0.400000 0.100000 1.600000
v -0.300000 0.000000 1.700000
v 0.300000 0.000000 1.700000
v -0.300000 0.100000 1.700000
v 0.300000 0.100000 1.700000
v -1.400000 -0.000000 -1.400000
v -1.400000 0.100000 -1.400000
v -1.400000 0.400000 -0.700000
v -1.400000 0.800000 -0.700000
v -1.400000 0.500000 -0.600000
v -1.400000 0.700000 -0.600000
v -1.400000 0.500000 -0.500000
v -1.400000 0.700000 -0.500000
v -1.400000 0.500000 -0.400000
v -1.400000 0.700000 -0.400000
v -1.400000 0.500000 -0.200000
v -1.400000 0.700000 -0.200000
v -1.400000 0.500000 -0.100000
v -1.400000 0.700000 -0.100000
v -1.400000 0.500000 -0.000000
v -1.400000 0.700000 -0.000000
v -1.400000 0.400000 0.100000
v -1.400000 0.800000 0.100000
v -1.400000 0.000000 0.800000
v -1.400000 0.100000 0.800000
v -1.300000 0.800000 -0.700000
v -1.300000 0.800000 -0.600000
v -1.300000 0.800000 0.050000
v -1.200000 -0.000000 -1.500000
v -1.200000 0.100000 -1.500000
v -1.200000 -0.000000 -1.400000
v -1.200000 0.100000 -1.400000
v -1.200000 1.200000 -1.300000
v -1.200000 1.200000 -1.200000
v -1.200000 1.200000 -0.800000
v -1.200000 1.200000 -0.700000
v -1.200000 0.400000 -0.400000
v -1.200000 0.500000 -0.400000
v -1.200000 0.400000 -0.200000
v -1.200000 0.500000 -0.200000
v -1.200000 1.200000 0.100000
v -1.200000 1.200000 0.200000
v -1.200000 1.200000 0.600000
v -1.200000 1.200000 0.700000
v -1.200000 0.000000 0.800000
v -1.200000 0.100000 0.800000
v -1.200000 0.000000 0.900000
v -1.200000 0.100000 0.900000
v -1.100000 -0.000000 -1.700000
v -1.100000 0.100000 -1.700000
v -1.100000 -0.000000 -1.500000
v -1.100000 0.100000 -1.500000
v -1.100000 0.100000 -1.400000
v -1.100000 1.200000 -1.300000
v -1.100000 1.200000 -1.200000
v -1.100000 1.200000 -0.800000
v -1.100000 0.400000 -0.700000
v -1.100000 0.500000 -0.700000
v -1.100000 0.700000 -0.700000
v -1.100000 0.800000 -0.700000
v -1.100000 1.200000 -0.600000
v -1.100000 1.300000 -0.700000
v -1.100000 0.400000 -0.600000
v -1.100000 0.500000 -0.600000
v -1.100000 0.700000 -0.600000
v -1.100000 0.800000 -0.600000
v -1.100000 1.300000 -0.600000
v -1.100000 0.400000 -0.500000
v -1.100000 0.500000 -0.500000
v -1.100000 0.400000 -0.400000
v -1.100000 0.500000 -0.400000
v -1.100000 0.400000 -0.200000
v -1.100000 0.500000 -0.200000
v -1.100000 0.400000 -0.000000
v -1.100000 0.500000 -0.100000
v -1.100000 0.500000 -0.000000
v -1.100000 0.700000 -0.000000
v -1.100000 0.800000 0.050000
v -1.100000 1.200000 0.100000
v -1.100000 0.400000 0.100000
v -1.100000 0.500000 0.100000
v -1.100000 0.700000 0.100000
v -1.100000 1.200000 0.200000
v -1.100000 1.200000 0.600000
v -1.100000 1.200000 0.700000
v -1.100000 0.100000 0.800000
v -1.100000 0.000000 0.900000
v -1.100000 0.100000 0.900000
v -1.100000 0.000000 1.100000
v -1.100000 0.100000 1.100000
v -1.000000 1.200000 -1.500000
v -1.000000 1.800000 -1.500000
v -1.000000 1.200000 -1.400000
v -1.000000 1.800000 -1.400000
v -1.000000 0.600000 -0.500000
v -1.000000 0.700000 -0.500000
v -1.000000 0.800000 -0.500000
v -1.000000 0.900000 -0.500000
v -1.000000 1.000000 -0.500000
v -1.000000 1.100000 -0.500000
v -1.000000 1.250000 -0.500000
v -1.000000 1.400000 -0.500000
v -1.000000 1.500000 -0.500000
v -1.000000 1.600000 -0.500000
v -1.000000 0.600000 -0.100000
v -1.000000 0.700000 -0.100000
v -1.000000 0.800000 -0.100000
v -1.000000 0.900000 -0.100000
v -1.000000 1.000000 -0.100000
v -1.000000 1.100000 -0.100000
v -1.000000 1.250000 -0.100000
v -1.000000 1.400000 -0.100000
v -1.000000 1.500000 -0.100000
v -1.000000 1.200000 0.800000
v -1.000000 1.200000 0.900000
v -0.500000 1.200000 0.800000
v -0.500000 1.200000 0.900000
v -0.400000 1.200000 -1.500000
v -0.400000 1.800000 -1.500000
v -0.400000 1.200000 -1.400000
v -0.400000 1.800000 -1.400000
v -0.400000 0.000000 1.100000
v -0.400000 0.100000 1.100000
v -0.400000 0.000000 1.600000
v -0.400000 0.100000 1.600000
v -0.300000 0.100000 0.600000
v -0.300000 0.100000 0.700000
v -0.300000 0.000000 1.600000
v -0.300000 0.100000 1.600000
v -0.300000 0.000000 1.700000
v -0.300000 0.100000 1.700000
v -0.100000 0.300000 0.600000
v -0.100000 0.700000 0.600000
v -0.100000 0.800000 0.600000
v -0.100000 1.200000 0.600000
v -0.100000 1.300000 0.600000
v -0.100000 1.700000 0.600000
v -0.100000 1.800000 0.600000
v -0.100000 0.300000 0.700000
v -0.100000 0.700000 0.700000
v -0.100000 0.800000 0.700000
v -0.100000 1.200000 0.700000
v -0.100000 1.300000 0.700000
v -0.100000 1.700000 0.700000
v -0.100000 1.800000 0.700000
v 0.200000 0.300000 0.600000
v 0.200000 0.700000 0.600000
v 0.200000 0.800000 0.600000
v 0.200000 1.200000 0.600000
v 0.200000 1.300000 0.600000
v 0.200000 1.700000 0.600000
v 0.200000 1.800000 0.600000
v 0.200000 0.300000 0.700000
v 0.200000 0.700000 0.700000
v 0.200000 0.800000 0.700000
v 0.200000 1.200000 0.700000
v 0.200000 1.300000 0.700000
v 0.200000 1.700000 0.700000
v 0.200000 1.800000 0.700000
v 0.300000 1.200000 -1.500000
v 0.300000 1.800000 -1.500000
v 0.300000 1.200000 -1.400000
v 0.300000 1.800000 -1.400000
v 0.300000 0.100000 0.700000
v 0.300000 0.100000 0.800000
v 0.300000 1.800000 0.800000
v 0.300000 1.900000 0.800000
v 0.300000 1.800000 0.900000
v 0.300000 1.900000 0.900000
v 0.400000 0.600000 -1.500000
v 0.400000 0.800000 -1.500000
v 0.400000 0.600000 -1.400000
v 0.400000 0.800000 -1.400000
v 0.400000 1.200000 0.800000
v 0.400000 1.800000 0.800000
v 0.400000 1.200000 0.900000
v 0.400000 1.800000 0.900000
v 0.700000 0.800000 -1.500000
v 0.700000 1.200000 -1.500000
v 0.700000 0.800000 -1.400000
v 0.700000 1.200000 -1.400000
v 0.700000 0.900000 -1.300000
v 0.700000 1.000000 -1.300000
v 0.700000 0.900000 -1.100000
v 0.700000 1.000000 -1.100000
v 0.800000 1.000000 -1.300000
v 0.800000 1.300000 -1.300000
v 0.800000 1.000000 -1.100000
v 0.800000 1.300000 -1.100000
v 0.800000 0.600000 0.400000
v 0.800000 1.000000 0.400000
v 0.800000 0.600000 0.700000
v 0.800000 1.000000 0.700000
v 0.800000 0.600000 0.800000
v 0.800000 1.000000 0.800000
v 0.800000 0.600000 0.900000
v 0.800000 1.000000 0.900000
v 0.900000 1.200000 -1.500000
v 0.900000 1.800000 -1.500000
v 0.900000 1.200000 -1.400000
v 0.900000 1.800000 -1.400000
v 0.900000 1.200000 0.800000
v 0.900000 1.800000 0.800000
v 0.900000 1.200000 0.900000
v 0.900000 1.800000 0.900000
v 1.000000 -0.000000 -1.300000
v 1.000000 0.900000 -1.300000
v 1.000000 1.300000 -1.300000
v 1.000000 1.300000 -1.100000
v 1.000000 0.900000 -1.100000
v 1.000000 1.000000 0.400000
v 1.000000 0.600000 0.400000
v 1.000000 0.000000 0.700000
v 1.000000 0.600000 0.700000
v 1.000000 1.000000 0.700000
v -1.300000 0.400000 -0.600000
v -1.300000 0.500000 -0.600000
v -1.300000 0.700000 -0.600000
v -1.300000 0.800000 -0.600000
v -1.300000 0.500000 -0.500000
v -1.300000 0.700000 -0.500000
v -1.300000 0.500000 -0.400000
v -1.300000 0.700000 -0.400000
v -1.300000 0.500000 -0.200000
v -1.300000 0.700000 -0.200000
v -1.300000 0.500000 -0.100000
v -1.300000 0.700000 -0.100000
v -1.300000 0.400000 -0.000000
v -1.300000 0.500000 -0.000000
v -1.300000 0.700000 -0.000000
v -1.300000 0.800000 -0.000000
v -1.200000 0.500000 -0.700000
v -1.200000 0.700000 -0.700000
v -1.200000 0.800000 -0.700000
v -1.200000 1.200000 -0.700000
v -1.200000 1.300000 -0.700000
v -1.200000 0.500000 -0.600000
v -1.200000 0.700000 -0.600000
v -1.200000 0.800000 -0.600000
v -1.200000 1.200000 -0.600000
v -1.200000 1.300000 -0.600000
v -1.200000 0.500000 0.050000
v -1.200000 0.700000 0.050000
v -1.200000 0.800000 -0.000000
v -1.200000 0.800000 0.100000
v -1.000000 -0.000000 -1.300000
v -1.000000 0.400000 -0.600000
v -1.000000 0.400000 -0.000000
v -1.000000 0.000000 0.700000
v -0.900000 1.200000 -1.500000
v -0.900000 1.800000 -1.500000
v -0.900000 1.200000 -1.400000
v -0.900000 1.800000 -1.400000
v -0.900000 0.400000 -0.600000
v -0.900000 0.500000 -0.500000
v -0.900000 0.600000 -0.500000
v -0.900000 0.700000 -0.500000
v -0.900000 0.800000 -0.500000
v -0.900000 0.900000 -0.500000
v -0.900000 1.000000 -0.500000
v -0.900000 1.100000 -0.500000
v -0.900000 1.250000 -0.500000
v -0.900000 1.400000 -0.500000
v -0.900000 1.500000 -0.500000
v -0.900000 1.600000 -0.500000
v -0.900000 0.500000 -0.100000
v -0.900000 0.600000 -0.100000
v -0.900000 0.700000 -0.100000
v -0.900000 0.800000 -0.100000
v -0.900000 0.900000 -0.100000
v -0.900000 1.000000 -0.100000
v -0.900000 1.100000 -0.100000
v -0.900000 1.250000 -0.100000
v -0.900000 1.400000 -0.100000
v -0.900000 1.500000 -0.100000
v -0.900000 1.600000 -0.100000
v -0.900000 0.400000 -0.000000
v -0.900000 1.200000 0.800000
v -0.900000 1.200000 0.900000
v -0.400000 1.200000 0.800000
v -0.400000 1.200000 0.900000
v -0.300000 1.200000 -1.500000
v -0.300000 1.800000 -1.500000
v -0.300000 1.200000 -1.400000
v -0.300000 1.800000 -1.400000
v -0.300000 0.100000 0.700000
v -0.300000 0.100000 0.800000
v -0.300000 1.800000 0.800000
v -0.200000 0.300000 0.600000
v -0.200000 0.700000 0.600000
v -0.200000 0.800000 0.600000
v -0.200000 1.200000 0.600000
v -0.200000 1.300000 0.600000
v -0.200000 1.700000 0.600000
v -0.200000 1.800000 0.600000
v -0.200000 0.300000 0.700000
v -0.200000 0.700000 0.700000
v -0.200000 0.800000 0.700000
v -0.200000 1.200000 0.700000
v -0.200000 1.300000 0.700000
v -0.200000 1.700000 0.700000
v -0.200000 1.800000 0.700000
v 0.100000 0.300000 0.600000
v 0.100000 0.700000 0.600000
v 0.100000 0.800000 0.600000
v 0.100000 1.200000 0.600000
v 0.100000 1.300000 0.600000
v 0.100000 1.700000 0.600000
v 0.100000 1.800000 0.600000
v 0.100000 0.300000 0.700000
v 0.100000 0.700000 0.700000
v 0.100000 0.800000 0.700000
v 0.100000 1.200000 0.700000
v 0.100000 1.300000 0.700000
v 0.100000 1.700000 0.700000
v 0.100000 1.800000 0.700000
v 0.300000 0.100000 0.600000
v 0.300000 0.100000 0.700000
v 0.300000 0.000000 1.600000
v 0.300000 0.100000 1.600000
v 0.300000 0.000000 1.700000
v 0.300000 0.100000 1.700000
v 0.400000 1.200000 -1.500000
v 0.400000 1.800000 -1.500000
v 0.400000 1.200000 -1.400000
v 0.400000 1.800000 -1.400000
v 0.400000 0.000000 1.100000
v 0.400000 0.100000 1.100000
v 0.400000 0.000000 1.600000
v 0.400000 0.100000 1.600000
v 0.500000 1.200000 0.800000
v 0.500000 1.800000 0.800000
v 0.500000 1.200000 0.900000
v 0.500000 1.800000 0.900000
v 0.700000 0.600000 -1.500000
v 0.700000 0.800000 -1.500000
v 0.700000 0.600000 -1.400000
v 0.700000 0.800000 -1.400000
v 1.000000 1.200000 -1.500000
v 1.000000 1.800000 -1.500000
v 1.000000 1.200000 -1.400000
v 1.000000 1.800000 -1.400000
v 1.000000 1.200000 0.800000
v 1.000000 1.800000 0.800000
v 1.000000 1.200000 0.900000
v 1.000000 1.800000 0.900000
v 1.100000 -0.000000 -1.700000
v 1.100000 0.100000 -1.700000
v 1.100000 -0.000000 -1.500000
v 1.100000 0.100000 -1.500000
v 1.100000 0.100000 -1.400000
v 1.100000 0.800000 -1.400000
v 1.100000 1.200000 -1.400000
v 1.100000 1.800000 -1.400000
v 1.100000 1.900000 -1.400000
v 1.100000 1.200000 -1.300000
v 1.100000 1.800000 -1.300000
v 1.100000 3.100000 -0.800000
v 1.100000 1.200000 -1.200000
v 1.100000 1.800000 -1.200000
v 1.100000 0.800000 -1.100000
v 1.100000 1.200000 -1.100000
v 1.100000 1.100000 -0.650000
v 1.100000 1.200000 -0.700000
v 1.100000 1.800000 -0.700000
v 1.100000 1.200000 -0.600000
v 1.100000 1.800000 -0.600000
v 1.100000 1.200000 -0.000000
v 1.100000 1.800000 -0.000000
v 1.100000 1.100000 0.100000
v 1.100000 1.200000 0.100000
v 1.100000 1.300000 0.100000
v 1.100000 1.800000 0.100000
v 1.100000 0.600000 0.300000
v 1.100000 1.000000 0.300000
v 1.100000 1.900000 0.800000
v 1.100000 1.100000 0.400000
v 1.100000 1.300000 0.400000
v 1.100000 1.200000 0.600000
v 1.100000 1.800000 0.600000
v 1.100000 1.200000 0.700000
v 1.100000 1.800000 0.700000
v 1.100000 0.100000 0.800000
v 1.100000 0.600000 0.800000
v 1.100000 1.000000 0.800000
v 1.100000 1.800000 0.800000
v 1.100000 0.000000 0.900000
v 1.100000 0.100000 0.900000
v 1.100000 0.000000 1.100000
v 1.100000 0.100000 1.100000
v 1.200000 -0.000000 -1.500000
v 1.200000 0.100000 -1.500000
v 1.200000 0.800000 -1.500000
v 1.200000 1.200000 -1.500000
v 1.200000 1.800000 -1.500000
v 1.200000 1.900000 -1.500000
v 1.200000 -0.000000 -1.400000
v 1.200000 0.100000 -1.400000
v 1.200000 1.200000 -1.300000
v 1.200000 1.800000 -1.250000
v 1.200000 1.200000 -1.200000
v 1.200000 0.800000 -1.100000
v 1.200000 1.200000 -1.100000
v 1.200000 3.100000 -0.800000
v 1.200000 1.200000 -0.700000
v 1.200000 1.800000 -0.700000
v 1.200000 1.900000 0.900000
v 1.200000 1.200000 -0.600000
v 1.200000 1.800000 -0.600000
v 1.200000 3.100000 -0.500000
v 1.200000 1.200000 -0.000000
v 1.200000 1.800000 0.050000
v 1.200000 1.100000 0.100000
v 1.200000 1.250000 0.100000
v 1.200000 0.600000 0.300000
v 1.200000 1.000000 0.300000
v 1.200000 1.100000 0.400000
v 1.200000 1.300000 0.400000
v 1.200000 1.200000 0.600000
v 1.200000 1.800000 0.600000
v 1.200000 1.200000 0.700000
v 1.200000 1.800000 0.700000
v 1.200000 0.000000 0.800000
v 1.200000 0.100000 0.800000
v 1.200000 0.000000 0.900000
v 1.200000 0.100000 0.900000
v 1.200000 0.600000 0.900000
v 1.200000 1.000000 0.900000
v 1.200000 1.800000 0.900000
v 1.400000 -0.000000 -1.400000
v 1.400000 0.100000 -1.400000
v 1.400000 0.000000 0.800000
v 1.400000 0.100000 0.800000
v -1.400000 -0.000000 -1.400000
v -1.400000 0.000000 0.800000
v -1.200000 -0.000000 -1.500000
v -1.200000 -0.000000 -1.400000
v -1.200000 0.000000 0.800000
v -1.200000 0.000000 0.900000
v -1.100000 -0.000000 -1.700000
v -1.100000 -0.000000 -1.500000
v -1.100000 0.000000 0.900000
v -1.100000 0.000000 1.100000
v -1.000000 -0.000000 -1.300000
v -1.000000 0.000000 0.700000
v -0.400000 0.000000 1.100000
v -0.400000 0.000000 1.600000
v -0.300000 0.000000 1.600000
v -0.300000 0.000000 1.700000
v 0.300000 0.000000 1.600000
v 0.300000 0.000000 1.700000
v 1.000000 -0.000000 -1.300000
v 0.400000 0.000000 1.100000
v 0.400000 0.000000 1.600000
v 1.000000 0.000000 0.700000
v 1.100000 -0.000000 -1.700000
v 1.100000 -0.000000 -1.500000
v 1.100000 0.000000 0.900000
v 1.100000 0.000000 1.100000
v 1.200000 -0.000000 -1.500000
v 1.200000 -0.000000 -1.400000
v 1.200000 0.000000 0.800000
v 1.200000 0.000000 0.900000
v 1.400000 -0.000000 -1.400000
v 1.400000 0.000000 0.800000
v -0.300000 0.100000 0.600000
v -0.300000 0.100000 0.700000
v 0.300000 0.100000 0.600000
v 0.300000 0.100000 0.700000
v -1.400000 0.400000 -0.700000
v -1.400000 0.400000 0.100000
v -1.300000 0.400000 -0.600000
v -1.300000 0.400000 -0.000000
v -1.200000 0.400000 -0.400000
v -1.200000 0.400000 -0.200000
v -1.100000 0.400000 -0.700000
v -1.100000 0.400000 -0.600000
v -1.100000 0.400000 -0.400000
v -1.100000 0.400000 -0.200000
v -1.100000 0.400000 0.050000
v -1.000000 0.400000 -0.600000
v -1.000000 0.400000 -0.000000
v -0.900000 0.400000 -0.600000
v -0.900000 0.400000 -0.000000
v -1.000000 0.600000 -0.500000
v -1.000000 0.600000 -0.100000
v -0.900000 0.600000 -0.500000
v -0.900000 0.600000 -0.100000
v 0.400000 0.600000 -1.500000
v 0.400000 0.600000 -1.400000
v 0.700000 0.600000 -1.500000
v 0.700000 0.600000 -1.400000
v 0.800000 0.600000 0.400000
v 0.800000 0.600000 0.700000
v 0.800000 0.600000 0.800000
v 0.800000 0.600000 0.900000
v 1.000000 0.600000 0.400000
v 1.000000 0.600000 0.700000
v 1.100000 0.600000 0.300000
v 1.100000 0.600000 0.800000
v 1.200000 0.600000 0.300000
v 1.200000 0.600000 0.900000
v -1.400000 0.700000 -0.600000
v -1.400000 0.700000 -0.500000
v -1.400000 0.700000 -0.400000
v -1.400000 0.700000 -0.200000
v -1.400000 0.700000 -0.100000
v -1.400000 0.700000 -0.000000
v -1.300000 0.700000 -0.600000
v -1.300000 0.700000 -0.500000
v -1.300000 0.700000 -0.400000
v -1.300000 0.700000 -0.200000
v -1.300000 0.700000 -0.100000
v -1.300000 0.700000 -0.000000
v -1.200000 0.700000 -0.700000
v -1.200000 0.700000 -0.600000
v -1.200000 0.700000 0.050000
v -1.100000 0.700000 -0.700000
v -1.100000 0.700000 -0.600000
v -1.100000 0.700000 0.050000
v -0.200000 0.700000 0.600000
v -0.200000 0.700000 0.700000
v -0.100000 0.700000 0.600000
v -0.100000 0.700000 0.700000
v 0.100000 0.700000 0.600000
v 0.100000 0.700000 0.700000
v 0.200000 0.700000 0.600000
v 0.200000 0.700000 0.700000
v -1.000000 0.800000 -0.500000
v -1.000000 0.800000 -0.100000
v -0.900000 0.800000 -0.500000
v -0.900000 0.800000 -0.100000
v 0.700000 0.800000 -1.500000
v 0.700000 0.800000 -1.400000
v 1.100000 0.800000 -1.400000
v 1.100000 0.800000 -1.100000
v 1.200000 0.800000 -1.500000
v 1.200000 0.800000 -1.100000
v 0.700000 0.900000 -1.300000
v 0.700000 0.900000 -1.100000
v 1.000000 0.900000 -1.300000
v 1.000000 0.900000 -1.100000
v -1.000000 1.000000 -0.500000
v -1.000000 1.000000 -0.100000
v -0.900000 1.000000 -0.500000
v -0.900000 1.000000 -0.100000
v 1.100000 1.100000 0.100000
v 1.100000 1.100000 0.400000
v 1.200000 1.100000 0.100000
v 1.200000 1.100000 0.400000
v -1.200000 1.200000 -1.250000
v -1.200000 1.200000 -0.800000
v -1.200000 1.200000 -0.600000
v -1.200000 1.200000 0.100000
v -1.200000 1.200000 0.200000
v -1.200000 1.200000 0.600000
v -1.200000 1.200000 0.700000
v -1.100000 1.200000 -1.250000
v -1.100000 1.200000 -0.800000
v -1.100000 1.200000 -0.600000
v -1.100000 1.200000 0.100000
v -1.100000 1.200000 0.200000
v -1.100000 1.200000 0.600000
v -1.100000 1.200000 0.700000
v -1.000000 1.200000 -1.500000
v -1.000000 1.200000 -1.400000
v -1.000000 1.200000 -0.500000
v -1.000000 1.200000 -0.100000
v -1.000000 1.200000 0.800000
v -1.000000 1.200000 0.900000
v -0.900000 1.200000 -1.500000
v -0.900000 1.200000 -1.400000
v -0.900000 1.200000 -0.500000
v -0.900000 1.200000 -0.100000
v -0.900000 1.200000 0.800000
v -0.900000 1.200000 0.900000
v -0.500000 1.200000 0.800000
v -0.500000 1.200000 0.900000
v -0.400000 1.200000 -1.500000
v -0.400000 1.200000 -1.400000
v -0.400000 1.200000 0.800000
v -0.400000 1.200000 0.900000
v -0.300000 1.200000 -1.500000
v -0.300000 1.200000 -1.400000
v -0.200000 1.200000 0.600000
v -0.200000 1.200000 0.700000
v -0.100000 1.200000 0.600000
v -0.100000 1.200000 0.700000
v 0.100000 1.200000 0.600000
v 0.100000 1.200000 0.700000
v 0.200000 1.200000 0.600000
v 0.200000 1.200000 0.700000
v 0.300000 1.200000 -1.500000
v 0.300000 1.200000 -1.400000
v 0.400000 1.200000 -1.500000
v 0.400000 1.200000 -1.400000
v 0.400000 1.200000 0.800000
v 0.400000 1.200000 0.900000
v 0.500000 1.200000 0.800000
v 0.500000 1.200000 0.900000
v 0.900000 1.200000 0.800000
v 0.900000 1.200000 0.900000
v 1.000000 1.200000 0.800000
v 1.000000 1.200000 0.900000
v 1.100000 1.200000 -0.700000
v 1.100000 1.200000 -0.600000
v 1.100000 1.200000 0.050000
v 1.100000 1.200000 0.600000
v 1.100000 1.200000 0.700000
v 1.200000 1.200000 -0.700000
v 1.200000 1.200000 -0.600000
v 1.200000 1.200000 0.050000
v 1.200000 1.200000 0.600000
v 1.200000 1.200000 0.700000
v -1.000000 1.400000 -0.500000
v -1.000000 1.400000 -0.100000
v -0.900000 1.400000 -0.500000
v -0.900000 1.400000 -0.100000
v -1.000000 1.600000 -0.500000
v -0.900000 1.600000 -0.500000
v -0.900000 1.600000 -0.100000
v -0.200000 1.700000 0.600000
v -0.200000 1.700000 0.700000
v -0.100000 1.700000 0.600000
v -0.100000 1.700000 0.700000
v 0.100000 1.700000 0.600000
v 0.100000 1.700000 0.700000
v 0.200000 1.700000 0.600000
v 0.200000 1.700000 0.700000
v -1.000000 1.800000 -1.500000
v -1.000000 1.800000 -1.400000
v -0.900000 1.800000 -1.500000
v -0.900000 1.800000 -1.400000
v -0.400000 1.800000 -1.500000
v -0.400000 1.800000 -1.400000
v -0.300000 1.800000 -1.500000
v -0.300000 1.800000 -1.400000
v -0.300000 1.800000 0.800000
v 0.300000 1.800000 -1.500000
v 0.300000 1.800000 -1.400000
v 0.300000 1.800000 0.800000
v 0.300000 1.800000 0.900000
v 0.400000 1.800000 -1.500000
v 0.400000 1.800000 -1.400000
v 0.400000 1.800000 0.800000
v 0.400000 1.800000 0.900000
v 0.500000 1.800000 0.800000
v 0.500000 1.800000 0.900000
v 0.900000 1.800000 -1.500000
v 0.900000 1.800000 -1.400000
v 0.900000 1.800000 0.800000
v 0.900000 1.800000 0.900000
v 1.000000 1.800000 -1.500000
v 1.000000 1.800000 -1.400000
v 1.000000 1.800000 0.800000
v 1.000000 1.800000 0.900000
v 1.200000 1.800000 -1.500000
v 1.100000 1.800000 -1.400000
v 1.100000 1.800000 -1.300000
v 1.100000 1.800000 -1.200000
v 1.100000 1.800000 -0.700000
v 1.100000 1.800000 -0.600000
v 1.100000 1.800000 -0.000000
v 1.100000 1.800000 0.100000
v 1.100000 1.800000 0.600000
v 1.100000 1.800000 0.700000
v 1.100000 1.800000 0.800000
v 1.200000 1.800000 -1.300000
v 1.200000 1.800000 -1.200000
v 1.200000 1.800000 -0.700000
v 1.200000 1.800000 -0.600000
v 1.200000 1.800000 -0.000000
v 1.200000 1.800000 0.100000
v 1.200000 1.800000 0.600000
v 1.200000 1.800000 0.700000
v 1.200000 1.800000 0.900000
v 1.100000 3.100000 -0.800000
v 1.200000 3.100000 -0.800000
v 1.200000 3.100000 -0.500000
v -1.400000 0.100000 -1.400000
v -1.400000 0.100000 0.800000
v -1.200000 0.100000 -1.500000
v -1.200000 0.100000 -1.400000
v -1.200000 0.100000 0.800000
v -1.200000 0.100000 0.900000
v -1.100000 0.100000 -1.700000
v -1.100000 0.100000 -1.500000
v -1.100000 0.100000 -1.400000
v -1.100000 0.100000 0.800000
v -1.100000 0.100000 0.900000
v -1.100000 0.100000 1.100000
v -0.300000 0.100000 0.800000
v -0.400000 0.100000 1.100000
v -0.400000 0.100000 1.600000
v -0.300000 0.100000 0.700000
v -0.300000 0.100000 1.600000
v -0.300000 0.100000 1.700000
v 0.300000 0.100000 0.700000
v 0.300000 0.100000 0.800000
v 0.300000 0.100000 1.600000
v 0.300000 0.100000 1.700000
v 1.100000 0.100000 -1.500000
v 0.400000 0.100000 1.100000
v 0.400000 0.100000 1.600000
v 1.100000 0.100000 -1.700000
v 1.100000 0.100000 -1.400000
v 1.100000 0.100000 0.800000
v 1.100000 0.100000 0.900000
v 1.100000 0.100000 1.100000
v 1.200000 0.100000 -1.500000
v 1.200000 0.100000 -1.400000
v 1.200000 0.100000 0.800000
v 1.200000 0.100000 0.900000
v 1.400000 0.100000 -1.400000
v 1.400000 0.100000 0.800000
v -0.200000 0.300000 0.600000
v -0.200000 0.300000 0.700000
v -0.100000 0.300000 0.600000
v -0.100000 0.300000 0.700000
v 0.100000 0.300000 0.600000
v 0.100000 0.300000 0.700000
v 0.200000 0.300000 0.600000
v 0.200000 0.300000 0.700000
v -1.400000 0.500000 -0.600000
v -1.400000 0.500000 -0.500000
v -1.400000 0.500000 -0.400000
v -1.400000 0.500000 -0.200000
v -1.400000 0.500000 -0.100000
v -1.400000 0.500000 -0.000000
v -1.300000 0.500000 -0.600000
v -1.300000 0.500000 -0.500000
v -1.300000 0.500000 -0.400000
v -1.300000 0.500000 -0.200000
v -1.300000 0.500000 -0.100000
v -1.300000 0.500000 -0.000000
v -1.200000 0.500000 -0.700000
v -1.200000 0.500000 -0.600000
v -1.200000 0.500000 -0.400000
v -1.200000 0.500000 -0.200000
v -1.200000 0.500000 0.050000
v -1.100000 0.500000 -0.700000
v -1.100000 0.500000 -0.600000
v -1.100000 0.500000 -0.500000
v -1.100000 0.500000 -0.400000
v -1.100000 0.500000 -0.200000
v -1.100000 0.500000 -0.100000
v -1.100000 0.500000 0.050000
v -0.900000 0.500000 -0.500000
v -0.900000 0.500000 -0.100000
v -1.000000 0.700000 -0.500000
v -1.000000 0.700000 -0.100000
v -0.900000 0.700000 -0.500000
v -0.900000 0.700000 -0.100000
v -1.400000 0.800000 -0.700000
v -1.400000 0.800000 0.100000
v -1.300000 0.800000 -0.700000
v -1.300000 0.800000 0.100000
v -1.200000 0.800000 -0.700000
v -1.200000 0.800000 -0.600000
v -1.200000 0.800000 0.050000
v -1.100000 0.800000 -0.700000
v -1.100000 0.800000 -0.600000
v -1.100000 0.800000 0.050000
v -0.200000 0.800000 0.600000
v -0.200000 0.800000 0.700000
v -0.100000 0.800000 0.600000
v -0.100000 0.800000 0.700000
v 0.100000 0.800000 0.600000
v 0.100000 0.800000 0.700000
v 0.200000 0.800000 0.600000
v 0.200000 0.800000 0.700000
v 0.400000 0.800000 -1.500000
v 0.400000 0.800000 -1.400000
v 0.700000 0.800000 -1.400000
v 0.700000 0.800000 -1.500000
v -1.000000 0.900000 -0.500000
v -1.000000 0.900000 -0.100000
v -0.900000 0.900000 -0.500000
v -0.900000 0.900000 -0.100000
v 0.700000 1.000000 -1.300000
v 0.700000 1.000000 -1.100000
v 0.800000 1.000000 -1.300000
v 0.800000 1.000000 -1.100000
v 0.800000 1.000000 0.400000
v 0.800000 1.000000 0.700000
v 0.800000 1.000000 0.800000
v 0.800000 1.000000 0.900000
v 1.000000 1.000000 0.400000
v 1.000000 1.000000 0.700000
v 1.100000 1.000000 0.300000
v 1.100000 1.000000 0.800000
v 1.200000 1.000000 0.300000
v 1.200000 1.000000 0.900000
v -1.000000 1.100000 -0.500000
v -1.000000 1.100000 -0.100000
v -0.900000 1.100000 -0.500000
v -0.900000 1.100000 -0.100000
v 0.700000 1.200000 -1.500000
v 0.700000 1.200000 -1.400000
v 0.900000 1.200000 -1.400000
v 0.900000 1.200000 -1.500000
v 1.000000 1.200000 -1.500000
v 1.000000 1.200000 -1.400000
v 1.100000 1.200000 -1.400000
v 1.100000 1.200000 -1.300000
v 1.100000 1.200000 -1.200000
v 1.100000 1.200000 -1.100000
v 1.200000 1.200000 -1.500000
v 1.200000 1.200000 -1.300000
v 1.200000 1.200000 -1.200000
v 1.200000 1.200000 -1.100000
v -1.200000 1.300000 -0.700000
v -1.200000 1.300000 -0.600000
v -1.100000 1.300000 -0.700000
v -1.100000 1.300000 -0.600000
v -1.000000 1.300000 -0.500000
v -1.000000 1.300000 -0.100000
v -0.900000 1.300000 -0.500000
v -0.900000 1.300000 -0.100000
v -0.200000 1.300000 0.600000
v -0.200000 1.300000 0.700000
v -0.100000 1.300000 0.600000
v -0.100000 1.300000 0.700000
v 0.100000 1.300000 0.600000
v 0.100000 1.300000 0.700000
v 0.200000 1.300000 0.600000
v 0.200000 1.300000 0.700000
v 0.800000 1.300000 -1.300000
v 0.800000 1.300000 -1.100000
v 1.000000 1.300000 -1.300000
v 1.000000 1.300000 -1.100000
v 1.100000 1.300000 0.100000
v 1.100000 1.300000 0.400000
v 1.200000 1.300000 0.100000
v 1.200000 1.300000 0.400000
v -1.000000 1.500000 -0.500000
v -1.000000 1.500000 -0.100000
v -0.900000 1.500000 -0.500000
v -0.900000 1.500000 -0.100000
v -0.900000 1.700000 -0.500000
v -0.200000 1.800000 0.600000
v -0.200000 1.800000 0.700000
v -0.100000 1.800000 0.600000
v -0.100000 1.800000 0.700000
v 0.100000 1.800000 0.600000
v 0.100000 1.800000 0.700000
v 0.200000 1.800000 0.600000
v 0.200000 1.800000 0.700000
v 1.200000 1.900000 -1.500000
v 0.300000 1.900000 0.800000
v 0.300000 1.900000 0.900000
v 1.100000 1.900000 -1.400000
v 1.100000 1.900000 0.800000
v 1.200000 1.900000 0.900000
v 1.100000 3.122741 -0.800000
v -1.264969 1.514662 -0.700000
v -1.200000 1.558202 -0.700000
v -0.985264 1.678955 -0.600000
v -0.900000 1.736096 -0.600000
v 0.202463 2.197054 0.600000
v 0.218920 2.208084 0.600000
v 0.300000 2.262421 0.600000
v 0.472981 2.355191 0.700000
v 1.000000 2.708381 0.700000
v 1.192402 3.115197 -0.500000
v 1.200000 3.120289 -0.500000
v -1.000000 1.530142 -0.000000
v -0.200000 1.904181 0.700000
v -0.900000 1.411909 0.800000
v -1.200000 1.687728 -1.259356
v -1.200000 1.349796 0.200000
v -1.100000 1.741000 -1.200000
v -1.100000 1.614189 -0.652365
v -1.100000 1.590838 -0.551527
v -1.100000 1.481005 -0.077215
v -1.100000 1.294141 0.729756
v -1.000000 1.344892 0.800000
v -0.500000 1.656819 0.900000
v -0.100000 1.981718 0.654570
v 1.000000 3.171506 -1.300000
v -1.200000 1.379664 0.071017
v -1.000000 1.530142 -0.000000
v -0.300000 1.828835 0.735969
v -0.300000 1.814341 0.798566
v 0.100000 2.123987 0.619003
v 1.100000 2.773534 0.708049
v 1.100000 2.762756 0.754592
v 1.100000 2.752242 0.800000
v 1.200000 3.131087 -0.546631
v -1.115621 1.800000 -1.500000
v -0.300000 1.800000 0.860495
v -0.919308 1.700000 -0.500000
v -0.934340 1.900000 -1.407203
v -0.931852 1.900000 -1.400000
v -1.081068 1.800000 -1.400000
v 1.166385 3.167230 -0.800000
v 1.200000 3.189758 -0.800000
v -1.059099 1.513692 -0.100000
v -1.000000 1.553298 -0.100000
v -1.200000 1.372952 0.100000
v -1.000000 1.368048 0.700000
v -0.871831 1.917067 -1.300000
v -1.239754 1.508404 -0.600000
v -1.200000 1.535046 -0.600000
v -1.062966 1.603726 -0.500000
v -0.976397 1.545960 -0.000000
v -0.900000 1.597159 -0.000000
v -0.100000 1.971198 0.700000
v -0.721170 1.531755 0.800000
v -0.500000 1.679975 0.800000
v -1.000000 1.321736 0.900000
v -1.300000 1.491186 -0.700000
v -1.200000 1.683310 -1.240276
v -1.100000 1.730229 -1.153486
v -1.100000 1.486281 -0.100000
v -1.000000 1.326623 0.878896
v 1.000000 3.157047 -1.237559
v 1.000000 3.046372 -0.759611
v 1.000000 3.020258 -0.646839
v -1.000000 1.669079 -0.600000
v -1.000000 1.495646 0.148973
v -0.900000 1.620315 -0.100000
v -0.900000 1.411909 0.800000
v -0.200000 1.904181 0.700000
v -0.908105 1.700000 -0.467578
v -1.300000 1.317514 0.050000
v -0.931852 1.900000 -1.400000
v -1.106725 1.759649 -1.300000
v -1.200000 1.697140 -1.300000
v -0.972037 1.572037 -0.100000
v -1.135977 1.415859 0.100000
v -1.100000 1.439969 0.100000
v 0.200000 2.195404 0.600000
v -1.200000 1.558202 -0.700000
v 0.300000 2.239264 0.700000
v -0.014312 2.028623 0.700000
v 0.100000 2.105231 0.700000
v -0.400000 1.746992 0.800000
v -0.928298 1.369788 0.900000
v -0.900000 1.388753 0.900000
v -1.300000 1.482395 -0.662036
v -1.200000 1.581359 -0.800000
v -1.200000 1.257171 0.600000
v -1.100000 1.578907 -0.500000
v -1.100000 1.480592 -0.075430
v -1.100000 1.479535 -0.070867
v -1.100000 1.474993 -0.051249
v -1.100000 1.460041 0.013320
v -1.000000 1.321736 0.900000
v -0.300000 1.860321 0.600000
v 0.200000 2.172248 0.700000
v -1.200000 1.558202 -0.700000
v -1.200000 1.535046 -0.600000
v -0.900000 1.618870 -0.093759
v -0.900000 1.396330 0.867278
v -0.200000 1.927337 0.600000
v 0.300000 2.239264 0.700000
v 1.100000 3.126719 -0.817177
v 1.100000 3.122741 -0.800000
v 1.100000 3.100000 -0.701792
v -1.085930 1.800000 -1.414070
v -1.081068 1.800000 -1.400000
v -0.900000 1.700000 -0.444120
v -1.115621 1.800000 -1.500000
v -0.790783 1.994539 -1.400000
v -0.379818 2.269954 -1.400000
v 0.164705 2.634875 -1.400000
v 0.284705 2.715295 -1.400000
v 0.364746 2.768936 -1.400000
v 0.408851 2.798494 -1.400000
v 0.561214 2.900602 -1.400000
v 0.615938 2.937276 -1.400000
v 0.745103 3.023839 -1.400000
v 0.966110 3.171950 -1.400000
v 1.030774 3.215286 -1.400000
v 1.100000 3.261679 -1.400000
v -1.100000 1.764156 -1.300000
v -1.049156 1.520356 -0.100000
v -1.032825 1.531300 -0.100000
v -1.014522 1.543566 -0.100000
v -0.930313 1.600000 -0.100000
v -0.709555 1.562695 0.700000
v -0.606369 1.631846 0.700000
v -0.300000 1.837165 0.700000
v -0.865840 1.921082 -1.300000
v -1.148757 1.592544 -0.700000
v -1.100000 1.625219 -0.700000
v -1.055218 1.608918 -0.500000
v -1.043371 1.616857 -0.500000
v -1.031246 1.624983 -0.500000
v -1.012512 1.637537 -0.500000
v -1.000000 1.645923 -0.500000
v -1.251022 1.338759 0.100000
v -1.300000 1.305936 0.100000
v -1.100000 1.277875 0.800000
v -1.021722 1.330334 0.800000
v -1.000000 1.344892 0.800000
v -0.320903 1.800000 0.800000
v 0.365449 2.259970 0.800000
v 0.300000 2.216108 0.800000
v -0.500000 1.656819 0.900000
v -1.200000 1.572582 -0.762097
v -1.200000 1.235380 0.694103
v -1.100000 1.648375 -0.800000
v -1.100000 1.439969 0.100000
v -1.100000 1.416813 0.200000
v -1.100000 1.277875 0.800000
v -1.000000 1.600000 -0.301683
v -1.000000 1.645923 -0.500000
v -0.300000 1.852192 0.635104
v 0.200000 2.195404 0.600000
v -1.200000 1.544482 -0.640747
v -0.900000 1.712940 -0.500000
v -0.900000 1.617293 -0.086950
v -0.900000 1.388753 0.900000
v -0.200000 1.910583 0.672354
v -1.066218 1.833109 -1.500000
v -1.128448 1.629310 -0.800000
v -1.200000 1.581359 -0.800000
v 0.300000 2.239264 0.700000
v -1.200000 1.372952 0.100000
v -1.171895 1.368631 0.200000
v -1.200000 1.349796 0.200000
v -1.193618 1.238292 0.700000
v -1.200000 1.234015 0.700000
v 0.242956 2.201035 0.700000
v 0.200000 2.172248 0.700000
v 0.759580 2.524103 0.800000
v 0.903488 2.620545 0.800000
v 0.929671 2.638093 0.800000
v 1.016202 2.696083 0.800000
v 1.056673 2.723206 0.800000
v 1.100000 2.752242 0.800000
v -0.478534 1.671205 0.900000
v -0.400000 1.723836 0.900000
v -1.200000 1.558202 -0.700000
v -1.100000 1.787312 -1.400000
v -1.100000 1.764156 -1.300000
v -1.100000 1.346859 0.502094
v 0.200000 2.195122 0.601219
v 0.300000 2.216108 0.800000
v -0.900000 1.653110 -0.241627
v 1.100000 2.819479 0.509638
v -1.000000 1.600000 -0.301683
v -0.320903 1.800000 0.800000
v 1.100000 3.100000 -0.701792
v -0.966405 1.900000 -1.500000
v -1.043998 1.847999 -1.500000
v -0.966405 1.900000 -1.500000
v -1.100000 1.787312 -1.400000
v -1.100000 1.648375 -0.800000
v -1.100000 1.486281 -0.100000
v -1.200000 1.257171 0.600000
v -0.100000 1.994354 0.600000
v -0.840587 1.938006 -1.300000
v -0.834510 1.942078 -1.300000
v -1.200000 1.673983 -1.200000
v -1.100000 1.578907 -0.500000
v -1.100000 1.416813 0.200000
v -1.100000 1.301031 0.700000
v -1.100000 1.786803 -1.397801
v -1.100000 1.324188 0.600000
v 1.000000 2.708381 0.700000
v -1.000000 1.831173 -1.300000
v -0.900000 1.736096 -0.600000
v -0.900000 1.597159 -0.000000
v -0.400000 1.746992 0.800000
v -0.970746 1.600000 -0.217017
v -0.930313 1.600000 -0.100000
v -0.315535 1.800000 0.815535
v 1.134236 3.100000 -0.602709
v 1.169725 3.100000 -0.500000
v -1.003126 1.875391 -1.500000
v -1.098098 1.788587 -1.400000
v -1.248780 1.363418 -0.000000
v -1.300000 1.329092 -0.000000
v -1.118618 1.311710 0.600000
v -1.100000 1.324188 0.600000
v -0.022984 2.045968 0.600000
v 0.100000 2.128387 0.600000
v -1.181108 1.686645 -1.200000
v -1.100000 1.741000 -1.200000
v -1.300000 1.468029 -0.600000
v -1.200000 1.372952 0.100000
v -1.100000 1.589188 -0.544402
v -0.500000 1.679975 0.800000
v -0.300000 1.837165 0.700000
v -0.100000 1.971198 0.700000
v 0.300000 2.239264 0.700000
v -1.000000 1.812141 -1.217812
v -0.900000 1.733340 -0.588096
v -0.900000 1.733124 -0.587164
v -0.900000 1.732871 -0.586073
v -0.900000 1.732572 -0.584779
v -0.900000 1.732211 -0.583221
v -0.900000 1.731768 -0.581308
v -0.900000 1.731210 -0.578901
v -0.900000 1.730041 -0.573853
v -0.900000 1.728137 -0.565627
v -0.900000 1.726025 -0.556506
v -0.900000 1.722386 -0.540796
v -0.400000 1.744864 0.809189
v -0.300000 1.814008 0.800000
v -0.300000 1.800000 0.860495
v 0.100000 2.105231 0.700000
v 0.300000 2.262421 0.600000
v 1.100000 3.261679 -1.400000
v 1.100000 3.037625 -0.432428
v 1.200000 3.120289 -0.500000
v -1.300000 1.491186 -0.700000
v -1.000000 1.669079 -0.600000
v -1.200000 1.396109 -0.000000
v -0.215490 1.916957 0.600000
v -0.200000 1.927337 0.600000
v -0.230504 1.906895 0.600000
v -0.300000 1.860321 0.600000
v 0.431315 2.327267 0.700000
v -1.000000 1.831173 -1.300000
v -0.801972 1.963884 -1.300000
v -0.498267 2.167418 -1.300000
v 0.073588 2.550656 -1.300000
v 1.000000 3.171506 -1.300000
v 1.169725 3.100000 -0.500000
v -0.290296 1.843668 0.700000
v -0.295538 1.840155 0.700000
v -0.300000 1.837165 0.700000
v -1.300000 1.468029 -0.600000
v -1.200000 1.354921 0.177868
v -1.200000 1.234015 0.700000
v -1.100000 1.625219 -0.700000
v -1.100000 1.301031 0.700000
v -0.500000 1.675157 0.820807
v -0.100000 1.994354 0.600000
v 0.300000 2.234414 0.720947
v 0.300000 2.225972 0.757403
v 0.300000 2.224456 0.763949
v -1.200000 1.389286 0.029464
v -1.000000 1.368048 0.700000
v -0.400000 1.723836 0.900000
v -0.300000 1.837165 0.700000
v 0.100000 2.128387 0.600000
v 0.300000 2.257771 0.620082
v 1.100000 3.128373 -0.824320
v 1.200000 3.189758 -0.800000
vn -0.0000 -0.0000 -1.0000
vn -0.0001 -0.0000 -1.0000
vn -0.0000 -0.0000 1.0000
vn -1.0000 -0.0000 -0.0000
vn 1.0000 -0.0000 -0.0000
vn -0.0000 -1.0000 -0.0000
vn -0.0000 1.0000 -0.0000
vt 0.947266 0.500000
vt 0.943359 0.500000
vt 0.939453 0.500000
vt 0.759766 0.500000
vt 0.755859 0.500000
vt 0.912109 0.500000
vt 0.947266 0.500000
vt 0.943359 0.500000
vt 0.947266 0.500000
vt 0.912109 0.500000
vt 0.724609 0.500000
vt 0.912109 0.500000
vt 0.759766 0.500000
s 1
usemtl palette.002
f 3/1/1 2/1/1 1/1/1
f 4/1/1 2/1/1 3/1/1
f 9/2/1 6/2/1 5/2/1
f 10/2/1 6/2/1 9/2/1
f 11/2/1 8/2/1 7/2/1
f 12/2/1 8/2/1 11/2/1
f 15/3/1 14/3/1 13/3/1
f 16/3/1 14/3/1 15/3/1
f 24/3/1 17/3/1 16/3/1
f 25/3/1 17/3/1 24/3/1
f 26/3/1 17/3/1 25/3/1
f 27/3/1 17/3/1 26/3/1
f 28/4/1 19/4/1 18/4/1
f 29/4/1 19/4/1 28/4/1
f 30/4/1 21/4/1 20/4/1
f 31/4/1 21/4/1 30/4/1
f 32/4/1 23/4/1 22/4/1
f 33/4/1 23/4/1 32/4/1
f 34/4/1 26/4/1 25/4/1
f 35/4/1 26/4/1 34/4/1
f 1431/4/1 28/4/1 1378/4/1
f 1462/5/1 28/5/1 1431/5/1
f 1487/4/1 29/4/1 1462/4/1
f 37/5/1 31/5/1 30/5/1
f 37/4/1 32/4/1 31/4/1
f 37/5/1 33/5/1 32/5/1
f 37/4/1 34/4/1 33/4/1
f 37/5/1 35/5/1 34/5/1
f 37/5/1 36/5/1 35/5/1
f 42/1/1 39/1/1 38/1/1
f 43/1/1 39/1/1 42/1/1
f 46/1/1 41/1/1 40/1/1
f 47/1/1 41/1/1 46/1/1
f 48/1/1 45/1/1 44/1/1
f 49/1/1 45/1/1 48/1/1
f 50/1/1 45/1/1 49/1/1
f 51/1/1 48/1/1 44/1/1
f 52/2/1 50/2/1 49/2/1
f 53/1/1 52/1/1 51/1/1
f 53/1/1 51/1/1 44/1/1
f 54/1/1 52/1/1 53/1/1
f 55/1/1 52/1/1 54/1/1
f 56/1/1 52/1/1 55/1/1
f 57/1/1 52/1/1 56/1/1
f 58/1/1 52/1/1 57/1/1
f 59/1/1 52/1/1 58/1/1
f 63/1/1 60/1/1 59/1/1
f 63/1/1 59/1/1 58/1/1
f 53/1/1 1464/1/2 1488/1/1
f 65/1/1 55/1/1 54/1/1
f 66/1/1 55/1/1 65/1/1
f 67/1/1 57/1/1 56/1/1
f 68/1/1 57/1/1 67/1/1
f 69/1/1 60/1/1 63/1/1
f 70/1/1 62/1/1 61/1/1
f 71/1/1 62/1/1 70/1/1
f 1379/2/1 72/2/1 1341/2/1
f 1380/2/1 72/2/1 1379/2/1
f 1381/2/1 72/2/1 1380/2/1
f 1382/2/1 72/2/1 1381/2/1
f 1383/2/1 72/2/1 1382/2/1
f 1384/2/1 72/2/1 1383/2/1
f 1385/2/1 72/2/1 1384/2/1
f 1386/2/1 72/2/1 1385/2/1
f 1387/2/1 72/2/1 1386/2/1
f 1388/2/1 72/2/1 1387/2/1
f 1389/2/1 72/2/1 1388/2/1
f 1390/2/1 72/2/1 1389/2/1
f 74/4/1 1342/4/1 1391/4/1
f 77/4/1 76/4/1 75/4/1
f 1343/4/1 1342/4/1 73/4/1
f 78/4/1 76/4/1 77/4/1
f 80/4/1 1432/4/1 1465/4/1
f 1433/4/1 1432/4/1 79/4/1
f 82/3/1 1269/3/1 1310/3/1
f 1311/3/1 82/3/1 1310/3/1
f 85/6/1 84/6/1 83/6/1
f 86/6/1 84/6/1 85/6/1
f 87/6/1 85/6/1 83/6/1
f 89/6/1 87/6/1 83/6/1
f 89/6/1 88/6/1 87/6/1
f 90/6/1 88/6/1 89/6/1
f 91/6/1 88/6/1 90/6/1
f 92/6/1 88/6/1 91/6/1
f 95/4/1 94/4/1 93/4/1
f 91/4/1 1524/4/1 1270/4/1
f 1271/4/1 91/4/1 1270/4/1
f 96/4/1 94/4/1 95/4/1
f 98/6/1 1525/6/1 1272/6/1
f 1273/6/1 98/6/1 1272/6/1
f 101/6/1 100/6/1 99/6/1
f 102/6/1 100/6/1 101/6/1
f 105/6/1 104/6/1 103/6/1
f 106/6/1 104/6/1 105/6/1
f 109/6/1 108/6/1 107/6/1
f 110/6/1 108/6/1 109/6/1
f 113/1/1 112/1/1 111/1/1
f 114/6/1 112/6/1 113/6/1
f 115/1/1 113/1/1 111/1/1
f 117/1/1 115/1/1 111/1/1
f 117/6/1 116/6/1 115/6/1
f 118/6/1 116/6/1 117/6/1
f 119/1/1 117/1/1 111/1/1
f 121/1/1 119/1/1 111/1/1
f 121/6/1 120/6/1 119/6/1
f 122/6/1 120/6/1 121/6/1
f 123/1/1 121/1/1 111/1/1
f 123/1/1 1466/1/1 1312/1/1
f 125/6/1 124/6/1 123/6/1
f 126/6/1 124/6/1 125/6/1
f 128/6/1 127/6/1 125/6/1
f 129/6/1 127/6/1 128/6/1
f 1313/2/1 130/2/1 1394/2/1
f 1344/6/1 130/6/1 1313/6/1
f 136/6/1 134/6/1 133/6/1
f 137/6/1 134/6/1 136/6/1
f 138/6/1 136/6/1 135/6/1
f 139/6/1 136/6/1 138/6/1
f 141/6/1 140/6/1 139/6/1
f 142/6/1 140/6/1 141/6/1
f 143/6/1 140/6/1 142/6/1
f 142/6/1 1489/6/1 1526/6/1
f 146/4/1 145/4/1 144/4/1
f 147/4/1 145/4/1 146/4/1
f 1490/6/1 1489/6/1 141/6/1
f 152/3/1 149/3/1 148/3/1
f 153/3/1 149/3/1 152/3/1
f 151/4/1 1314/4/1 1345/4/1
f 1346/4/1 151/4/1 1345/4/1
f 156/3/1 155/3/1 154/3/1
f 157/3/1 155/3/1 156/3/1
f 160/3/1 159/3/1 158/3/1
f 161/3/1 159/3/1 160/3/1
f 164/6/1 163/6/1 162/6/1
f 165/6/1 163/6/1 164/6/1
f 166/6/1 163/6/1 165/6/1
f 167/6/1 163/6/1 166/6/1
f 168/6/1 164/6/1 162/6/1
f 169/6/1 166/6/1 165/6/1
f 170/6/1 166/6/1 169/6/1
f 171/6/1 163/6/1 167/6/1
f 172/6/1 170/6/1 169/6/1
f 172/6/1 171/6/1 170/6/1
f 172/6/1 168/6/1 162/6/1
f 172/6/1 169/6/1 168/6/1
f 173/6/1 171/6/1 172/6/1
f 174/6/1 171/6/1 173/6/1
f 175/6/1 163/6/1 171/6/1
f 175/6/1 171/6/1 174/6/1
f 178/6/1 172/6/1 162/6/1
f 179/6/1 174/6/1 173/6/1
f 180/6/1 174/6/1 179/6/1
f 181/6/1 163/6/1 175/6/1
f 178/6/1 180/6/1 179/6/1
f 178/6/1 181/6/1 180/6/1
f 184/6/1 181/6/1 178/6/1
f 185/6/1 181/6/1 184/6/1
f 186/6/1 178/6/1 162/6/1
f 187/6/1 185/6/1 184/6/1
f 188/6/1 185/6/1 187/6/1
f 189/6/1 163/6/1 181/6/1
f 177/4/1 1467/4/1 1491/4/1
f 1492/4/1 177/4/1 1491/4/1
f 186/6/1 189/6/1 188/6/1
f 186/6/1 188/6/1 187/6/1
f 190/6/1 189/6/1 186/6/1
f 191/6/1 189/6/1 190/6/1
f 192/4/1 183/4/1 182/4/1
f 193/4/1 183/4/1 192/4/1
f 186/6/1 1527/6/1 1528/6/1
f 191/6/1 1468/6/1 1493/6/1
f 1494/6/1 191/6/1 1493/6/1
f 1274/6/1 189/6/1 1347/6/1
f 1529/6/1 1527/6/1 162/6/1
f 1275/6/1 163/6/1 1274/6/1
f 1530/6/1 1529/6/1 162/6/1
f 1276/6/1 163/6/1 1275/6/1
f 196/2/1 195/2/1 194/2/1
f 197/2/1 195/2/1 196/2/1
f 198/1/1 195/1/1 197/1/1
f 199/1/1 195/1/1 198/1/1
f 200/1/1 198/1/1 197/1/1
f 196/1/1 1315/1/1 1396/1/1
f 200/1/1 1434/1/1 1531/1/1
f 1397/4/1 196/4/1 1396/4/1
f 1398/4/1 196/4/1 1397/4/1
f 1277/2/1 200/2/1 1531/2/1
f 1278/2/1 201/2/1 1277/2/1
f 202/1/3 203/1/3 204/1/3
f 204/1/3 203/1/3 205/1/3
f 1316/1/3 206/1/3 1399/1/3
f 206/1/3 207/1/3 208/1/3
f 206/2/3 1469/2/3 1399/2/3
f 1470/4/3 209/4/3 1533/4/3
f 1533/2/3 209/2/3 1534/2/3
f 1534/2/3 209/2/3 1535/2/3
f 1535/2/3 209/2/3 1536/2/3
f 1495/4/3 211/4/3 1496/4/3
f 212/4/3 213/4/3 214/4/3
f 214/4/3 213/4/3 215/4/3
f 218/3/3 219/3/3 220/3/3
f 220/3/3 219/3/3 221/3/3
f 216/3/3 217/3/3 222/3/3
f 222/3/3 217/3/3 223/3/3
f 221/3/3 219/3/3 224/3/3
f 224/3/3 219/3/3 225/3/3
f 1400/4/3 227/4/3 1401/4/3
f 228/6/3 229/6/3 231/6/3
f 231/6/3 229/6/3 232/6/3
f 230/6/3 231/6/3 233/6/3
f 233/6/3 231/6/3 234/6/3
f 234/6/3 235/6/3 236/6/3
f 236/6/3 235/6/3 237/6/3
f 237/6/3 235/6/3 238/6/3
f 236/4/3 237/4/3 239/4/3
f 1317/4/3 239/4/3 1318/4/3
f 241/4/3 242/4/3 243/4/3
f 243/4/3 242/4/3 244/4/3
f 245/6/3 246/6/3 247/6/3
f 247/6/3 246/6/3 248/6/3
f 245/1/3 247/1/3 249/1/3
f 245/1/3 249/1/3 251/1/3
f 249/6/3 250/6/3 251/6/3
f 251/6/3 250/6/3 252/6/3
f 245/1/3 251/1/3 253/1/3
f 245/1/3 253/1/3 255/1/3
f 253/6/3 254/6/3 255/6/3
f 255/6/3 254/6/3 256/6/3
f 245/1/3 255/1/3 257/1/3
f 257/6/3 258/6/3 259/6/3
f 1319/1/3 259/1/3 1402/7/3
f 259/6/3 258/6/3 260/6/3
f 1402/2/3 262/2/3 1403/2/3
f 259/6/3 261/6/3 262/6/3
f 262/6/3 261/6/3 263/6/3
f 1403/2/3 264/2/3 1404/2/3
f 1404/2/3 266/2/3 1405/2/3
f 264/6/3 265/6/3 266/6/3
f 266/6/3 265/6/3 267/6/3
f 1405/2/3 266/2/3 1406/2/3
f 1537/3/3 268/3/3 1279/3/3
f 1279/3/3 268/3/3 1280/3/3
f 269/6/3 270/6/3 271/6/3
f 271/6/3 270/6/3 272/6/3
f 273/6/3 274/6/3 275/6/3
f 275/6/3 274/6/3 276/6/3
f 277/6/3 278/6/3 279/6/3
f 279/6/3 278/6/3 280/6/3
f 1320/6/3 282/6/3 1321/6/3
f 283/6/3 284/6/3 285/6/3
f 285/6/3 284/6/3 286/6/3
f 283/6/3 285/6/3 287/6/3
f 283/6/3 287/6/3 289/6/3
f 287/6/3 288/6/3 289/6/3
f 289/6/3 288/6/3 290/6/3
f 290/6/3 288/6/3 291/6/3
f 291/6/3 288/6/3 292/6/3
f 293/4/3 294/4/3 295/4/3
f 295/4/3 294/4/3 296/4/3
f 299/3/3 300/3/3 301/3/3
f 301/3/3 300/3/3 302/3/3
f 303/6/3 304/6/3 305/6/3
f 305/6/3 304/6/3 306/6/3
f 306/6/3 304/6/3 307/6/3
f 307/6/3 304/6/3 308/6/3
f 303/6/3 305/6/3 309/6/3
f 306/6/3 307/6/3 310/6/3
f 310/6/3 307/6/3 311/6/3
f 308/6/3 304/6/3 312/6/3
f 310/6/3 311/6/3 313/6/3
f 311/6/3 312/6/3 313/6/3
f 303/6/3 309/6/3 313/6/3
f 309/6/3 310/6/3 313/6/3
f 313/6/3 312/6/3 314/6/3
f 314/6/3 312/6/3 315/6/3
f 312/6/3 304/6/3 316/6/3
f 315/6/3 312/6/3 316/6/3
f 303/6/3 313/6/3 319/6/3
f 314/6/3 315/6/3 320/6/3
f 320/6/3 315/6/3 321/6/3
f 316/6/3 304/6/3 322/6/3
f 322/6/3 304/6/3 323/6/3
f 322/6/3 323/6/3 319/6/3
f 320/6/3 321/6/3 319/6/3
f 321/6/3 322/6/3 319/6/3
f 319/6/3 323/6/3 326/6/3
f 326/6/3 323/6/3 327/6/3
f 327/6/3 323/6/3 328/6/3
f 303/6/3 319/6/3 329/6/3
f 326/6/3 327/6/3 330/6/3
f 330/6/3 327/6/3 331/6/3
f 328/6/3 323/6/3 332/6/3
f 324/4/3 325/4/3 333/4/3
f 330/6/3 331/6/3 334/6/3
f 331/6/3 332/6/3 334/6/3
f 303/6/3 329/6/3 334/6/3
f 329/6/3 330/6/3 334/6/3
f 334/6/3 332/6/3 335/6/3
f 335/6/3 332/6/3 336/6/3
f 336/6/3 332/6/3 337/6/3
f 333/4/3 325/4/3 338/4/3
f 1350/6/3 337/6/3 1351/6/3
f 339/1/3 340/1/3 343/1/3
f 343/1/3 340/1/3 344/1/3
f 341/1/3 342/1/3 349/1/3
f 349/1/3 342/1/3 350/1/3
f 347/1/3 348/1/3 351/1/3
f 351/1/3 348/1/3 352/1/3
f 345/1/3 346/1/3 353/1/3
f 347/1/3 351/1/3 354/1/3
f 354/1/3 355/1/3 356/1/3
f 356/1/3 355/1/3 357/1/3
f 353/1/3 346/1/3 358/1/3
f 358/1/3 346/1/3 359/1/3
f 359/2/3 346/2/3 360/2/3
f 360/1/3 346/1/3 361/1/3
f 347/1/3 354/1/3 362/1/3
f 354/1/3 356/1/3 363/1/3
f 362/2/3 354/2/3 363/2/3
f 1410/1/3 353/1/3 1411/1/3
f 1323/1/3 359/1/3 1324/1/3
f 363/1/3 356/1/3 364/1/3
f 364/1/3 356/1/3 365/1/3
f 357/1/3 355/1/3 366/1/3
f 366/1/3 355/1/3 367/1/3
f 347/2/3 362/2/3 368/2/3
f 368/2/3 362/2/3 369/2/3
f 1414/4/3 370/4/3 1413/4/3
f 1442/2/3 371/2/3 1443/2/3
f 1443/2/3 371/2/3 1444/2/3
f 1444/2/3 371/2/3 1445/2/3
f 1445/2/3 371/2/3 1446/2/3
f 1446/2/3 371/2/3 1447/8/3
f 372/2/3 373/2/3 376/2/3
f 376/2/3 373/2/3 377/2/3
f 374/2/3 375/2/3 378/2/3
f 378/2/3 375/2/3 379/2/3
f 380/3/3 381/3/3 382/3/3
f 382/3/3 381/3/3 383/3/3
f 1353/4/3 385/4/3 1354/4/3
f 1448/4/3 387/4/3 1449/4/3
f 388/4/3 389/4/3 393/4/3
f 393/4/3 389/4/3 394/4/3
f 390/4/3 391/4/3 395/4/3
f 395/4/3 391/4/3 396/4/3
f 392/4/3 393/4/3 398/4/3
f 393/5/3 394/5/3 398/5/3
f 394/4/3 395/4/3 398/4/3
f 395/5/3 396/5/3 399/5/3
f 398/4/3 395/4/3 399/4/3
f 396/4/3 397/4/3 399/4/3
f 400/1/3 401/1/3 404/1/3
f 404/1/3 401/1/3 405/1/3
f 402/1/3 403/1/3 406/1/3
f 406/1/3 403/1/3 407/1/3
f 408/2/3 409/2/3 412/2/3
f 412/2/3 409/2/3 413/2/3
f 410/2/3 411/2/3 414/2/3
f 414/2/3 411/2/3 415/2/3
f 416/2/3 417/2/3 418/2/3
f 418/2/3 417/2/3 419/2/3
f 424/6/4 423/6/4 422/6/4
f 425/6/4 423/6/4 424/6/4
f 426/6/4 424/6/4 422/6/4
f 427/6/4 423/6/4 425/6/4
f 428/6/4 426/6/4 422/6/4
f 428/6/4 427/6/4 426/6/4
f 429/6/4 423/6/4 427/6/4
f 429/6/4 427/6/4 428/6/4
f 430/6/4 428/6/4 422/6/4
f 431/6/4 423/6/4 429/6/4
f 432/6/4 430/6/4 422/6/4
f 432/6/4 431/6/4 430/6/4
f 433/6/4 423/6/4 431/6/4
f 433/6/4 431/6/4 432/6/4
f 434/6/4 432/6/4 422/6/4
f 435/6/4 423/6/4 433/6/4
f 436/6/4 434/6/4 422/6/4
f 436/6/4 435/6/4 434/6/4
f 437/6/4 423/6/4 435/6/4
f 437/6/4 435/6/4 436/6/4
f 438/1/4 421/1/4 420/1/4
f 439/1/4 421/1/4 438/1/4
f 1541/4/4 1355/4/4 441/4/4
f 445/2/4 444/2/4 443/2/4
f 446/2/4 444/2/4 445/2/4
f 1450/4/4 1416/4/4 450/4/4
f 453/6/4 452/6/4 451/6/4
f 454/6/4 452/6/4 453/6/4
f 1285/4/4 1542/4/4 456/4/4
f 1543/4/4 1417/4/4 458/4/4
f 461/2/4 460/2/4 459/2/4
f 462/2/4 460/2/4 461/2/4
f 465/1/4 464/1/4 463/1/4
f 466/1/4 464/1/4 465/1/4
f 1452/1/4 1475/9/4 468/1/4
f 469/1/4 468/1/4 467/1/4
f 1418/1/4 1328/1/4 470/1/4
f 471/1/4 469/1/4 467/1/4
f 471/1/4 470/1/4 469/1/4
f 472/1/4 470/1/4 471/1/4
f 473/1/4 470/1/4 472/1/4
f 474/1/4 470/1/4 473/1/4
f 475/1/4 470/1/4 474/1/4
f 477/1/4 471/1/4 467/1/4
f 478/1/4 473/1/4 472/1/4
f 479/1/4 473/1/4 478/1/4
f 480/4/4 475/4/4 474/4/4
f 482/1/4 475/1/4 480/1/4
f 482/1/4 477/1/4 467/1/4
f 482/1/4 480/1/4 479/1/4
f 482/1/4 479/1/4 478/1/4
f 482/1/4 478/1/4 477/1/4
f 483/1/4 475/1/4 482/1/4
f 1288/2/4 1287/2/4 481/2/4
f 475/1/4 1358/1/4 1499/1/4
f 481/2/4 1499/2/4 1288/2/4
f 484/6/4 483/6/4 482/6/4
f 484/1/4 482/1/4 467/1/4
f 485/6/4 483/6/4 484/6/4
f 486/1/4 484/1/4 467/1/4
f 488/6/4 487/6/4 486/6/4
f 488/1/4 486/1/4 467/1/4
f 489/6/4 487/6/4 488/6/4
f 1419/2/4 1362/2/4 493/2/4
f 494/1/4 488/1/4 467/1/4
f 495/1/4 491/1/4 490/1/4
f 496/1/4 491/1/4 495/1/4
f 497/1/4 493/1/4 492/1/4
f 497/1/4 496/1/4 495/1/4
f 497/1/4 492/1/4 496/1/4
f 497/1/4 495/1/4 494/1/4
f 1476/1/4 1453/1/4 498/1/4
f 498/1/4 497/1/4 494/1/4
f 500/1/4 494/1/4 467/1/4
f 500/1/4 498/1/4 494/1/4
f 500/1/4 499/1/4 498/1/4
f 1421/1/4 1290/1/4 500/1/4
f 503/1/4 502/1/4 501/1/4
f 504/1/4 502/1/4 503/1/4
f 507/4/4 506/4/4 505/4/4
f 508/4/4 506/4/4 507/4/4
f 519/6/4 510/6/4 509/6/4
f 520/6/4 510/6/4 519/6/4
f 521/6/4 512/6/4 511/6/4
f 522/6/4 512/6/4 521/6/4
f 523/6/4 514/6/4 513/6/4
f 524/6/4 514/6/4 523/6/4
f 526/6/4 517/6/4 516/6/4
f 527/6/4 517/6/4 526/6/4
f 1422/6/4 1423/6/4 518/6/4
f 1363/4/4 1330/4/4 529/4/4
f 1292/4/4 1546/4/4 531/4/4
f 534/4/4 533/4/4 532/4/4
f 535/4/4 533/4/4 534/4/4
f 538/2/4 537/2/4 536/2/4
f 539/2/4 537/2/4 538/2/4
f 1501/6/4 1424/6/4 541/6/4
f 544/2/4 543/2/4 542/2/4
f 545/2/4 543/2/4 544/2/4
f 553/6/4 547/6/4 546/6/4
f 554/6/4 547/6/4 553/6/4
f 555/6/4 549/6/4 548/6/4
f 556/6/4 549/6/4 555/6/4
f 557/6/4 551/6/4 550/6/4
f 558/6/4 551/6/4 557/6/4
f 1502/6/4 1293/6/4 559/6/4
f 567/6/4 561/6/4 560/6/4
f 568/6/4 561/6/4 567/6/4
f 569/6/4 563/6/4 562/6/4
f 570/6/4 563/6/4 569/6/4
f 571/6/4 565/6/4 564/6/4
f 572/6/4 565/6/4 571/6/4
f 1365/6/4 1454/10/4 573/6/4
f 576/4/4 575/4/4 574/4/4
f 577/4/4 575/4/4 576/4/4
f 1455/4/4 1550/4/4 581/4/4
f 582/4/4 581/4/4 580/4/4
f 583/4/4 581/4/4 582/4/4
f 586/3/4 585/3/4 584/3/4
f 587/3/4 585/3/4 586/3/4
f 590/4/4 589/4/4 588/4/4
f 591/4/4 589/4/4 590/4/4
f 594/3/4 593/3/4 592/3/4
f 595/3/4 593/3/4 594/3/4
f 598/3/4 597/3/4 596/3/4
f 599/3/4 597/3/4 598/3/4
f 602/3/4 601/3/4 600/3/4
f 603/3/4 601/3/4 602/3/4
f 606/3/4 605/3/4 604/3/4
f 607/3/4 605/3/4 606/3/4
f 610/3/4 609/3/4 608/3/4
f 611/3/4 609/3/4 610/3/4
f 614/4/4 613/4/4 612/4/4
f 615/4/4 613/4/4 614/4/4
f 618/4/4 617/4/4 616/4/4
f 619/4/4 617/4/4 618/4/4
f 624/1/4 621/1/4 620/1/4
f 625/1/4 623/1/4 624/1/4
f 626/1/4 624/1/4 620/1/4
f 626/1/4 625/1/4 624/1/4
f 627/1/4 626/1/4 620/1/4
f 628/1/4 626/1/4 627/1/4
f 630/6/5 631/6/5 634/6/5
f 632/6/5 633/6/5 635/6/5
f 630/6/5 634/6/5 636/6/5
f 634/6/5 635/6/5 636/6/5
f 635/6/5 633/6/5 637/6/5
f 636/6/5 635/6/5 637/6/5
f 630/6/5 636/6/5 638/6/5
f 637/6/5 633/6/5 639/6/5
f 630/6/5 638/6/5 640/6/5
f 638/6/5 639/6/5 640/6/5
f 639/6/5 633/6/5 641/6/5
f 640/6/5 639/6/5 641/6/5
f 630/6/5 640/6/5 642/6/5
f 642/6/5 640/6/5 643/6/5
f 641/6/5 633/6/5 644/6/5
f 644/6/5 633/6/5 645/6/5
f 646/6/5 647/6/5 651/6/5
f 651/6/5 647/6/5 652/6/5
f 648/4/5 649/4/5 653/4/5
f 653/4/5 649/4/5 654/4/5
f 660/1/5 661/1/5 662/1/5
f 660/1/5 662/1/5 663/1/5
f 664/4/5 665/4/5 666/4/5
f 666/4/5 665/4/5 667/4/5
f 668/6/5 669/6/5 680/6/5
f 670/6/5 671/6/5 681/6/5
f 681/6/5 671/6/5 682/6/5
f 672/6/5 673/6/5 683/6/5
f 683/6/5 673/6/5 684/6/5
f 674/6/5 675/6/5 685/6/5
f 685/6/5 675/6/5 686/6/5
f 677/6/5 678/6/5 688/6/5
f 688/6/5 678/6/5 689/6/5
f 668/6/5 680/6/5 691/6/5
f 681/6/5 682/6/5 691/6/5
f 683/6/5 684/6/5 691/6/5
f 685/6/5 686/6/5 691/6/5
f 688/6/5 689/6/5 691/6/5
f 1368/6/5 1428/10/5 691/6/5
f 680/6/5 681/6/5 691/6/5
f 682/6/5 683/6/5 691/6/5
f 684/6/5 685/6/5 691/6/5
f 686/6/5 687/6/5 691/6/5
f 687/6/5 688/6/5 691/6/5
f 689/6/5 690/6/5 691/6/5
f 696/4/5 697/4/5 698/4/5
f 698/4/5 697/4/5 699/4/5
f 703/6/5 704/6/5 710/6/5
f 710/6/5 704/6/5 711/6/5
f 705/6/5 706/6/5 712/6/5
f 712/6/5 706/6/5 713/6/5
f 707/6/5 708/6/5 714/6/5
f 714/6/5 708/6/5 715/6/5
f 717/6/5 718/6/5 724/6/5
f 724/6/5 718/6/5 725/6/5
f 719/6/5 720/6/5 726/6/5
f 726/6/5 720/6/5 727/6/5
f 721/6/5 722/6/5 728/6/5
f 728/6/5 722/6/5 729/6/5
f 733/2/5 734/2/5 735/2/5
f 735/2/5 734/2/5 736/2/5
f 737/4/5 738/4/5 739/4/5
f 739/4/5 738/4/5 740/4/5
f 741/2/5 742/2/5 743/2/5
f 743/2/5 742/2/5 744/2/5
f 745/4/5 746/4/5 747/4/5
f 747/4/5 746/4/5 748/4/5
f 749/3/5 750/3/5 751/3/5
f 751/3/5 750/3/5 752/3/5
f 753/4/5 754/4/5 755/4/5
f 755/4/5 754/4/5 756/4/5
f 757/4/5 758/4/5 759/4/5
f 759/4/5 758/4/5 760/4/5
f 761/1/5 762/1/5 763/1/5
f 763/1/5 762/1/5 764/1/5
f 767/1/5 768/1/5 770/1/5
f 770/1/5 768/1/5 771/1/5
f 765/1/5 766/1/5 775/1/5
f 773/2/5 774/2/5 776/2/5
f 776/1/5 774/1/5 777/1/5
f 775/1/5 776/1/5 777/1/5
f 777/1/5 774/1/5 778/1/5
f 778/1/5 774/1/5 779/1/5
f 777/2/5 778/2/5 780/2/5
f 780/1/5 781/1/5 782/1/5
f 777/1/5 780/1/5 782/1/5
f 782/1/5 781/1/5 783/1/5
f 777/1/5 782/1/5 784/1/5
f 775/1/5 777/1/5 784/1/5
f 784/2/5 782/2/5 785/2/5
f 765/1/5 775/1/5 788/1/5
f 775/1/5 784/1/5 788/1/5
f 788/1/5 784/1/5 789/1/5
f 1522/2/5 1457/2/5 790/2/5
f 789/2/5 784/2/5 791/2/5
f 786/1/5 787/1/5 792/1/5
f 791/1/5 792/1/5 793/1/5
f 789/1/5 791/1/5 793/1/5
f 793/1/5 792/1/5 794/1/5
f 792/1/5 787/1/5 794/1/5
f 765/1/5 788/1/5 797/1/5
f 797/1/5 788/1/5 798/1/5
f 789/1/5 793/1/5 799/1/5
f 793/1/5 795/1/5 799/1/5
f 795/1/5 796/1/5 799/1/5
f 799/1/5 796/1/5 800/1/5
f 769/2/5 772/2/5 790/2/5
f 801/1/5 802/1/5 803/1/5
f 803/1/5 802/1/5 804/1/5
f 805/2/5 806/2/5 811/2/5
f 811/2/5 806/2/5 812/2/5
f 807/3/5 808/3/5 813/3/5
f 809/4/5 810/4/5 814/4/5
f 807/3/5 813/3/5 815/3/5
f 813/4/5 814/4/5 815/4/5
f 807/3/5 815/3/5 816/3/5
f 816/3/5 815/3/5 817/3/5
f 814/4/5 810/4/5 820/4/5
f 820/4/5 810/4/5 821/4/5
f 819/4/5 820/4/5 822/4/5
f 820/5/5 821/5/5 823/5/5
f 822/4/5 820/4/5 823/4/5
f 823/4/5 821/4/5 826/4/5
f 825/4/5 826/4/5 828/4/5
f 827/3/5 828/3/5 831/3/5
f 831/3/5 828/3/5 832/3/5
f 826/4/5 821/4/5 834/4/5
f 833/4/5 834/4/5 835/4/5
f 834/5/5 821/5/5 836/5/5
f 835/4/5 834/4/5 836/4/5
f 837/2/5 838/2/5 839/2/5
f 839/2/5 838/2/5 840/2/5
f 829/3/5 830/3/5 841/3/5
f 841/3/5 830/3/5 842/3/5
f 836/4/5 821/4/5 843/4/5
f 844/1/5 845/1/5 846/1/5
f 846/1/5 845/1/5 847/1/5
f 851/1/6 849/1/6 848/1/6
f 852/1/6 849/1/6 851/1/6
f 855/2/6 851/2/6 850/2/6
f 855/2/6 853/2/6 852/2/6
f 855/2/6 852/2/6 851/2/6
f 856/2/6 853/2/6 855/2/6
f 858/2/6 856/2/6 855/2/6
f 859/2/6 856/2/6 858/2/6
f 858/1/6 855/1/6 854/1/6
f 860/2/6 856/2/6 859/2/6
f 860/1/6 857/1/6 856/1/6
f 862/2/6 861/2/6 860/2/6
f 864/2/6 862/2/6 860/2/6
f 864/2/6 863/2/6 862/2/6
f 865/2/6 863/2/6 864/2/6
f 866/1/6 858/1/6 854/1/6
f 867/2/6 864/2/6 860/2/6
f 868/2/6 864/2/6 867/2/6
f 867/2/6 860/2/6 859/2/6
f 869/2/6 867/2/6 859/2/6
f 870/1/6 866/1/6 854/1/6
f 871/2/6 869/2/6 866/2/6
f 871/1/6 866/1/6 870/1/6
f 872/2/6 867/2/6 869/2/6
f 872/2/6 869/2/6 871/2/6
f 873/1/6 867/1/6 872/1/6
f 874/2/6 872/2/6 871/2/6
f 875/2/6 872/2/6 874/2/6
f 876/2/6 872/2/6 875/2/6
f 877/2/6 872/2/6 876/2/6
f 878/1/6 876/1/6 875/1/6
f 879/1/6 876/1/6 878/1/6
f 882/6/6 881/6/6 880/6/6
f 883/6/6 881/6/6 882/6/6
f 886/6/6 885/6/6 884/6/6
f 887/6/6 885/6/6 886/6/6
f 890/6/6 886/6/6 884/6/6
f 891/6/6 886/6/6 890/6/6
f 892/6/6 889/6/6 888/6/6
f 893/6/6 889/6/6 892/6/6
f 894/6/6 885/6/6 887/6/6
f 897/6/6 896/6/6 895/6/6
f 898/6/6 896/6/6 897/6/6
f 901/6/6 900/6/6 899/6/6
f 902/6/6 900/6/6 901/6/6
f 905/3/6 904/3/6 903/3/6
f 906/3/6 904/3/6 905/3/6
f 911/3/6 908/3/6 907/3/6
f 912/3/6 908/3/6 911/3/6
f 914/3/6 910/3/6 909/3/6
f 915/3/6 914/3/6 913/3/6
f 916/3/6 910/3/6 914/3/6
f 916/3/6 914/3/6 915/3/6
f 923/6/6 918/6/6 917/6/6
f 924/6/6 918/6/6 923/6/6
f 925/6/6 920/6/6 919/6/6
f 926/6/6 920/6/6 925/6/6
f 927/6/6 922/6/6 921/6/6
f 928/6/6 922/6/6 927/6/6
f 932/6/6 930/6/6 929/6/6
f 933/6/6 930/6/6 932/6/6
f 937/6/6 936/6/6 935/6/6
f 938/6/6 936/6/6 937/6/6
f 941/6/6 940/6/6 939/6/6
f 942/6/6 940/6/6 941/6/6
f 945/6/6 944/6/6 943/6/6
f 946/6/6 944/6/6 945/6/6
f 949/3/6 948/3/6 947/3/6
f 951/3/6 949/3/6 947/3/6
f 951/3/6 950/3/6 949/3/6
f 952/3/6 950/3/6 951/3/6
f 955/3/6 954/3/6 953/3/6
f 956/3/6 954/3/6 955/3/6
f 959/6/6 958/6/6 957/6/6
f 960/6/6 958/6/6 959/6/6
f 963/3/6 962/3/6 961/3/6
f 964/3/6 962/3/6 963/3/6
f 973/11/6 967/11/6 966/11/6
f 974/11/6 967/11/6 973/11/6
f 975/11/6 969/11/6 968/11/6
f 976/11/6 969/11/6 975/11/6
f 977/11/6 971/11/6 970/11/6
f 978/11/6 971/11/6 977/11/6
f 985/11/6 980/11/6 979/11/6
f 986/11/6 980/11/6 985/11/6
f 987/6/6 982/6/6 981/6/6
f 988/6/6 982/6/6 987/6/6
f 989/11/6 984/11/6 983/11/6
f 990/11/6 984/11/6 989/11/6
f 995/11/6 992/11/6 991/11/6
f 996/11/6 992/11/6 995/11/6
f 997/11/6 994/11/6 993/11/6
f 998/11/6 994/11/6 997/11/6
f 1001/6/6 1000/6/6 999/6/6
f 1002/6/6 1000/6/6 1001/6/6
f 1005/6/6 1004/6/6 1003/6/6
f 1006/6/6 1004/6/6 1005/6/6
f 1009/11/6 1008/11/6 1007/11/6
f 1010/11/6 1008/11/6 1009/11/6
f 1013/11/6 1012/11/6 1011/11/6
f 1014/11/6 1012/11/6 1013/11/6
f 1017/11/6 1016/11/6 1015/11/6
f 1018/11/6 1016/11/6 1017/11/6
f 1024/11/6 1020/11/6 1019/11/6
f 1025/11/6 1020/11/6 1024/11/6
f 1027/11/6 1023/11/6 1022/11/6
f 1028/11/6 1023/11/6 1027/11/6
f 1031/6/6 1030/6/6 1029/6/6
f 1032/6/6 1030/6/6 1031/6/6
f 1038/6/6 1037/6/6 1036/6/6
f 1039/6/6 1037/6/6 1038/6/6
f 1042/6/6 1041/6/6 1040/6/6
f 1043/6/6 1041/6/6 1042/6/6
f 1048/4/6 1047/4/6 1046/4/6
f 1049/4/6 1047/4/6 1048/4/6
f 1305/4/6 1484/4/6 1052/4/6
f 1053/4/6 1051/4/6 1050/4/6
f 1054/4/6 1051/4/6 1053/4/6
f 1059/4/6 1056/4/6 1055/4/6
f 1060/4/6 1056/4/6 1059/4/6
f 1063/4/6 1058/4/6 1057/4/6
f 1064/4/6 1058/4/6 1063/4/6
f 1065/4/6 1062/4/6 1061/4/6
f 1066/4/6 1062/4/6 1065/4/6
f 1071/5/6 1068/5/6 1067/5/6
f 1072/5/6 1068/5/6 1071/5/6
f 1081/4/6 1070/4/6 1069/4/6
f 1071/4/6 1073/4/6 1072/4/6
f 1082/4/6 1073/4/6 1071/4/6
f 1083/4/6 1075/4/6 1074/4/6
f 1084/4/6 1075/4/6 1083/4/6
f 1085/4/6 1077/4/6 1076/4/6
f 1086/4/6 1077/4/6 1085/4/6
f 1087/4/6 1079/4/6 1078/4/6
f 1088/4/6 1079/4/6 1087/4/6
f 1089/4/6 1081/4/6 1080/4/6
f 1090/4/6 1070/4/6 1081/4/6
f 1090/4/6 1081/4/6 1089/4/6
f 1094/1/7 1095/1/7 1097/1/7
f 1097/1/7 1095/1/7 1098/1/7
f 1096/2/7 1097/2/7 1101/2/7
f 1098/2/7 1099/2/7 1101/2/7
f 1097/2/7 1098/2/7 1101/2/7
f 1101/2/7 1099/2/7 1102/2/7
f 1102/2/7 1099/2/7 1103/2/7
f 1103/2/7 1099/2/7 1104/2/7
f 1104/1/7 1105/1/7 1106/1/7
f 1103/2/7 1104/2/7 1106/2/7
f 1106/1/7 1105/1/7 1107/1/7
f 1107/2/7 1108/2/7 1106/2/7
f 1106/2/7 1108/2/7 1110/2/7
f 1109/2/7 1106/2/7 1112/2/7
f 1110/2/7 1111/2/7 1112/2/7
f 1106/2/7 1110/2/7 1112/2/7
f 1112/2/7 1111/2/7 1113/2/7
f 1113/2/7 1111/2/7 1114/2/7
f 1114/2/7 1111/2/7 1115/2/7
f 1100/1/7 1101/1/7 1116/1/7
f 1101/2/7 1102/2/7 1116/2/7
f 1113/2/7 1114/2/7 1117/2/7
f 1117/2/7 1114/2/7 1118/2/7
f 1100/1/7 1116/1/7 1119/1/7
f 1116/2/7 1102/2/7 1120/2/7
f 1113/2/7 1117/2/7 1121/2/7
f 1121/2/7 1117/2/7 1122/2/7
f 1122/1/7 1117/1/7 1123/1/7
f 1121/2/7 1122/2/7 1124/2/7
f 1116/2/7 1120/2/7 1124/2/7
f 1120/2/7 1121/2/7 1124/2/7
f 1124/2/7 1122/2/7 1125/2/7
f 1125/2/7 1122/2/7 1126/2/7
f 1126/2/7 1122/2/7 1127/2/7
f 1125/1/7 1126/1/7 1128/1/7
f 1128/1/7 1126/1/7 1129/1/7
f 1130/6/7 1131/6/7 1132/6/7
f 1132/6/7 1131/6/7 1133/6/7
f 1134/6/7 1135/6/7 1136/6/7
f 1136/6/7 1135/6/7 1137/6/7
f 1138/6/7 1139/6/7 1144/6/7
f 1144/6/7 1139/6/7 1145/6/7
f 1140/6/7 1141/6/7 1146/6/7
f 1146/6/7 1141/6/7 1147/6/7
f 1142/6/7 1143/6/7 1148/6/7
f 1148/6/7 1143/6/7 1149/6/7
f 1150/6/7 1151/6/7 1155/6/7
f 1155/6/7 1151/6/7 1156/6/7
f 1152/6/7 1153/6/7 1158/6/7
f 1158/6/7 1153/6/7 1159/6/7
f 1159/6/7 1160/6/7 1162/6/7
f 1157/6/7 1158/6/7 1162/6/7
f 1158/6/7 1159/6/7 1162/6/7
f 1162/6/7 1160/6/7 1163/6/7
f 1164/6/7 1165/6/7 1166/6/7
f 1166/6/7 1165/6/7 1167/6/7
f 1168/6/7 1169/6/7 1170/6/7
f 1170/6/7 1169/6/7 1171/6/7
f 1172/6/7 1173/6/7 1175/6/7
f 1175/6/7 1173/6/7 1176/6/7
f 1178/6/7 1179/6/7 1180/6/7
f 1180/6/7 1179/6/7 1181/6/7
f 1182/6/7 1183/6/7 1184/6/7
f 1184/6/7 1183/6/7 1185/6/7
f 1186/3/7 1187/3/7 1188/3/7
f 1186/3/7 1188/3/7 1189/3/7
f 1190/6/7 1191/6/7 1192/6/7
f 1192/6/7 1191/6/7 1193/6/7
f 1194/3/7 1195/3/7 1196/3/7
f 1196/3/7 1195/3/7 1197/3/7
f 1198/3/7 1199/3/7 1202/3/7
f 1202/3/7 1199/3/7 1203/3/7
f 1200/3/7 1201/3/7 1205/3/7
f 1204/3/7 1205/3/7 1206/3/7
f 1205/3/7 1201/3/7 1207/3/7
f 1206/3/7 1205/3/7 1207/3/7
f 1208/6/7 1209/6/7 1210/6/7
f 1210/6/7 1209/6/7 1211/6/7
f 1212/3/7 1213/3/7 1214/3/7
f 1212/3/7 1214/3/7 1215/3/7
f 1216/3/7 1217/3/7 1218/3/7
f 1216/3/7 1218/3/7 1222/3/7
f 1218/3/7 1219/3/7 1222/3/7
f 1222/3/7 1219/3/7 1223/3/7
f 1220/3/7 1221/3/7 1224/3/7
f 1224/3/7 1221/3/7 1225/3/7
f 1226/4/7 1227/4/7 1228/4/7
f 1228/4/7 1227/4/7 1229/4/7
f 1230/6/7 1231/6/7 1232/6/7
f 1232/6/7 1231/6/7 1233/6/7
f 1234/6/7 1235/6/7 1236/6/7
f 1236/6/7 1235/6/7 1237/6/7
f 1238/6/7 1239/6/7 1240/6/7
f 1240/6/7 1239/6/7 1241/6/7
f 1242/3/7 1243/3/7 1244/3/7
f 1244/3/7 1243/3/7 1245/3/7
f 1246/3/7 1247/3/7 1248/3/7
f 1248/3/7 1247/3/7 1249/3/7
f 1250/6/7 1251/6/7 1252/6/7
f 1252/6/7 1251/6/7 1253/6/7
f 1306/6/7 1339/6/7 1254/6/7
f 1255/6/7 1256/6/7 1257/6/7
f 1257/6/7 1256/6/7 1258/6/7
f 1259/6/7 1260/6/7 1261/6/7
f 1261/6/7 1260/6/7 1262/6/7
f 1461/4/7 1307/4/7 1263/4/7
f 1264/4/7 1265/4/7 1267/4/7
f 1267/4/7 1265/4/7 1268/4/7
f 1263/4/7 1266/4/7 1268/4/7
f 1266/4/7 1267/4/7 1268/4/7
f 581/4/4 1549/4/4 580/4/4
f 580/1/4 1548/1/4 579/1/4
f 334/6/3 1539/6/3 1540/6/3
f 334/6/3 1538/6/3 1539/6/3
f 1521/2/5 772/2/5 769/2/5
f 731/6/5 1556/6/5 732/6/5
f 702/4/5 1517/4/5 1518/4/5
f 695/4/5 1516/4/5 1553/4/5
f 1514/6/5 679/6/5 678/6/5
f 1513/6/5 678/6/5 677/6/5
f 1512/6/5 677/6/5 676/6/5
f 1511/12/5 676/6/5 675/6/5
f 1510/6/5 675/6/5 674/6/5
f 1509/6/5 674/6/5 673/6/5
f 1508/6/5 673/6/5 672/6/5
f 1507/6/5 672/6/5 671/6/5
f 1506/6/5 671/6/5 670/6/5
f 1505/6/5 670/6/5 669/6/5
f 1548/1/4 578/1/4 579/1/4
f 1546/4/4 530/4/4 531/4/4
f 1542/4/4 455/4/4 456/4/4
f 1093/3/6 1485/3/6 1092/3/6
f 1035/6/6 1482/6/6 1034/6/6
f 694/4/5 1516/4/5 695/4/5
f 1479/6/5 669/6/5 668/6/5
f 660/1/5 1504/7/5 661/1/5
f 211/4/3 1471/4/3 210/4/3
f 208/4/3 1470/4/3 1469/4/3
f 30/4/1 1463/4/1 37/4/1
f 1092/3/6 1460/3/6 1091/3/6
f 1052/4/6 1484/4/6 1459/4/6
f 1034/6/6 1458/6/6 1033/6/6
f 468/1/4 1451/1/4 467/1/4
f 332/6/3 1440/6/3 1441/6/3
f 318/4/3 1438/4/3 317/4/3
f 317/4/3 1438/4/3 1439/4/3
f 298/4/3 1436/4/3 297/4/3
f 297/4/3 1436/4/3 1437/4/3
f 691/6/5 1428/10/5 1480/6/5
f 679/6/5 1515/6/5 1427/6/5
f 679/6/5 1456/6/5 690/6/5
f 1454/10/4 566/6/4 573/6/4
f 1453/1/4 497/1/4 498/1/4
f 387/4/3 1415/4/3 386/4/3
f 371/2/3 1413/2/3 370/2/3
f 353/1/3 1409/1/3 345/1/3
f 291/6/3 1407/6/3 290/6/3
f 290/6/3 1407/6/3 1408/6/3
f 130/2/1 1393/2/1 1394/2/1
f 128/2/1 1392/2/1 1393/2/1
f 1045/4/6 1375/4/6 1044/4/6
f 772/2/5 1522/2/5 790/2/5
f 772/2/5 1557/2/5 1372/2/5
f 772/2/5 1372/2/5 1373/2/5
f 732/6/5 1556/6/5 1371/6/5
f 709/6/5 1430/6/5 716/6/5
f 693/4/5 1369/4/5 1429/4/5
f 655/4/5 1426/4/5 1367/4/5
f 650/4/5 1426/4/5 655/4/5
f 1424/6/4 540/6/4 541/6/4
f 493/1/4 1361/1/4 492/1/4
f 492/1/4 1360/1/4 491/1/4
f 491/1/4 1359/1/4 490/1/4
f 1417/4/4 457/4/4 458/4/4
f 1416/4/4 449/4/4 450/4/4
f 361/2/3 1352/2/3 360/2/3
f 332/6/3 1349/6/3 1440/6/3
f 227/4/3 1348/4/3 226/4/3
f 131/6/1 1395/6/1 132/6/1
f 1254/6/7 1339/6/7 1377/6/7
f 716/6/5 1430/6/5 1338/12/5
f 692/4/5 1369/4/5 693/4/5
f 690/6/5 1456/6/5 1336/6/5
f 690/6/5 1368/6/5 691/6/5
f 663/1/5 1335/1/5 1552/1/5
f 661/1/5 1504/7/5 1334/1/5
f 629/2/4 1477/2/4 1333/2/4
f 1333/4/4 625/4/4 629/4/4
f 1332/4/4 623/4/4 625/4/4
f 1355/4/4 440/4/4 441/4/4
f 385/4/3 1325/4/3 384/4/3
f 337/6/3 1322/6/3 336/6/3
f 257/1/3 1472/1/3 245/1/3
f 239/4/3 1497/4/3 236/4/3
f 204/1/3 1532/1/3 202/1/3
f 125/1/1 1312/1/1 1392/1/1
f 64/1/1 1488/1/1 1309/1/1
f 1307/4/7 1266/4/7 1263/4/7
f 1044/4/6 1375/4/6 1304/4/6
f 818/3/5 1303/3/5 824/3/5
f 824/3/5 1303/3/5 1523/3/5
f 790/2/5 1301/2/5 1302/8/5
f 790/2/5 1457/2/5 1300/2/5
f 790/2/5 1300/2/5 1301/2/5
f 723/6/5 1299/6/5 730/6/5
f 730/6/5 1299/6/5 1519/6/5
f 702/4/5 1298/4/5 1517/4/5
f 700/1/5 1297/1/5 701/1/5
f 1297/1/5 702/1/5 701/1/5
f 662/1/5 1335/1/5 663/1/5
f 658/6/5 1295/6/5 659/6/5
f 1331/1/4 622/1/4 623/1/4
f 1293/6/4 552/6/4 559/6/4
f 1330/4/4 528/4/4 529/4/4
f 1290/1/4 499/1/4 500/1/4
f 1289/1/4 489/1/4 488/1/4
f 490/1/4 1289/1/4 488/1/4
f 1287/4/4 476/4/4 481/4/4
f 1328/1/4 469/1/4 470/1/4
f 1327/13/4 447/4/4 448/4/4
f 359/1/3 1283/1/3 358/1/3
f 335/6/3 1538/6/3 334/6/3
f 282/6/3 1281/6/3 281/6/3
f 1462/5/1 29/5/1 28/5/1
f 1487/4/1 30/4/1 29/4/1
f 53/1/1 44/1/1 1464/1/2
f 74/4/1 73/4/1 1342/4/1
f 80/4/1 79/4/1 1432/4/1
f 82/3/1 81/3/1 1269/3/1
f 91/4/1 90/4/1 1524/4/1
f 98/6/1 97/6/1 1525/6/1
f 123/1/1 111/1/1 1466/1/1
f 1344/6/1 131/6/1 130/6/1
f 142/6/1 141/6/1 1489/6/1
f 151/4/1 150/4/1 1314/4/1
f 177/4/1 176/4/1 1467/4/1
f 186/6/1 162/6/1 1527/6/1
f 191/6/1 190/6/1 1468/6/1
f 1274/6/1 163/6/1 189/6/1
f 196/1/1 194/1/1 1315/1/1
f 200/1/1 197/1/1 1434/1/1
f 1277/2/1 201/2/1 200/2/1
f 1316/1/3 204/1/3 206/1/3
f 206/2/3 208/2/3 1469/2/3
f 1319/1/3 257/1/3 259/1/3
f 1402/2/3 259/2/3 262/2/3
f 1403/2/3 262/2/3 264/2/3
f 1404/2/3 264/2/3 266/2/3
f 475/1/4 483/1/4 1358/1/4
f 481/2/4 475/2/4 1499/2/4
f 581/4/4 1550/4/4 1549/4/4
f 580/1/4 1549/1/4 1548/1/4
f 1521/2/5 1557/2/5 772/2/5
f 731/6/5 1520/6/5 1556/6/5
f 1514/6/5 1515/6/5 679/6/5
f 1513/6/5 1514/6/5 678/6/5
f 1512/6/5 1513/6/5 677/6/5
f 1511/12/5 1512/6/5 676/6/5
f 1510/6/5 1511/12/5 675/6/5
f 1509/6/5 1510/6/5 674/6/5
f 1508/6/5 1509/6/5 673/6/5
f 1507/6/5 1508/6/5 672/6/5
f 1506/6/5 1507/6/5 671/6/5
f 1505/6/5 1506/6/5 670/6/5
f 1548/1/4 1503/1/4 578/1/4
f 1546/4/4 1500/4/4 530/4/4
f 1542/4/4 1498/13/4 455/4/4
f 1093/3/6 1486/3/6 1485/3/6
f 1035/6/6 1483/6/6 1482/6/6
f 694/4/5 1481/4/5 1516/4/5
f 1479/6/5 1505/6/5 669/6/5
f 660/1/5 1478/1/5 1504/7/5
f 211/4/3 1495/4/3 1471/4/3
f 208/4/3 209/4/3 1470/4/3
f 30/4/1 1487/4/1 1463/4/1
f 1092/3/6 1485/3/6 1460/3/6
f 1034/6/6 1482/6/6 1458/6/6
f 468/1/4 1475/9/4 1451/1/4
f 318/4/3 1474/4/3 1438/4/3
f 298/4/3 1473/4/3 1436/4/3
f 679/6/5 1427/6/5 1456/6/5
f 1454/10/4 1425/6/4 566/6/4
f 1453/1/4 1420/1/4 497/1/4
f 387/4/3 1448/4/3 1415/4/3
f 371/2/3 1442/2/3 1413/2/3
f 353/1/3 1410/1/3 1409/1/3
f 291/6/3 1435/6/3 1407/6/3
f 130/2/1 128/2/1 1393/2/1
f 128/2/1 125/2/1 1392/2/1
f 1045/4/6 1376/4/6 1375/4/6
f 772/2/5 1374/2/5 1522/2/5
f 709/6/5 1370/6/5 1430/6/5
f 650/4/5 1366/4/5 1426/4/5
f 1424/6/4 1364/6/4 540/6/4
f 493/1/4 1362/1/4 1361/1/4
f 492/1/4 1361/1/4 1360/1/4
f 491/1/4 1360/1/4 1359/1/4
f 1417/4/4 1357/4/4 457/4/4
f 1416/4/4 1356/4/4 449/4/4
f 361/2/3 1412/2/3 1352/2/3
f 332/6/3 323/6/3 1349/6/3
f 227/4/3 1400/4/3 1348/4/3
f 131/6/1 1344/6/1 1395/6/1
f 692/4/5 1337/4/5 1369/4/5
f 690/6/5 1336/6/5 1368/6/5
f 1333/4/4 1332/4/4 625/4/4
f 1332/4/4 1331/4/4 623/4/4
f 1355/4/4 1326/4/4 440/4/4
f 385/4/3 1353/4/3 1325/4/3
f 337/6/3 1350/6/3 1322/6/3
f 257/1/3 1319/1/3 1472/1/3
f 239/4/3 1317/4/3 1497/4/3
f 204/1/3 1316/1/3 1532/1/3
f 125/1/1 123/1/1 1312/1/1
f 64/1/1 53/1/1 1488/1/1
f 1307/4/7 1308/4/7 1266/4/7
f 818/3/5 1558/3/5 1303/3/5
f 723/6/5 1555/6/5 1299/6/5
f 700/1/5 1554/1/5 1297/1/5
f 1297/1/5 1298/1/5 702/1/5
f 662/1/5 1296/1/5 1335/1/5
f 658/6/5 1551/6/5 1295/6/5
f 1331/1/4 1294/1/4 622/1/4
f 1293/6/4 1547/6/4 552/6/4
f 1330/4/4 1291/4/4 528/4/4
f 1290/1/4 1545/1/4 499/1/4
f 1289/1/4 1329/1/4 489/1/4
f 490/1/4 1359/1/4 1289/1/4
f 1287/4/4 1544/4/4 476/4/4
f 1328/1/4 1286/1/4 469/1/4
f 1327/13/4 1284/4/4 447/4/4
f 359/1/3 1323/1/3 1283/1/3
f 335/6/3 1282/6/3 1538/6/3
f 282/6/3 1320/6/3 1281/6/3
l 515 525
l 1021 1026
l 1174 1177
l 965 972
l 676 687
l 239 240
l 1154 1161
l 656 657
l 931 934
l 442 1340
