# Blender 4.5.3 LTS
# www.blender.org
mtllib enemyBullet.mtl
o Circle
v -0.000000 0.613012 -0.000000
v 0.119593 0.601233 -0.000000
v 0.234590 0.566350 -0.000000
v 0.340571 0.509701 -0.000000
v 0.433465 0.433465 -0.000000
v 0.509701 0.340571 -0.000000
v 0.566349 0.234590 -0.000000
v 0.601233 0.119593 -0.000000
v 0.613012 0.000000 -0.000000
v 0.601233 -0.119593 -0.000000
v 0.566349 -0.234590 -0.000000
v 0.509701 -0.340571 -0.000000
v 0.433465 -0.433465 -0.000000
v 0.340571 -0.509701 -0.000000
v 0.234590 -0.566349 0.000000
v 0.119593 -0.601233 0.000000
v -0.000000 -0.613012 0.000000
v -0.119593 -0.601233 0.000000
v -0.234590 -0.566349 0.000000
v -0.340571 -0.509701 0.000000
v -0.433465 -0.433465 0.000000
v -0.509701 -0.340571 0.000000
v -0.566349 -0.234590 0.000000
v -0.601233 -0.119593 0.000000
v -0.613012 0.000000 0.000000
v -0.601233 0.119593 0.000000
v -0.566349 0.234590 0.000000
v -0.509701 0.340571 0.000000
v -0.433465 0.433465 0.000000
v -0.340571 0.509701 0.000000
v -0.234590 0.566350 -0.000000
v -0.119593 0.601233 -0.000000
v 0.077545 0.389843 -0.000000
v -0.000000 0.397480 -0.000000
v 0.152109 0.367224 -0.000000
v 0.220828 0.330493 -0.000000
v 0.281061 0.281061 -0.000000
v 0.330493 0.220828 -0.000000
v 0.367224 0.152109 -0.000000
v 0.389843 0.077545 -0.000000
v 0.397480 0.000000 -0.000000
v 0.389843 -0.077544 -0.000000
v 0.367224 -0.152109 -0.000000
v 0.330493 -0.220828 -0.000000
v 0.281061 -0.281061 -0.000000
v 0.220828 -0.330493 -0.000000
v 0.152109 -0.367224 0.000000
v 0.077545 -0.389843 0.000000
v -0.000000 -0.397480 0.000000
v -0.077545 -0.389843 0.000000
v -0.152109 -0.367224 0.000000
v -0.220828 -0.330493 0.000000
v -0.281061 -0.281061 0.000000
v -0.330493 -0.220828 0.000000
v -0.367224 -0.152109 0.000000
v -0.389843 -0.077544 0.000000
v -0.397480 0.000000 0.000000
v -0.389843 0.077545 0.000000
v -0.367224 0.152109 0.000000
v -0.330493 0.220828 0.000000
v -0.281061 0.281061 0.000000
v -0.220828 0.330493 0.000000
v -0.152109 0.367224 -0.000000
v -0.077545 0.389843 -0.000000
vn -0.0000 -0.0000 -1.0000
vt 0.000000 0.000000
s 0
f 34/1/1 2/1/1 33/1/1
f 33/1/1 3/1/1 35/1/1
f 35/1/1 4/1/1 36/1/1
f 36/1/1 5/1/1 37/1/1
f 37/1/1 6/1/1 38/1/1
f 38/1/1 7/1/1 39/1/1
f 40/1/1 7/1/1 8/1/1
f 40/1/1 9/1/1 41/1/1
f 41/1/1 10/1/1 42/1/1
f 42/1/1 11/1/1 43/1/1
f 43/1/1 12/1/1 44/1/1
f 44/1/1 13/1/1 45/1/1
f 45/1/1 14/1/1 46/1/1
f 47/1/1 14/1/1 15/1/1
f 47/1/1 16/1/1 48/1/1
f 48/1/1 17/1/1 49/1/1
f 50/1/1 17/1/1 18/1/1
f 50/1/1 19/1/1 51/1/1
f 51/1/1 20/1/1 52/1/1
f 52/1/1 21/1/1 53/1/1
f 53/1/1 22/1/1 54/1/1
f 54/1/1 23/1/1 55/1/1
f 55/1/1 24/1/1 56/1/1
f 56/1/1 25/1/1 57/1/1
f 58/1/1 25/1/1 26/1/1
f 58/1/1 27/1/1 59/1/1
f 59/1/1 28/1/1 60/1/1
f 61/1/1 28/1/1 29/1/1
f 61/1/1 30/1/1 62/1/1
f 62/1/1 31/1/1 63/1/1
f 63/1/1 32/1/1 64/1/1
f 64/1/1 1/1/1 34/1/1
f 34/1/1 1/1/1 2/1/1
f 33/1/1 2/1/1 3/1/1
f 35/1/1 3/1/1 4/1/1
f 36/1/1 4/1/1 5/1/1
f 37/1/1 5/1/1 6/1/1
f 38/1/1 6/1/1 7/1/1
f 40/1/1 39/1/1 7/1/1
f 40/1/1 8/1/1 9/1/1
f 41/1/1 9/1/1 10/1/1
f 42/1/1 10/1/1 11/1/1
f 43/1/1 11/1/1 12/1/1
f 44/1/1 12/1/1 13/1/1
f 45/1/1 13/1/1 14/1/1
f 47/1/1 46/1/1 14/1/1
f 47/1/1 15/1/1 16/1/1
f 48/1/1 16/1/1 17/1/1
f 50/1/1 49/1/1 17/1/1
f 50/1/1 18/1/1 19/1/1
f 51/1/1 19/1/1 20/1/1
f 52/1/1 20/1/1 21/1/1
f 53/1/1 21/1/1 22/1/1
f 54/1/1 22/1/1 23/1/1
f 55/1/1 23/1/1 24/1/1
f 56/1/1 24/1/1 25/1/1
f 58/1/1 57/1/1 25/1/1
f 58/1/1 26/1/1 27/1/1
f 59/1/1 27/1/1 28/1/1
f 61/1/1 60/1/1 28/1/1
f 61/1/1 29/1/1 30/1/1
f 62/1/1 30/1/1 31/1/1
f 63/1/1 31/1/1 32/1/1
f 64/1/1 32/1/1 1/1/1
